SplineFontDB: 3.2
FontName: AeMRoman10-BoldItalic
FullName: AeMRoman10-BoldItalic
FamilyName: AeMRoman10
Weight: Bold
Copyright: Copyright 2021 Palle Jorgensen.\n\nBased on the Latin Modern fonts, copyright 2003, 2009 B. Jackowski and J. M. Nowacki (on behalf of TeX users groups). This work is released under the GUST Font License --  see http://tug.org/fonts/licenses/GUST-FONT-LICENSE.txt for details.\n\nThe ae-ligature is from the cm-super fonts, copyright 2001, 2002, 2008 Vladimir Volovich released under GPL.
Version: 1
ItalicAngle: -14.0362
UnderlinePosition: -146
UnderlineWidth: 60
Ascent: 806
Descent: 194
InvalidEm: 0
LayerCount: 2
Layer: 0 0 "Back" 1
Layer: 1 0 "Fore" 0
XUID: [1021 259 529409426 15858050]
StyleMap: 0x0021
FSType: 12
OS2Version: 3
OS2_WeightWidthSlopeOnly: 0
OS2_UseTypoMetrics: 0
CreationTime: 1254995910
ModificationTime: 1614844759
PfmFamily: 81
TTFWeight: 700
TTFWidth: 5
LineGap: 0
VLineGap: 0
Panose: 0 0 8 0 0 0 0 0 0 0
OS2TypoAscent: 806
OS2TypoAOffset: 0
OS2TypoDescent: -194
OS2TypoDOffset: 0
OS2TypoLinegap: 200
OS2WinAscent: 1147
OS2WinAOffset: 0
OS2WinDescent: 307
OS2WinDOffset: 0
HheadAscent: 1147
HheadAOffset: 0
HheadDescent: -307
HheadDOffset: 0
OS2SubXSize: 650
OS2SubYSize: 600
OS2SubXOff: -19
OS2SubYOff: 75
OS2SupXSize: 650
OS2SupYSize: 600
OS2SupXOff: 87
OS2SupYOff: 350
OS2StrikeYSize: 60
OS2StrikeYPos: 266
OS2CapHeight: 686
OS2XHeight: 444
OS2Vendor: 'UKWN'
OS2CodePages: 20000193.00000000
OS2UnicodeRanges: 20000007.00000000.00000000.00000000
Lookup: 1 0 0 "'aalt' Access All Alternates lookup 0" { "'aalt' Access All Alternates lookup 0 subtable"  } ['aalt' ('DFLT' <'dflt' > 'cyrl' <'dflt' > 'latn' <'AZE ' 'CRT ' 'MOL ' 'NLD ' 'PLK ' 'ROM ' 'TRK ' 'dflt' > ) ]
Lookup: 3 0 0 "'aalt' Access All Alternates lookup 1" { "'aalt' Access All Alternates lookup 1 subtable"  } ['aalt' ('DFLT' <'dflt' > 'cyrl' <'dflt' > 'latn' <'AZE ' 'CRT ' 'MOL ' 'NLD ' 'PLK ' 'ROM ' 'TRK ' 'dflt' > ) ]

StartChar: acute.dup
Encoding: 65537 -1 1
Width: 591
Flags: MW
HStem: 502 21G<380 391> 679 20G<538 561.5>
LayerCount: 2
Fore
SplineSet
596 651 m 0
 596 620 571 605 557 597 c 2
 404 508 l 2
 399 505 394 502 388 502 c 0
 372 502 360 529 360 535 c 0
 360 542 366 549 372 554 c 2
 494 668 l 2
 514 687 527 699 549 699 c 0
 574 699 596 679 596 651 c 0
EndSplineSet
EndChar

StartChar: AE.dup
Encoding: 65538 -1 2
Width: 1023
Flags: MW
HStem: 0 47<96.5 101 96.5 108 302.5 310.5 435 443 443 454 641 721 721 798> 306 47<432 553 403 565 694 741> 639 47<498.5 1040 509 546 778 790 790 835>
VStem: 73 260<14.5 32.5>
LayerCount: 2
Fore
SplineSet
1027 256 m 0
 1027 250 1024 244 1022 239 c 2
 927 17 l 2
 920 0 915 0 894 0 c 2
 432 0 l 2
 418 0 400 0 400 18 c 0
 400 47 418 47 435 47 c 2
 443 47 l 2
 465 47 467 47 475 48 c 0
 489 50 490 50 493 64 c 2
 553 306 l 1
 403 306 l 1
 248 57 l 1
 269 49 298 47 307 47 c 0
 316 47 333 47 333 29 c 0
 333 0 315 0 306 0 c 0
 268 0 228 3 190 3 c 0
 158 3 124 0 92 0 c 0
 79 0 73 10 73 18 c 0
 73 47 92 47 101 47 c 0
 177 48 187 65 200 85 c 2
 546 639 l 1
 506 639 l 2
 491 639 474 639 474 657 c 0
 474 686 492 686 509 686 c 2
 1040 686 l 2
 1062 686 1075 686 1071 654 c 2
 1050 472 l 2
 1047 449 1044 445 1021 445 c 0
 1008 445 993 445 993 466 c 0
 993 471 995 485 996 490 c 0
 998 509 999 514 999 538 c 0
 999 637 943 639 835 639 c 2
 790 639 l 2
 766 639 765 638 761 623 c 2
 694 353 l 1
 744 353 l 2
 820 353 841 375 860 447 c 0
 866 467 868 470 890 470 c 0
 900 470 918 470 918 452 c 0
 918 447 916 441 915 436 c 2
 859 212 l 2
 853 189 846 189 829 189 c 0
 819 189 801 189 801 207 c 0
 801 210 801 211 803 220 c 0
 805 227 811 251 811 266 c 0
 811 296 796 306 741 306 c 2
 682 306 l 1
 618 48 l 1
 625 47 632 47 641 47 c 2
 721 47 l 2
 875 47 915 130 965 247 c 0
 977 273 977 274 999 274 c 0
 1009 274 1027 274 1027 256 c 0
565 353 m 1
 635 636 l 1
 628 637 617 637 609 637 c 1
 432 353 l 1
 565 353 l 1
EndSplineSet
EndChar

StartChar: ae.dup
Encoding: 65539 -1 3
Width: 827
Flags: MW
HStem: -8 36<261 270.5 571.5 607> 218 36<525 546 546 561 516 546> 416 36<683.5 719.5>
VStem: 89 113<71 78 52.5 115> 762 65<305.5 371>
LayerCount: 2
Fore
SplineSet
803 87 m 0
 803 73 734 -8 594 -8 c 0
 549 -8 504 3 469 32 c 1
 456 -5 423 -8 416 -8 c 0
 399 -8 379 -1 376 28 c 1
 323 -8 278 -8 263 -8 c 0
 156 -8 89 36 89 106 c 0
 89 124 99 213 209 293 c 0
 291 353 408 391 469 409 c 1
 480 446 511 452 523 452 c 0
 553 452 562 430 564 419 c 1
 599 438 648 452 698 452 c 0
 768 452 827 418 827 356 c 0
 827 218 624 218 561 218 c 2
 516 218 l 1
 503 164 503 139 503 130 c 0
 503 52 547 28 595 28 c 0
 619 28 691 35 757 109 c 0
 762 116 765 119 772 119 c 0
 782 119 803 96 803 87 c 0
762 357 m 0
 762 385 743 416 696 416 c 0
 671 416 623 407 583 367 c 0
 556 338 536 296 525 254 c 1
 546 254 l 2
 601 254 762 254 762 357 c 0
397 122 m 2
 458 366 l 1
 388 339 323 295 283 250 c 0
 202 163 202 80 202 76 c 0
 202 29 253 28 269 28 c 0
 333 28 389 90 397 122 c 2
EndSplineSet
EndChar

StartChar: cedilla.dup
Encoding: 65540 -1 4
Width: 532
Flags: MW
HStem: -200 56<118.5 156.5 118.5 171> -107 56 -51 56<309 323 211 335.5>
LayerCount: 2
Fore
SplineSet
395 -125 m 0x20
 376 -200 230 -200 112 -200 c 0
 97 -200 88 -187 91 -172 c 0
 95 -157 111 -144 126 -144 c 0
 187 -144 270 -144 275 -125 c 0
 279 -107 225 -107 183 -107 c 1xc0
 211 5 l 1
 323 5 l 1
 309 -51 l 1
 362 -51 407 -78 395 -125 c 0x20
EndSplineSet
EndChar

StartChar: circumflex.dup
Encoding: 65541 -1 5
Width: 591
Flags: MW
HStem: 497 21G<265 265 580 580> 684 20G<457 457>
LayerCount: 2
Fore
SplineSet
603 519 m 1
 580 497 l 1
 439 596 l 1
 265 497 l 1
 250 519 l 1
 457 704 l 1
 603 519 l 1
EndSplineSet
EndChar

StartChar: dieresis.dup
Encoding: 65542 -1 6
Width: 591
Flags: MW
HStem: 535 132<315.5 333 560.5 578>
LayerCount: 2
Fore
SplineSet
391 613 m 0
 391 574 354 535 312 535 c 0
 277 535 256 560 255 589 c 0
 255 628 295 667 336 667 c 0
 373 667 391 638 391 613 c 0
636 613 m 0
 636 574 599 535 557 535 c 0
 522 535 501 560 500 589 c 0
 500 628 540 667 581 667 c 0
 618 667 636 638 636 613 c 0
EndSplineSet
EndChar

StartChar: Gcedilla
Encoding: 65543 -1 7
Width: 895
Flags: MW
HStem: -307 21G<345 357.5> -161 110<406.5 415> -17 47<455.5 488.5> 229 47<554 561 561 587.5 554 595 833.5 846> 656 47<610.5 641.5 483.5 694.5>
VStem: 163 135<171 225.5 171 352>
LayerCount: 2
Fore
SplineSet
874 258 m 0
 874 229 858 229 834 229 c 0
 823 229 812 229 801 227 c 0
 794 226 792 226 789 212 c 2
 742 21 l 2
 739 9 737 0 725 0 c 0
 718 0 676 24 650 47 c 1
 595 -2 519 -17 458 -17 c 0
 305 -17 163 57 163 244 c 0
 163 460 338 703 629 703 c 0
 654 703 732 703 795 635 c 1
 881 703 l 1
 896 703 908 703 908 689 c 2
 908 689 908 685 904 670 c 2
 848 446 l 2
 843 426 841 426 816 426 c 0
 796 426 785 426 785 441 c 0
 785 449 788 453 788 485 c 0
 788 573 746 656 643 656 c 0
 578 656 477 631 406 541 c 0
 324 435 298 248 298 203 c 0
 298 139 318 102 347 75 c 0
 374 51 425 30 486 30 c 0
 548 30 612 63 629 119 c 0
 632 129 655 219 655 223 c 0
 655 229 607 229 595 229 c 2
 561 229 l 2
 547 229 529 229 529 247 c 0
 529 276 548 276 560 276 c 0
 615 276 672 273 727 273 c 0
 769 273 813 276 854 276 c 0
 870 276 874 264 874 258 c 0
476 -111 m 0
 476 -209 366 -307 349 -307 c 0
 341 -307 335 -298 335 -292 c 0
 335 -287 336 -286 348 -277 c 0
 376 -257 421 -216 441 -151 c 1
 439 -152 425 -161 405 -161 c 0
 370 -161 359 -136 359 -118 c 0
 359 -88 386 -51 427 -51 c 0
 459 -51 476 -76 476 -111 c 0
EndSplineSet
EndChar

StartChar: gcedilla
Encoding: 65544 -1 8
Width: 532
Flags: MW
HStem: -202 36<200.5 241 200.5 272.5> 0 36<246.5 285> 416 36<361 389> 490 110<424 432.5> 726 20G<481.5 494>
VStem: 59 121<-110.5 -109.5>
LayerCount: 2
Fore
SplineSet
480 557 m 0
 480 527 453 490 412 490 c 0
 380 490 363 515 363 550 c 0
 363 648 473 746 490 746 c 0
 498 746 504 737 504 731 c 0
 504 726 503 725 491 716 c 0
 463 696 418 655 398 590 c 1
 400 591 414 600 434 600 c 0
 469 600 480 575 480 557 c 0
451 -64 m 2
 429 -151 333 -202 212 -202 c 0
 138 -202 59 -194 59 -132 c 0
 59 -87 95 -58 130 -58 c 0
 161 -58 180 -79 180 -104 c 0
 180 -117 173 -143 152 -160 c 1
 164 -163 187 -166 214 -166 c 0
 268 -166 325 -137 349 -44 c 2
 366 27 l 1
 332 8 301 0 269 0 c 0
 179 0 107 52 107 158 c 0
 107 287 204 452 374 452 c 0
 410 452 442 442 471 415 c 1
 480 424 491 435 518 435 c 0
 546 435 563 416 563 393 c 2
 563 393 563 385 559 369 c 2
 451 -64 l 2
389 117 m 2
 448 356 l 1
 436 400 404 416 374 416 c 0
 348 416 297 401 264 318 c 0
 250 283 215 162 215 107 c 0
 215 85 220 36 273 36 c 0
 321 36 380 82 389 117 c 2
EndSplineSet
EndChar

StartChar: germandbls.dup
Encoding: 65545 -1 9
Width: 665
Flags: MW
HStem: -202 36<79 89.5> -8 36<433.5 471 433.5 492.5> 397 47<142.5 245 153 236> 666 36<464 540>
VStem: -13 121<-108 -100.5> 324 97<52 112.5> 523 120<153.5 169>
LayerCount: 2
Fore
SplineSet
643 165 m 0
 643 76 545 -8 440 -8 c 0
 372 -8 324 27 324 77 c 0
 324 114 349 141 381 141 c 0
 409 141 421 121 421 104 c 1
 421 104 421 78 400 61 c 2
 388 52 l 1
 402 33 427 28 440 28 c 0
 502 28 523 151 523 156 c 0
 523 182 507 200 494 214 c 0
 467 243 463 277 463 301 c 0
 463 362 484 388 525 432 c 0
 540 449 550 459 566 510 c 0
 567 515 586 575 586 595 c 0
 586 612 579 666 501 666 c 0
 401 666 386 629 370 542 c 2
 281 64 l 2
 274 29 265 -6 253 -40 c 0
 203 -191 101 -202 78 -202 c 0
 26 -202 -13 -170 -13 -124 c 0
 -13 -77 24 -48 58 -48 c 0
 88 -48 108 -67 108 -94 c 0
 108 -122 89 -150 61 -161 c 1
 70 -166 79 -166 79 -166 c 1
 132 -166 152 -61 168 27 c 2
 236 397 l 1
 150 397 l 2
 135 397 118 397 118 415 c 0
 118 444 136 444 153 444 c 2
 245 444 l 1
 259 521 l 2
 292 702 429 702 499 702 c 0
 639 702 691 652 691 592 c 0
 691 575 691 555 638 484 c 2
 566 387 l 2
 558 376 543 352 543 341 c 0
 543 322 580 285 590 274 c 0
 626 237 643 203 643 165 c 0
EndSplineSet
EndChar

StartChar: hyphen.dup
Encoding: 65546 -1 10
Width: 414
Flags: MW
HStem: 175 94<117.5 355 138 338>
VStem: 92 295<184.5 260>
LayerCount: 2
Fore
SplineSet
375 202 m 0
 369 178 368 175 338 175 c 2
 125 175 l 2
 110 175 92 175 92 194 c 0
 92 197 102 237 103 244 c 0
 109 267 110 269 138 269 c 2
 355 269 l 2
 369 269 387 269 387 251 c 0
 387 248 379 218 375 202 c 0
EndSplineSet
EndChar

StartChar: Kcedilla
Encoding: 65547 -1 11
Width: 895
Flags: MW
HStem: -307 21G<345 357.5> -161 110<406.5 415> 0 47<99 110.5 366 388 388 395 540 550.5 780.5 803.5> 639 47<248.5 256 256 278 545 553.5 733 735 946 949.5>
VStem: 709 263<654 671.5>
LayerCount: 2
Fore
SplineSet
827 29 m 0
 827 0 809 0 800 0 c 0
 761 0 720 3 680 3 c 0
 632 3 583 0 536 0 c 0
 524 0 514 6 514 18 c 0
 514 47 531 47 549 47 c 0
 552 47 582 47 602 54 c 1
 477 337 l 1
 368 254 l 1
 317 49 l 1
 323 49 356 47 366 47 c 2
 388 47 l 2
 402 47 419 47 419 29 c 0
 419 0 400 0 391 0 c 0
 341 0 288 3 237 3 c 0
 187 3 135 0 86 0 c 0
 75 0 64 5 64 18 c 0
 64 47 82 47 99 47 c 2
 121 47 l 2
 158 47 180 51 180 51 c 1
 327 637 l 1
 315 638 289 639 278 639 c 2
 256 639 l 2
 241 639 224 639 224 657 c 0
 224 686 243 686 253 686 c 0
 303 686 356 683 407 683 c 0
 457 683 508 686 557 686 c 0
 568 686 579 681 579 668 c 0
 579 639 562 639 545 639 c 2
 483 638 l 2
 464 636 463 635 459 620 c 2
 387 331 l 1
 784 631 l 1
 764 638 735 639 735 639 c 2
 726 639 709 640 709 657 c 0
 709 686 728 686 738 686 c 0
 780 686 825 683 868 683 c 0
 896 683 927 686 954 686 c 0
 964 686 972 678 972 668 c 0
 972 640 953 639 946 639 c 0
 888 637 862 626 828 601 c 2
 586 419 l 1
 742 66 l 2
 749 51 750 47 797 47 c 0
 810 47 827 47 827 29 c 0
476 -111 m 0
 476 -209 366 -307 349 -307 c 0
 341 -307 335 -298 335 -292 c 0
 335 -287 336 -286 348 -277 c 0
 376 -257 421 -216 441 -151 c 1
 439 -152 425 -161 405 -161 c 0
 370 -161 359 -136 359 -118 c 0
 359 -88 386 -51 427 -51 c 0
 459 -51 476 -76 476 -111 c 0
EndSplineSet
EndChar

StartChar: kcedilla
Encoding: 65548 -1 12
Width: 532
Flags: MW
HStem: -307 21G<164 176.5> -161 110<225.5 234> -8 36<430.5 453 430.5 480.5> 416 36<469 489.5> 639 51
VStem: 318 107<139 166.5> 439 123<340 348.5>
LayerCount: 2
Fore
SplineSet
566 148 m 0
 566 140 531 -8 430 -8 c 0
 365 -8 312 34 312 94 c 0
 312 105 313 110 315 119 c 0
 318 130 318 135 318 140 c 0
 318 193 256 209 226 214 c 1
 181 33 l 2
 170 5 143 -8 122 -8 c 0
 95 -8 76 10 76 35 c 0
 76 40 76 42 80 57 c 2
 224 637 l 1
 212 638 194 639 182 639 c 0
 173 639 155 639 155 657 c 0
 155 686 175 686 186 687 c 2
 309 693 l 2
 323 694 341 695 341 676 c 0
 341 671 339 665 338 660 c 2
 241 274 l 1
 265 289 282 303 322 345 c 0
 386 413 435 452 491 452 c 0
 548 452 562 403 562 373 c 0
 562 307 518 286 489 286 c 0
 458 286 439 307 439 332 c 0
 439 365 465 399 506 404 c 1
 503 416 491 416 488 416 c 0
 450 416 407 391 339 315 c 0
 337 314 303 277 267 251 c 1
 339 243 425 220 425 144 c 0
 425 134 423 124 421 114 c 0
 413 82 413 62 413 62 c 1
 413 30 426 28 435 28 c 0
 471 28 491 76 506 135 c 0
 513 161 514 162 538 162 c 0
 553 162 566 162 566 148 c 0
295 -111 m 0
 295 -209 185 -307 168 -307 c 0
 160 -307 154 -298 154 -292 c 0
 154 -287 155 -286 167 -277 c 0
 195 -257 240 -216 260 -151 c 1
 258 -152 244 -161 224 -161 c 0
 189 -161 178 -136 178 -118 c 0
 178 -88 205 -51 246 -51 c 0
 278 -51 295 -76 295 -111 c 0
EndSplineSet
EndChar

StartChar: Lcedilla
Encoding: 65549 -1 13
Width: 698
Flags: MW
HStem: -307 21G<246 258.5> -161 110<307.5 316> 0 47<88.5 121 99 121 121 127 340 398 398 475> 639 47<248.5 256 256 278 554.5 572>
LayerCount: 2
Fore
SplineSet
687 256 m 0
 687 252 685 246 682 239 c 2
 602 21 l 2
 594 0 591 0 568 0 c 2
 96 0 l 2
 81 0 64 0 64 18 c 0
 64 47 82 47 99 47 c 2
 121 47 l 2
 133 47 149 48 161 49 c 0
 179 50 180 51 184 65 c 2
 327 637 l 1
 315 638 289 639 278 639 c 2
 256 639 l 2
 241 639 224 639 224 657 c 0
 224 686 243 686 253 686 c 0
 305 686 359 683 411 683 c 0
 468 683 526 686 583 686 c 0
 591 686 606 684 606 668 c 0
 606 639 590 639 572 639 c 2
 536 639 l 2
 524 639 500 638 490 637 c 0
 464 635 463 634 459 620 c 2
 317 48 l 1
 324 47 331 47 340 47 c 2
 398 47 l 2
 552 47 603 183 631 258 c 0
 636 274 644 274 659 274 c 0
 668 274 687 274 687 256 c 0
377 -111 m 0
 377 -209 267 -307 250 -307 c 0
 242 -307 236 -298 236 -292 c 0
 236 -287 237 -286 249 -277 c 0
 277 -257 322 -216 342 -151 c 1
 340 -152 326 -161 306 -161 c 0
 271 -161 260 -136 260 -118 c 0
 260 -88 287 -51 328 -51 c 0
 360 -51 377 -76 377 -111 c 0
EndSplineSet
EndChar

StartChar: lcedilla
Encoding: 65550 -1 14
Width: 297
Flags: MW
HStem: -307 21G<46 58.5> -161 110<107.5 116> -8 36<205 228 205 230.5> 639 51
VStem: 91 101<57 68.5 47.5 92>
LayerCount: 2
Fore
SplineSet
331 148 m 0
 331 144 318 88 292 46 c 0
 279 26 254 -8 207 -8 c 0
 151 -8 91 25 91 89 c 0
 91 95 91 102 95 118 c 2
 224 637 l 1
 212 638 194 639 182 639 c 0
 173 639 155 639 155 657 c 0
 155 686 175 686 186 687 c 2
 309 693 l 2
 323 694 341 695 341 676 c 0
 341 671 339 665 338 660 c 2
 198 102 l 2
 194 86 192 78 192 59 c 0
 192 36 199 28 211 28 c 0
 245 28 263 103 271 136 c 0
 278 161 279 162 303 162 c 0
 318 162 331 162 331 148 c 0
177 -111 m 0
 177 -209 67 -307 50 -307 c 0
 42 -307 36 -298 36 -292 c 0
 36 -287 37 -286 49 -277 c 0
 77 -257 122 -216 142 -151 c 1
 140 -152 126 -161 106 -161 c 0
 71 -161 60 -136 60 -118 c 0
 60 -88 87 -51 128 -51 c 0
 160 -51 177 -76 177 -111 c 0
EndSplineSet
EndChar

StartChar: macron.dup
Encoding: 65551 -1 15
Width: 591
Flags: MW
HStem: 576 50<278.5 606 289 603>
LayerCount: 2
Fore
SplineSet
638 608 m 0
 638 576 621 576 603 576 c 2
 286 576 l 2
 271 576 254 576 254 594 c 0
 254 626 271 626 289 626 c 2
 606 626 l 2
 621 626 638 626 638 608 c 0
EndSplineSet
EndChar

StartChar: Ncedilla
Encoding: 65552 -1 16
Width: 896
Flags: MW
HStem: -307 21G<345 357.5> -161 110<406.5 415> 0 47<90 102.5 309.5 321> 639 47<248.5 444 259 283 746 757.5 968 979>
VStem: 64 281<16 32.5> 722 281<653.5 671.5>
LayerCount: 2
Fore
SplineSet
1003 668 m 0
 1003 639 986 639 972 639 c 0
 964 639 938 639 915 634 c 0
 886 628 885 625 881 610 c 2
 735 24 l 2
 729 0 724 0 701 0 c 0
 679 0 678 1 670 16 c 2
 376 584 l 1
 245 57 l 1
 269 47 305 47 314 47 c 0
 328 47 345 47 345 29 c 0
 345 0 326 0 318 0 c 0
 280 0 238 3 199 3 c 0
 161 3 121 0 84 0 c 0
 67 0 64 14 64 18 c 0
 64 47 82 47 98 47 c 0
 123 47 144 50 155 52 c 0
 182 58 183 62 187 77 c 2
 323 623 l 2
 324 626 326 634 326 634 c 2
 326 637 326 639 283 639 c 2
 256 639 l 2
 241 639 224 639 224 657 c 0
 224 686 242 686 259 686 c 2
 444 686 l 2
 467 686 468 685 477 669 c 2
 717 206 l 1
 823 629 l 1
 798 639 762 639 753 639 c 0
 739 639 722 639 722 657 c 0
 722 686 742 686 750 686 c 0
 788 686 829 683 868 683 c 0
 906 683 946 686 983 686 c 0
 994 686 1003 679 1003 668 c 0
476 -111 m 0
 476 -209 366 -307 349 -307 c 0
 341 -307 335 -298 335 -292 c 0
 335 -287 336 -286 348 -277 c 0
 376 -257 421 -216 441 -151 c 1
 439 -152 425 -161 405 -161 c 0
 370 -161 359 -136 359 -118 c 0
 359 -88 386 -51 427 -51 c 0
 459 -51 476 -76 476 -111 c 0
EndSplineSet
EndChar

StartChar: ncedilla
Encoding: 65553 -1 17
Width: 650
Flags: MW
HStem: -307 21G<222 234.5> -161 110<283.5 292> -8 36<533.5 564.5 533.5 583> 416 36<180 203 455.5 480.5>
VStem: 426 96<53 56.5 37 88.5>
LayerCount: 2
Fore
SplineSet
684 148 m 0
 684 127 635 -8 531 -8 c 0
 477 -8 426 25 426 81 c 0
 426 96 429 106 438 131 c 0
 456 176 502 299 502 359 c 0
 502 378 502 416 459 416 c 0
 368 416 312 323 305 294 c 2
 243 46 l 2
 230 -6 187 -8 180 -8 c 0
 159 -8 135 4 135 35 c 0
 135 40 135 42 139 57 c 2
 210 342 l 2
 214 358 216 366 216 385 c 0
 216 408 209 416 197 416 c 0
 163 416 145 341 137 308 c 0
 130 283 129 282 105 282 c 0
 90 282 77 282 77 296 c 0
 77 300 90 356 116 398 c 0
 129 418 154 452 201 452 c 0
 233 452 293 440 313 383 c 1
 379 452 445 452 466 452 c 0
 545 452 604 422 604 339 c 0
 604 282 559 164 545 127 c 0
 532 93 522 67 522 46 c 0
 522 28 531 28 536 28 c 0
 593 28 620 123 628 149 c 0
 632 162 637 162 656 162 c 0
 671 162 684 162 684 148 c 0
353 -111 m 0
 353 -209 243 -307 226 -307 c 0
 218 -307 212 -298 212 -292 c 0
 212 -287 213 -286 225 -277 c 0
 253 -257 298 -216 318 -151 c 1
 316 -152 302 -161 282 -161 c 0
 247 -161 236 -136 236 -118 c 0
 236 -88 263 -51 304 -51 c 0
 336 -51 353 -76 353 -111 c 0
EndSplineSet
EndChar

StartChar: OE.dup
Encoding: 65554 -1 18
Width: 1141
Flags: MW
HStem: -17 36<423 470> 0 47<736 831 831 910.5> 333 47<796 869 784 872> 639 47<874.5 888 888 938> 667 36<528.5 645 489.5 670.5>
VStem: 180 136<151 304 151 337>
LayerCount: 2
Fore
SplineSet
1145 256 m 0x70
 1145 250 1142 244 1140 239 c 2
 1045 17 l 2
 1038 0 1033 0 1012 0 c 2
 640 0 l 2x40
 618 0 592 -2 550 -8 c 0
 507 -14 484 -17 456 -17 c 0
 324 -17 180 43 180 234 c 0
 180 440 343 703 636 703 c 0x8c
 654 703 675 702 728 694 c 0
 763 689 789 686 811 686 c 2
 1158 686 l 2
 1180 686 1193 686 1189 654 c 2
 1168 472 l 2
 1165 449 1162 445 1139 445 c 0
 1126 445 1111 445 1111 466 c 0
 1111 475 1116 500 1116 534 c 0
 1116 639 1058 639 938 639 c 2
 888 639 l 2
 861 639 860 638 856 623 c 2
 796 380 l 1
 872 380 l 2
 951 380 979 398 999 472 c 0
 1005 494 1006 497 1030 497 c 0
 1040 497 1058 497 1058 479 c 0
 1058 476 1057 473 1055 466 c 2
 999 240 l 2
 993 216 986 216 969 216 c 0
 959 216 941 216 941 234 c 2
 941 234 942 240 943 244 c 0
 945 256 949 274 949 288 c 0
 949 317 941 333 869 333 c 2
 784 333 l 1
 713 48 l 1
 720 47 727 47 736 47 c 2
 831 47 l 2
 990 47 1031 126 1083 247 c 0
 1095 273 1095 274 1117 274 c 0
 1127 274 1145 274 1145 256 c 0x70
624 176 m 2
 707 510 l 2
 712 529 720 573 720 599 c 0
 720 637 710 667 631 667 c 0
 426 667 316 393 316 215 c 0
 316 87 376 19 470 19 c 0x8c
 537 19 588 33 624 176 c 2
EndSplineSet
EndChar

StartChar: oe.dup
Encoding: 65555 -1 19
Width: 827
Flags: MW
HStem: -12 36<251 281 251 296> -8 36<551.5 607 551.5 664> 218 36<531 566 522 567> 416 36<674.5 719.5> 420 36<355.5 391>
VStem: 106 106<87 122.5 75 218.5> 762 65<305.5 371>
LayerCount: 2
Fore
SplineSet
803 87 m 0x72
 803 74 735 -8 593 -8 c 0x72
 508 -8 459 29 439 62 c 1
 384 10 325 -12 267 -12 c 0
 195 -12 106 24 106 150 c 0
 106 287 206 456 377 456 c 0x8c
 426 456 479 439 512 387 c 1
 569 435 640 452 698 452 c 0
 768 452 827 418 827 356 c 0
 827 218 627 218 566 218 c 2
 522 218 l 1
 509 165 508 148 508 126 c 0
 508 109 508 28 595 28 c 0
 619 28 691 35 757 109 c 0
 762 116 765 119 772 119 c 0
 782 119 803 96 803 87 c 0x72
762 357 m 0
 762 385 743 416 696 416 c 0
 653 416 612 393 590 371 c 0
 573 353 550 324 531 254 c 1
 603 254 762 254 762 357 c 0
387 128 m 0
 406 173 437 292 437 340 c 0
 437 399 407 420 375 420 c 0
 336 420 289 392 257 302 c 0
 250 279 212 149 212 96 c 0
 212 54 232 24 270 24 c 0x8c
 292 24 350 38 387 128 c 0
EndSplineSet
EndChar

StartChar: Oslash.dup
Encoding: 65556 -1 20
Width: 886
Flags: MW
HStem: -68 21G<177.5 186> -17 36<417 476.5 417 585.5> 667 36<581.5 645.5> 734 20G<872.5 878>
VStem: 161 123<177 203.5 177 334> 772 123<465.5 507>
LayerCount: 2
Fore
SplineSet
895 449 m 0
 895 235 732 -17 439 -17 c 0
 363 -17 311 1 272 22 c 1
 231 -22 218 -39 205 -53 c 0
 190 -67 189 -68 183 -68 c 0
 172 -68 162 -57 162 -48 c 0
 162 -41 167 -36 180 -21 c 2
 239 46 l 1
 216 67 161 115 161 234 c 0
 161 434 319 703 619 703 c 0
 695 703 752 682 786 663 c 1
 853 740 l 2
 865 754 871 754 874 754 c 0
 882 754 895 746 895 734 c 0
 895 728 895 726 877 707 c 0
 858 684 838 662 818 640 c 1
 830 630 895 575 895 449 c 0
740 612 m 1
 722 635 682 667 609 667 c 0
 554 667 466 645 400 560 c 0
 319 453 284 225 284 182 c 0
 284 172 284 142 296 111 c 1
 740 612 l 1
772 501 m 0
 772 513 772 545 761 575 c 1
 317 73 l 1
 340 43 386 19 448 19 c 0
 505 19 603 38 676 151 c 0
 727 230 772 430 772 501 c 0
EndSplineSet
EndChar

StartChar: oslash.dup
Encoding: 65557 -1 21
Width: 591
Flags: MW
HStem: -12 36<293.5 324.5 293.5 390.5> 420 36<377.5 408.5>
VStem: 113 97<137 137.5 111 224> 492 97<306.5 315.5 220 333>
LayerCount: 2
Fore
SplineSet
589 287 m 0
 589 153 485 -12 296 -12 c 0
 255 -12 222 -3 201 7 c 1
 134 -77 134 -79 121 -94 c 0
 103 -114 102 -115 95 -115 c 0
 86 -115 77 -107 77 -97 c 0
 77 -91 77 -89 95 -67 c 2
 170 25 l 1
 121 67 113 117 113 157 c 0
 113 291 217 456 406 456 c 0
 447 456 480 447 501 437 c 1
 587 545 l 2
 596 556 599 560 607 560 c 0
 614 560 625 555 625 542 c 0
 625 536 625 535 614 521 c 2
 532 418 l 1
 571 387 589 344 589 287 c 0
467 396 m 1
 444 420 413 420 404 420 c 0
 351 420 292 385 260 319 c 0
 233 263 210 156 210 119 c 0
 210 103 213 89 215 82 c 1
 467 396 l 1
442 125 m 0
 469 181 492 288 492 325 c 0
 492 341 489 355 487 362 c 1
 235 49 l 1
 257 24 289 24 298 24 c 0
 351 24 410 59 442 125 c 0
EndSplineSet
EndChar

StartChar: quoteleft.dup
Encoding: 65558 -1 22
Width: 356
Flags: MW
HStem: 353 147<290.5 298.5>
VStem: 203 158<422.5 454 422.5 499.5>
LayerCount: 2
Fore
SplineSet
361 442 m 0
 361 403 326 353 271 353 c 0
 218 353 203 400 203 435 c 0
 203 564 350 694 375 694 c 0
 385 694 393 683 393 674 c 0
 393 668 392 667 379 657 c 0
 333 625 277 572 248 484 c 1
 263 495 281 500 300 500 c 0
 347 500 361 466 361 442 c 0
EndSplineSet
EndChar

StartChar: quoteright.dup
Encoding: 65559 -1 23
Width: 356
Flags: MW
HStem: 547 147<320.5 332>
VStem: 258 157<588.5 625>
LayerCount: 2
Fore
SplineSet
415 611 m 0
 415 480 267 353 244 353 c 0
 232 353 226 367 226 373 c 0
 226 380 231 384 238 388 c 0
 294 427 347 486 371 564 c 1
 364 558 345 547 319 547 c 0
 280 547 258 572 258 605 c 0
 258 645 293 694 348 694 c 0
 379 694 415 676 415 611 c 0
EndSplineSet
EndChar

StartChar: Rcedilla
Encoding: 65560 -1 24
Width: 859
Flags: MW
HStem: 0 47<99 110 360.5 382 382 389> 325 36<389 486 380 488> 639 47<248.5 589 259 278 469 480 480 525>
VStem: 570 134<239 251 228 286>
CounterMasks: 1 e0
LayerCount: 2
Fore
SplineSet
850 99 m 0
 850 86 817 -17 716 -17 c 0
 683 -17 540 -14 540 95 c 0
 540 111 542 120 555 172 c 0
 562 197 570 231 570 247 c 0
 570 325 501 325 486 325 c 2
 380 325 l 1
 311 49 l 1
 317 49 350 47 360 47 c 2
 382 47 l 2
 396 47 413 47 413 29 c 0
 413 0 394 0 385 0 c 0
 336 0 284 3 234 3 c 0
 185 3 134 0 86 0 c 0
 75 0 64 5 64 18 c 0
 64 47 82 47 99 47 c 2
 121 47 l 2
 133 47 149 48 161 49 c 0
 179 50 180 51 184 65 c 2
 327 637 l 1
 315 638 289 639 278 639 c 2
 256 639 l 2
 241 639 224 639 224 657 c 0
 224 686 242 686 259 686 c 2
 589 686 l 2
 694 686 825 652 825 535 c 0
 825 444 740 368 623 339 c 1
 683 313 704 271 704 231 c 0
 704 225 704 221 697 181 c 0
 684 99 684 91 684 75 c 0
 684 49 686 19 722 19 c 0
 751 19 777 48 793 97 c 0
 799 117 803 117 822 117 c 0
 833 117 850 117 850 99 c 0
687 561 m 0
 687 639 603 639 525 639 c 2
 480 639 l 2
 458 639 458 638 454 623 c 2
 389 361 l 1
 488 361 l 2
 539 361 591 370 631 403 c 0
 672 439 687 540 687 561 c 0
458 -111 m 0
 458 -209 348 -307 331 -307 c 0
 323 -307 317 -298 317 -292 c 0
 317 -287 318 -286 330 -277 c 0
 358 -257 403 -216 423 -151 c 1
 421 -152 407 -161 387 -161 c 0
 352 -161 341 -136 341 -118 c 0
 341 -88 368 -51 409 -51 c 0
 441 -51 458 -76 458 -111 c 0
EndSplineSet
EndChar

StartChar: rcedilla
Encoding: 65561 -1 25
Width: 502
Flags: MW
HStem: -307 21G<75 87.5> -161 110<136.5 145> -8 21G<169.5 183.5> 416 36<180 203 416 437.5>
VStem: 440 122<319.5 389.5>
LayerCount: 2
Fore
SplineSet
562 363 m 0
 562 318 528 286 490 286 c 0
 459 286 440 307 440 332 c 0
 440 336 441 378 487 399 c 1
 467 415 443 416 432 416 c 0
 362 416 317 341 311 318 c 2
 243 46 l 2
 230 -6 187 -8 180 -8 c 0
 159 -8 135 4 135 35 c 0
 135 40 135 42 139 57 c 2
 210 342 l 2
 214 358 216 366 216 385 c 0
 216 408 209 416 197 416 c 0
 163 416 145 341 137 308 c 0
 130 283 129 282 105 282 c 0
 90 282 77 282 77 296 c 0
 77 300 90 356 116 398 c 0
 129 418 154 452 201 452 c 0
 250 452 290 429 307 398 c 1
 350 441 397 452 435 452 c 0
 508 452 562 416 562 363 c 0
206 -111 m 0
 206 -209 96 -307 79 -307 c 0
 71 -307 65 -298 65 -292 c 0
 65 -287 66 -286 78 -277 c 0
 106 -257 151 -216 171 -151 c 1
 169 -152 155 -161 135 -161 c 0
 100 -161 89 -136 89 -118 c 0
 89 -88 116 -51 157 -51 c 0
 189 -51 206 -76 206 -111 c 0
EndSplineSet
EndChar

StartChar: tilde.dup
Encoding: 65562 -1 26
Width: 591
Flags: MW
HStem: 541 58<477 523.5> 602 58<389 390>
LayerCount: 2
Fore
SplineSet
633 642 m 0
 633 628 588 593 572 580 c 0
 547 560 515 541 486 541 c 0
 468 541 449 546 418 580 c 0
 407 594 397 602 383 602 c 0
 356 602 317 570 295 551 c 0
 289 545 284 541 277 541 c 0
 264 541 259 553 259 559 c 0
 259 572 300 605 316 617 c 0
 334 631 372 660 406 660 c 0
 426 660 446 652 467 628 c 0
 486 606 496 599 509 599 c 0
 538 599 581 636 594 647 c 0
 603 656 607 660 615 660 c 0
 625 660 633 652 633 642 c 0
EndSplineSet
EndChar

StartChar: A
Encoding: 65 65 27
Width: 866
Flags: MW
HStem: 0 47<97 104 97 107.5 307 309 499 517 760 773 773 780.5> 192 47<357 555 357 560 328 555> 691 20G<599 625>
VStem: 73 260<18 32.5>
LayerCount: 2
Fore
SplineSet
805 29 m 0
 805 0 787 0 777 0 c 0
 732 0 685 3 640 3 c 0
 591 3 541 0 493 0 c 0
 471 0 471 18 471 18 c 1
 471 47 488 47 510 47 c 0
 530 47 556 48 575 52 c 1
 560 192 l 1
 328 192 l 1
 247 57 l 1
 271 48 307 47 307 47 c 2
 315 47 333 47 333 29 c 0
 333 0 313 0 305 0 c 0
 268 0 228 3 190 3 c 0
 158 3 123 0 92 0 c 0
 73 0 73 18 73 18 c 1
 73 47 90 47 104 47 c 0
 176 48 187 66 198 84 c 2
 563 686 l 2
 578 711 588 711 610 711 c 0
 640 711 643 708 646 682 c 2
 712 66 l 2
 714 51 715 50 727 48 c 0
 735 47 751 47 760 47 c 2
 773 47 l 2
 788 47 805 47 805 29 c 0
555 239 m 1
 525 517 l 1
 357 239 l 1
 555 239 l 1
EndSplineSet
Position2: "'cpsp' Capital Spacing lookup 0 subtable" dx=7 dy=0 dh=14 dv=0
EndChar

StartChar: a
Encoding: 97 97 28
Width: 591
Flags: MW
HStem: -8 36<248.5 275.5 248.5 286.5 489 512> 416 36<351 377 280 381.5>
VStem: 96 107<92.5 126 70.5 219>
LayerCount: 2
Fore
SplineSet
615 148 m 0
 615 144 602 88 576 46 c 0
 563 26 538 -8 491 -8 c 0
 452 -8 407 8 388 43 c 1
 364 24 317 -8 256 -8 c 0
 180 -8 96 33 96 152 c 0
 96 286 196 452 364 452 c 0
 390 452 429 447 461 414 c 1
 474 427 491 435 508 435 c 0
 536 435 553 416 553 393 c 0
 553 389 553 387 549 372 c 2
 482 102 l 2
 478 86 476 78 476 59 c 0
 476 36 483 28 495 28 c 0
 529 28 547 103 555 136 c 0
 562 161 563 162 587 162 c 0
 602 162 615 162 615 148 c 0
376 100 m 1
 377 108 377 111 379 118 c 2
 438 354 l 1
 427 394 399 416 364 416 c 0
 338 416 283 401 249 304 c 0
 238 276 203 153 203 99 c 0
 203 42 237 28 260 28 c 0
 291 28 333 43 376 100 c 1
EndSplineSet
EndChar

StartChar: ampersand
Encoding: 38 38 29
Width: 886
Flags: MW
HStem: -17 36<387 491.5 387 635.5> 306 36<368 393.5 368 412> 433 36<403 418> 675 36<419.5 472>
VStem: 141 115<125.5 179.5 107.5 208.5> 467 122<564.5 571.5> 775 122<640.5 641.5>
LayerCount: 2
Fore
SplineSet
834 298 m 0
 834 272 827 -17 444 -17 c 0
 231 -17 141 70 141 181 c 0
 141 236 172 330 234 392 c 1
 226 413 224 440 224 450 c 0
 224 561 309 711 459 711 c 0
 536 711 589 663 589 597 c 0
 589 532 545 511 516 511 c 0
 498 511 467 519 467 557 c 0
 467 586 486 619 529 627 c 1
 516 663 485 675 459 675 c 0
 380 675 346 563 326 453 c 1
 367 469 399 469 407 469 c 0
 459 469 483 443 483 405 c 0
 483 363 450 306 374 306 c 0
 341 306 309 316 294 323 c 1
 276 276 256 204 256 155 c 0
 256 60 326 19 448 19 c 0
 535 19 611 36 665 74 c 0
 753 138 777 245 777 292 c 0
 777 315 776 357 726 429 c 1
 714 422 676 404 655 390 c 0
 623 367 612 347 610 320 c 1
 610 320 631 355 672 355 c 0
 706 355 722 332 722 308 c 0
 722 276 696 236 648 236 c 0
 595 236 554 271 554 320 c 0
 554 393 626 433 697 474 c 0
 734 494 777 519 813 576 c 1
 790 582 775 597 775 622 c 0
 775 661 809 694 847 694 c 0
 872 694 897 679 897 647 c 0
 897 634 884 543 776 460 c 1
 803 420 834 371 834 298 c 0
429 413 m 0
 429 420 429 433 407 433 c 0
 385 433 354 420 324 381 c 1
 334 351 359 342 377 342 c 0
 410 342 429 377 429 413 c 0
EndSplineSet
Substitution2: "'lnum' Lining Figures lookup 5 subtable" ampersand
Substitution2: "'onum' Oldstyle Figures lookup 4 subtable" ampersand
Substitution2: "'aalt' Access All Alternates lookup 0 subtable" ampersand
EndChar

StartChar: asciicircum
Encoding: 94 94 30
Width: 556
Flags: MW
HStem: 562 21G<147 147 690 690>
LayerCount: 2
Fore
SplineSet
707 584 m 1
 690 562 l 1
 448 685 l 1
 147 562 l 1
 141 584 l 1
 464 744 l 1
 707 584 l 1
EndSplineSet
EndChar

StartChar: asciitilde
Encoding: 126 126 31
Width: 556
Flags: MW
HStem: 193 43<427 431.5> 264 43<248.5 253>
LayerCount: 2
Fore
SplineSet
627 290 m 1
 562 246 l 2
 542 232 519 221 497 211 c 0
 472 201 444 193 419 193 c 0
 379 193 352 210 328 227 c 0
 298 247 273 264 233 264 c 0
 182 264 121 234 62 193 c 1
 52 210 l 1
 117 254 l 2
 138 268 161 279 183 289 c 0
 208 299 236 307 261 307 c 0
 301 307 327 290 352 273 c 0
 382 253 407 236 447 236 c 0
 498 236 558 266 618 307 c 1
 627 290 l 1
EndSplineSet
EndChar

StartChar: asterisk
Encoding: 42 42 32
Width: 591
Flags: MW
HStem: 306 21G<361.5 374> 730 20G<481 493.5>
LayerCount: 2
Fore
SplineSet
604 450 m 0
 604 421 574 395 550 395 c 0
 543 395 537 395 524 408 c 2
 438 495 l 1
 425 358 l 2
 420 306 376 306 372 306 c 0
 351 306 338 320 338 335 c 0
 338 339 338 341 344 354 c 2
 400 494 l 1
 316 440 348 459 280 414 c 0
 252 395 250 395 239 395 c 0
 225 395 207 404 207 430 c 0
 207 463 235 473 247 477 c 2
 390 528 l 1
 271 579 l 2
 254 586 251 595 251 606 c 0
 251 635 281 661 305 661 c 0
 312 661 318 661 331 648 c 2
 417 561 l 1
 430 698 l 2
 435 750 479 750 483 750 c 0
 504 750 517 736 517 721 c 0
 517 717 517 715 511 702 c 2
 455 561 l 1
 588 650 l 2
 599 657 604 661 616 661 c 0
 630 661 648 652 648 626 c 0
 648 593 620 583 608 579 c 2
 465 528 l 1
 584 477 l 2
 601 470 604 461 604 450 c 0
EndSplineSet
EndChar

StartChar: at
Encoding: 64 64 33
Width: 886
Flags: MW
HStem: -8 36<376.5 499.5 376.5 545> 91 36<767 779> 127 36<449 504.5 714.5 762.5> 531 36<527 592.5> 666 36<485.5 677>
VStem: 164 55<175 335 175 351.5> 309 102<249 308 249 346> 841 55<430.5 525.5>
LayerCount: 2
Fore
SplineSet
815 77 m 1xcd
 815 77 815 68 807 65 c 2
 807 65 641 -8 449 -8 c 0
 277 -8 164 78 164 247 c 0
 164 456 327 702 614 702 c 0
 779 702 896 617 896 448 c 0
 896 369 850 127 708 127 c 0
 696 127 634 127 608 170 c 1
 574 147 532 127 477 127 c 0
 386 127 309 176 309 285 c 0
 309 407 405 567 580 567 c 0
 632 567 692 547 715 482 c 1
 744 482 l 2
 760 482 772 482 772 468 c 0
 772 459 743 349 738 331 c 0
 736 322 704 202 704 184 c 0
 704 166 711 163 718 163 c 0xbf
 807 163 841 410 841 451 c 0
 841 600 741 666 613 666 c 0
 358 666 219 427 219 243 c 0
 219 107 302 28 451 28 c 0
 548 28 643 50 733 85 c 0
 749 91 751 91 767 91 c 2
 787 91 l 2
 803 91 815 91 815 77 c 1xcd
610 246 m 2
 665 469 l 1
 649 520 605 531 580 531 c 0
 474 531 411 355 411 261 c 0
 411 237 416 163 482 163 c 0
 537 163 601 210 610 246 c 2
EndSplineSet
EndChar

StartChar: B
Encoding: 66 66 34
Width: 817
Flags: MW
HStem: 0 47<88.5 121 99 121 121 127 329 470 470 496> 339 36<387 526 526 552 378 526> 639 47<248.5 639 259 278 469.5 485 485 616>
VStem: 699 132<519 597.5 510.5 598>
LayerCount: 2
Fore
SplineSet
778 225 m 0
 778 131 686 0 496 0 c 2
 96 0 l 2
 81 0 64 0 64 18 c 0
 64 47 82 47 99 47 c 2
 121 47 l 2
 133 47 149 48 161 49 c 0
 179 50 180 51 184 65 c 2
 327 637 l 1
 315 638 289 639 278 639 c 2
 256 639 l 2
 241 639 224 639 224 657 c 0
 224 686 242 686 259 686 c 2
 639 686 l 2
 744 686 831 645 831 550 c 0
 831 471 765 384 628 358 c 1
 708 351 778 310 778 225 c 0
699 557 m 0
 699 639 636 639 616 639 c 2
 485 639 l 2
 454 639 453 638 449 623 c 2
 387 375 l 1
 526 375 l 2
 645 375 699 481 699 557 c 0
643 245 m 0
 643 339 575 339 552 339 c 2
 378 339 l 1
 306 48 l 1
 313 47 320 47 329 47 c 2
 470 47 l 2
 596 47 643 166 643 245 c 0
EndSplineSet
Position2: "'cpsp' Capital Spacing lookup 0 subtable" dx=7 dy=0 dh=14 dv=0
EndChar

StartChar: b
Encoding: 98 98 35
Width: 532
Flags: MW
HStem: -8 36<239 279.5 239 353.5> 416 36<354.5 384.5> 639 51
VStem: 112 96<100 124 100 155> 430 107<318 351.5 226 373.5>
LayerCount: 2
Fore
SplineSet
537 292 m 0
 537 160 439 -8 268 -8 c 0
 196 -8 112 29 112 150 c 0
 112 160 112 186 121 222 c 2
 224 637 l 1
 212 638 194 639 182 639 c 0
 173 639 155 639 155 657 c 0
 155 686 175 686 186 687 c 2
 309 693 l 2
 323 694 341 695 341 676 c 0
 341 671 339 665 338 660 c 2
 279 424 l 1
 295 434 332 452 377 452 c 0
 453 452 537 411 537 292 c 0
384 140 m 0
 395 168 430 291 430 345 c 0
 430 402 396 416 373 416 c 0
 335 416 295 391 269 359 c 0
 259 348 259 346 252 320 c 0
 245 289 238 264 230 228 c 0
 214 167 208 141 208 107 c 0
 208 93 208 28 270 28 c 0
 289 28 348 37 384 140 c 0
EndSplineSet
EndChar

StartChar: backslash
Encoding: 92 92 36
Width: 575
Flags: MW
HStem: 730 20G<275 292.5>
LayerCount: 2
Fore
SplineSet
455 -219 m 0
 450 -239 432 -250 418 -250 c 0
 397 -250 394 -235 392 -220 c 2
 245 699 l 2
 243 712 242 713 244 719 c 0
 249 739 268 750 282 750 c 0
 303 750 304 737 307 720 c 2
 454 -199 l 2
 456 -212 457 -213 455 -219 c 0
EndSplineSet
EndChar

StartChar: bar
Encoding: 124 124 37
Width: 319
Flags: MW
HStem: 730 20G<332.5 363>
LayerCount: 2
Fore
SplineSet
139 -206 m 2
 135 -221 128 -250 97 -250 c 0
 67 -250 74 -220 78 -206 c 2
 306 706 l 2
 309 721 317 750 348 750 c 0
 378 750 370 720 367 706 c 2
 139 -206 l 2
EndSplineSet
EndChar

StartChar: braceleft
Encoding: 123 123 38
Width: 575
Flags: W
LayerCount: 2
Fore
SplineSet
438 -232 m 0
 434 -250 425 -250 403 -250 c 0
 336 -250 172 -239 204 -111 c 2
 257 99 l 2
 266 136 267 138 267 146 c 0
 267 182 242 227 153 232 c 0
 141 233 137 237 141 250 c 0
 145 267 153 267 167 268 c 0
 209 270 247 284 275 305 c 0
 316 334 321 355 336 417 c 2
 388 623 l 2
 408 700 511 750 653 750 c 0
 675 750 684 750 679 732 c 0
 675 715 667 715 653 714 c 0
 600 711 566 693 554 686 c 0
 507 657 500 628 495 606 c 2
 442 396 l 2
 431 351 414 282 287 250 c 1
 367 227 386 176 377 134 c 2
 317 -103 l 2
 313 -120 311 -128 312 -138 c 0
 315 -174 343 -209 426 -214 c 0
 437 -215 441 -219 438 -232 c 0
EndSplineSet
EndChar

StartChar: braceright
Encoding: 125 125 39
Width: 575
Flags: W
LayerCount: 2
Fore
SplineSet
559 250 m 0
 554 233 546 233 532 232 c 0
 478 229 440 207 426 196 c 0
 384 165 380 148 364 83 c 2
 312 -123 l 2
 293 -196 197 -250 47 -250 c 0
 26 -250 16 -250 20 -232 c 0
 24 -215 32 -215 47 -214 c 0
 101 -211 137 -191 149 -184 c 0
 193 -155 200 -129 206 -106 c 2
 258 104 l 2
 270 150 287 218 414 250 c 1
 333 274 314 324 324 366 c 2
 383 603 l 2
 387 620 389 628 389 638 c 0
 386 677 354 710 274 714 c 0
 262 715 258 719 261 732 c 0
 266 750 276 750 297 750 c 0
 379 750 527 734 496 611 c 2
 443 401 l 2
 434 362 433 360 434 352 c 0
 437 297 483 271 546 268 c 0
 558 267 562 263 559 250 c 0
EndSplineSet
EndChar

StartChar: bracketleft
Encoding: 91 91 40
Width: 356
Flags: MW
HStem: -250 61<113.5 218 161 212> 689 61<381 447 381 381>
VStem: 89 161<-241 -198>
LayerCount: 2
Fore
SplineSet
242 -241 m 0
 237 -250 229 -250 212 -250 c 2
 121 -250 l 2
 106 -250 89 -250 89 -232 c 0
 89 -227 91 -221 92 -216 c 2
 328 727 l 2
 334 750 339 750 362 750 c 2
 453 750 l 2
 468 750 485 750 485 732 c 0
 485 727 478 702 476 699 c 0
 471 689 464 689 447 689 c 2
 381 689 l 1
 161 -189 l 1
 218 -189 l 2
 233 -189 250 -189 250 -207 c 0
 250 -213 244 -236 242 -241 c 0
EndSplineSet
EndChar

StartChar: bracketright
Encoding: 93 93 41
Width: 356
Flags: MW
HStem: -250 61<20.5 100 34 100 34 119> 689 61<255.5 360 269 320>
VStem: 231 161<698 741>
LayerCount: 2
Fore
SplineSet
389 716 m 2
 153 -227 l 2
 147 -250 142 -250 119 -250 c 2
 28 -250 l 2
 13 -250 -4 -250 -4 -232 c 0
 -4 -227 3 -202 5 -199 c 0
 10 -189 17 -189 34 -189 c 2
 100 -189 l 1
 320 689 l 1
 263 689 l 2
 248 689 231 689 231 707 c 0
 231 713 237 736 239 741 c 0
 244 750 252 750 269 750 c 2
 360 750 l 2
 375 750 392 750 392 732 c 0
 392 727 390 721 389 716 c 2
EndSplineSet
EndChar

StartChar: C
Encoding: 67 67 42
Width: 827
Flags: MW
HStem: -17 47<467 494.5> 656 47<610.5 642.5 483 693.5>
VStem: 163 135<191.5 224.5 191.5 351>
LayerCount: 2
Fore
SplineSet
849 446 m 2
 844 426 842 426 817 426 c 0
 797 426 786 426 786 441 c 0
 786 448 789 454 789 484 c 0
 789 578 743 656 644 656 c 0
 577 656 480 631 411 547 c 0
 323 439 298 247 298 202 c 0
 298 181 298 119 344 77 c 0
 388 36 451 30 483 30 c 0
 562 30 692 82 740 239 c 0
 743 248 752 248 767 248 c 0
 782 248 795 248 795 234 c 0
 795 225 773 136 688 68 c 0
 611 6 531 -17 458 -17 c 0
 310 -17 163 53 163 245 c 0
 163 457 336 703 630 703 c 0
 655 703 733 703 796 635 c 1
 882 703 l 1
 897 703 909 703 909 689 c 2
 909 689 909 685 905 670 c 2
 849 446 l 2
EndSplineSet
Position2: "'cpsp' Capital Spacing lookup 0 subtable" dx=7 dy=0 dh=14 dv=0
EndChar

StartChar: c
Encoding: 99 99 43
Width: 532
Flags: MW
HStem: -8 36<274.5 309.5 274.5 314> 416 36<387 407.5>
VStem: 107 109<119 135.5 87.5 225> 408 122<320.5 384.5>
LayerCount: 2
Fore
SplineSet
536 86 m 0
 536 74 497 35 443 14 c 0
 389 -6 327 -8 301 -8 c 0
 154 -8 107 78 107 160 c 0
 107 290 213 452 403 452 c 0
 486 452 530 409 530 360 c 0
 530 317 500 282 458 282 c 0
 416 282 408 313 408 328 c 0
 408 331 409 377 459 395 c 1
 440 415 413 416 402 416 c 0
 372 416 310 401 271 329 c 0
 244 277 216 155 216 116 c 0
 216 59 247 28 302 28 c 0
 317 28 418 28 492 111 c 0
 499 118 503 118 506 118 c 0
 516 118 536 94 536 86 c 0
EndSplineSet
EndChar

StartChar: colon
Encoding: 58 58 44
Width: 356
Flags: MW
HStem: 0 147<190.5 204.5> 297 147<263.5 278.5>
VStem: 122 150<64.5 84> 196 150<360.5 379.5>
LayerCount: 2
Fore
SplineSet
346 384 m 0xd0
 346 337 300 297 257 297 c 0
 221 297 196 321 196 356 c 0
 196 403 241 444 286 444 c 0
 312 444 346 429 346 384 c 0xd0
272 88 m 0
 272 41 227 0 182 0 c 0
 153 0 122 18 122 59 c 0xa0
 122 109 170 147 211 147 c 0
 247 147 272 123 272 88 c 0
EndSplineSet
EndChar

StartChar: comma
Encoding: 44 44 45
Width: 356
Flags: MW
HStem: 0 147<183.5 195>
VStem: 121 155<46 77.5>
LayerCount: 2
Fore
SplineSet
276 67 m 0
 276 -64 130 -194 107 -194 c 0
 97 -194 89 -183 89 -174 c 0
 89 -168 90 -167 106 -154 c 0
 143 -128 203 -73 230 14 c 1
 227 12 208 0 182 0 c 0
 135 0 121 34 121 58 c 0
 121 97 156 147 211 147 c 0
 254 147 276 114 276 67 c 0
EndSplineSet
EndChar

StartChar: D
Encoding: 68 68 46
Width: 876
Flags: MW
HStem: 0 47<88.5 121 99 121 121 127 334 438 438 464> 639 47<248.5 635 259 278 474.5 490 490 585>
VStem: 757 128<456 534.5 345 549>
LayerCount: 2
Fore
SplineSet
885 446 m 0
 885 244 733 0 464 0 c 2
 96 0 l 2
 81 0 64 0 64 18 c 0
 64 47 82 47 99 47 c 2
 121 47 l 2
 133 47 149 48 161 49 c 0
 179 50 180 51 184 65 c 2
 327 637 l 1
 315 638 289 639 278 639 c 2
 256 639 l 2
 241 639 224 639 224 657 c 0
 224 686 242 686 259 686 c 2
 635 686 l 2
 759 686 885 623 885 446 c 0
757 483 m 0
 757 615 656 639 585 639 c 2
 490 639 l 2
 459 639 458 638 454 623 c 2
 311 48 l 1
 318 47 325 47 334 47 c 2
 438 47 l 2
 538 47 621 91 673 174 c 0
 719 249 757 429 757 483 c 0
EndSplineSet
Position2: "'cpsp' Capital Spacing lookup 0 subtable" dx=7 dy=0 dh=14 dv=0
EndChar

StartChar: d
Encoding: 100 100 47
Width: 591
Flags: MW
HStem: -8 36<258.5 285.5 258.5 296.5 499 522> 416 36<361 385.5 290 391.5> 639 51
VStem: 106 107<92.5 126 70.5 219> 449 186<648 685.5>
LayerCount: 2
Fore
SplineSet
625 148 m 0
 625 144 612 88 586 46 c 0
 573 26 548 -8 501 -8 c 0
 462 -8 417 8 398 43 c 1
 374 24 327 -8 266 -8 c 0
 190 -8 106 33 106 152 c 0
 106 286 206 452 374 452 c 0
 397 452 433 448 465 420 c 1
 518 637 l 1
 506 638 488 639 476 639 c 0
 467 639 449 639 449 657 c 0
 449 686 469 686 480 687 c 2
 603 693 l 2
 617 694 635 695 635 676 c 0
 635 671 633 665 632 660 c 2
 492 102 l 2
 488 86 486 78 486 59 c 0
 486 36 493 28 505 28 c 0
 539 28 557 103 565 136 c 0
 572 161 573 162 597 162 c 0
 612 162 625 162 625 148 c 0
386 100 m 1
 387 108 387 111 389 118 c 2
 448 354 l 1
 437 394 409 416 374 416 c 0
 348 416 293 401 259 304 c 0
 248 276 213 153 213 99 c 0
 213 42 247 28 270 28 c 0
 301 28 343 43 386 100 c 1
EndSplineSet
EndChar

StartChar: dollar
Encoding: 36 36 48
Width: 575
Flags: MW
HStem: -56 21G<250 297 250 250> -9 52 127 125<154 188.5> 456 125<568 590.5> 730 20G<451 498 498 498>
LayerCount: 2
Fore
SplineSet
645 549 m 0
 641 500 617 456 564 456 c 0
 543 456 510 468 513 509 c 0
 516 543 542 581 594 581 c 1
 581 630 529 649 474 652 c 1
 418 428 l 1
 445 422 496 411 531 369 c 0
 552 343 573 304 568 243 c 0
 561 158 489 8 310 -5 c 1
 297 -56 l 1
 250 -56 l 1
 263 -5 l 1
 128 7 99 86 105 154 c 0
 106 173 115 252 187 252 c 0
 201 252 241 245 237 198 c 0
 236 180 223 127 154 127 c 1
 165 64 224 46 275 42 c 1
 337 294 l 1
 303 301 260 309 221 352 c 0
 186 391 181 440 183 469 c 0
 190 552 265 690 439 699 c 1
 451 750 l 1
 498 750 l 1
 486 699 l 1
 568 694 654 656 645 549 c 0
427 652 m 1
 328 642 282 578 278 529 c 0
 274 485 307 450 373 438 c 1
 427 652 l 1
474 182 m 0
 477 211 465 268 383 283 c 1
 322 43 l 1
 432 54 471 140 474 182 c 0
EndSplineSet
Substitution2: "'onum' Oldstyle Figures lookup 4 subtable" dollar.oldstyle
Substitution2: "'aalt' Access All Alternates lookup 0 subtable" dollar.oldstyle
EndChar

StartChar: E
Encoding: 69 69 49
Width: 757
Flags: MW
HStem: 0 47<88.5 121 99 121 121 127 340 440 440 521.5> 329 47<399 438 387 441> 633 47<247 773 257 276 530.5 605>
LayerCount: 2
Fore
SplineSet
761 256 m 0
 761 250 758 244 756 239 c 2
 661 17 l 2
 654 0 649 0 628 0 c 2
 96 0 l 2
 81 0 64 0 64 18 c 0
 64 47 82 47 99 47 c 2
 121 47 l 2
 133 47 149 48 161 49 c 0
 179 50 180 51 184 65 c 2
 325 631 l 1
 319 631 286 633 276 633 c 2
 254 633 l 2
 240 633 223 633 223 651 c 0
 223 680 240 680 257 680 c 2
 773 680 l 2
 787 680 803 680 805 663 c 2
 782 465 l 2
 780 446 779 439 753 439 c 0
 743 439 725 439 725 458 c 0
 725 462 727 475 728 479 c 0
 731 505 731 508 731 527 c 0
 731 633 666 633 544 633 c 0
 517 633 476 633 462 631 c 1
 399 376 l 1
 441 376 l 2
 520 376 538 401 556 471 c 0
 561 490 564 493 586 493 c 0
 596 493 614 493 614 475 c 0
 614 472 613 469 611 462 c 2
 555 236 l 2
 549 212 542 212 525 212 c 0
 515 212 497 212 497 230 c 2
 497 230 498 237 500 244 c 0
 504 262 507 282 507 289 c 0
 507 319 493 329 438 329 c 2
 387 329 l 1
 317 48 l 1
 324 47 331 47 340 47 c 2
 440 47 l 2
 603 47 646 124 699 247 c 0
 711 273 711 274 733 274 c 0
 743 274 761 274 761 256 c 0
EndSplineSet
Position2: "'cpsp' Capital Spacing lookup 0 subtable" dx=7 dy=0 dh=14 dv=0
EndChar

StartChar: e
Encoding: 101 101 50
Width: 532
Flags: MW
HStem: -8 36<275 310 275 317.5> 218 36<243 273.5 243 274 234 273.5> 416 36<385 423>
VStem: 110 108<113 132.5 90.5 244> 467 65<305.5 373>
LayerCount: 2
Fore
SplineSet
536 86 m 0
 536 74 497 35 443 14 c 0
 392 -5 333 -8 302 -8 c 0
 177 -8 110 59 110 167 c 0
 110 321 229 452 402 452 c 0
 476 452 532 416 532 356 c 0
 532 218 334 218 274 218 c 2
 234 218 l 1
 225 184 218 145 218 120 c 0
 218 61 247 28 303 28 c 0
 317 28 418 28 492 111 c 0
 499 118 503 118 506 118 c 0
 516 118 536 94 536 86 c 0
467 357 m 0
 467 389 444 416 402 416 c 0
 368 416 324 400 296 366 c 0
 267 334 257 304 243 254 c 1
 304 254 467 254 467 357 c 0
EndSplineSet
EndChar

StartChar: eight
Encoding: 56 56 51
Width: 591
Flags: MW
HStem: -17 43<265.5 354.5 265.5 384.5> 622 39<402 479>
VStem: 109 87<88 141 88 183> 221 91<409.5 538.5> 465 102<173.5 177.5>
LayerCount: 2
Fore
SplineSet
567 226 m 0
 567 121 475 -17 294 -17 c 0
 179 -17 109 34 109 118 c 0
 109 248 233 309 278 331 c 1
 263 340 221 375 221 444 c 0
 221 536 299 661 459 661 c 0
 545 661 618 626 618 544 c 0
 618 440 526 390 483 367 c 1
 522 340 567 307 567 226 c 0
543 546 m 0
 543 600 505 622 453 622 c 0
 351 622 312 558 312 519 c 0
 312 490 325 481 370 448 c 2
 445 395 l 1
 515 437 543 498 543 546 c 0
465 158 m 0
 465 197 448 209 403 241 c 0
 393 249 347 282 317 302 c 1
 226 251 196 166 196 116 c 0
 196 60 231 26 300 26 c 0
 409 26 465 99 465 158 c 0
EndSplineSet
Substitution2: "'pnum' Proportional Numbers lookup 6 subtable" eight.prop
Substitution2: "'onum' Oldstyle Figures lookup 4 subtable" eight.oldstyle
AlternateSubs2: "'aalt' Access All Alternates lookup 1 subtable" eight.oldstyle eight.prop
EndChar

StartChar: equal
Encoding: 61 61 52
Width: 886
Flags: MW
HStem: 108 61<165 171 171 784> 332 61<215 840 227 840 840 846>
LayerCount: 2
Fore
SplineSet
886 362 m 0
 886 332 858 332 846 332 c 2
 221 332 l 2
 209 332 181 332 181 362 c 0
 181 393 212 393 227 393 c 2
 840 393 l 2
 855 393 886 393 886 362 c 0
831 139 m 0
 831 108 799 108 784 108 c 2
 171 108 l 2
 156 108 125 108 125 139 c 0
 125 169 153 169 165 169 c 2
 790 169 l 2
 802 169 831 169 831 139 c 0
EndSplineSet
EndChar

StartChar: exclam
Encoding: 33 33 53
Width: 386
Flags: MW
HStem: 0 147<204.5 220>
VStem: 137 150<63 84.5>
LayerCount: 2
Fore
SplineSet
423 627 m 2
 282 237 l 2
 276 220 275 219 252 219 c 0
 239 219 221 219 225 236 c 1
 225 247 l 1
 279 633 l 2
 289 704 355 711 367 711 c 0
 411 711 430 680 430 655 c 0
 430 646 428 642 423 627 c 2
287 87 m 0
 287 39 241 0 199 0 c 0
 164 0 137 24 137 60 c 0
 137 109 184 147 225 147 c 0
 263 147 287 120 287 87 c 0
EndSplineSet
EndChar

StartChar: F
Encoding: 70 70 54
Width: 727
Flags: MW
HStem: 0 47<99 111.5 387.5 415 415 422> 317 47<396 429 384 432> 633 47<247 758 257 276 526 595.5>
LayerCount: 2
Fore
SplineSet
767 465 m 2
 765 446 764 439 738 439 c 0
 728 439 710 439 710 458 c 2
 710 458 710 462 712 470 c 0
 714 488 716 512 716 529 c 0
 716 633 652 633 539 633 c 0
 513 633 476 633 462 631 c 1
 396 364 l 1
 432 364 l 2
 511 364 528 389 546 459 c 0
 551 478 554 481 576 481 c 0
 586 481 604 481 604 463 c 0
 604 460 603 457 601 450 c 2
 545 224 l 2
 539 200 532 200 515 200 c 0
 505 200 487 200 487 218 c 0
 487 221 489 229 489 232 c 0
 494 248 497 268 497 278 c 0
 497 305 487 317 429 317 c 2
 384 317 l 1
 317 50 l 1
 341 47 343 47 379 47 c 2
 415 47 l 2
 429 47 447 47 447 29 c 0
 447 0 428 0 416 0 c 0
 359 0 299 3 241 3 c 0
 190 3 137 0 86 0 c 0
 75 0 64 5 64 18 c 0
 64 47 82 47 99 47 c 2
 121 47 l 2
 133 47 149 48 161 49 c 0
 179 50 180 51 184 65 c 2
 325 631 l 1
 319 631 286 633 276 633 c 2
 254 633 l 2
 240 633 223 633 223 651 c 0
 223 680 240 680 257 680 c 2
 758 680 l 2
 772 680 788 680 790 663 c 2
 767 465 l 2
EndSplineSet
Position2: "'cpsp' Capital Spacing lookup 0 subtable" dx=7 dy=0 dh=14 dv=0
EndChar

StartChar: f
Encoding: 102 102 55
Width: 400
Flags: MW
HStem: -202 36<91 107.5 91 108.5> 397 47<142.5 245 153 236 352 453> 666 36<418 427>
VStem: -19 121<-102 -101> 417 121<600.5 608>
LayerCount: 2
Fore
SplineSet
538 623 m 0
 538 578 502 548 467 548 c 0
 437 548 417 567 417 594 c 0
 417 622 435 646 457 658 c 1
 443 665 429 666 425 666 c 0
 411 666 396 654 391 641 c 0
 384 627 360 491 352 444 c 1
 456 444 l 2
 470 444 488 444 488 426 c 0
 488 397 470 397 453 397 c 2
 343 397 l 1
 283 73 l 2
 275 29 270 10 257 -33 c 0
 210 -181 127 -202 90 -202 c 0
 31 -202 -19 -172 -19 -123 c 0
 -19 -79 16 -48 52 -48 c 0
 82 -48 102 -67 102 -94 c 0
 102 -110 94 -141 61 -158 c 1
 75 -166 91 -166 91 -166 c 1
 124 -166 138 -113 141 -98 c 0
 154 -48 156 -37 166 16 c 2
 236 397 l 1
 150 397 l 2
 135 397 118 397 118 415 c 0
 118 444 136 444 153 444 c 2
 245 444 l 1
 263 542 l 2
 272 593 301 702 425 702 c 0
 491 702 538 670 538 623 c 0
EndSplineSet
EndChar

StartChar: five
Encoding: 53 53 56
Width: 591
Flags: MW
HStem: -17 43<245.5 279.5 245.5 359.5> 379 36<381.5 413> 512 117<361.5 476>
VStem: 119 134<162 167> 444 121<305.5 316 191.5 333.5>
LayerCount: 2
Fore
SplineSet
565 260 m 0
 565 123 452 -17 267 -17 c 0
 164 -17 119 55 119 122 c 0
 119 212 178 225 200 225 c 0
 225 225 253 211 253 175 c 0
 253 149 235 103 178 98 c 1
 188 51 223 26 268 26 c 0
 291 26 356 34 392 110 c 0
 414 159 444 288 444 323 c 0
 444 344 434 379 392 379 c 0
 363 379 309 371 257 320 c 0
 243 306 243 305 229 305 c 0
 224 305 205 305 205 323 c 0
 205 328 207 334 208 339 c 2
 284 641 l 2
 287 651 289 661 300 661 c 0
 304 661 306 660 316 655 c 0
 358 637 404 629 449 629 c 0
 503 629 552 640 599 657 c 0
 609 661 613 661 613 661 c 2
 623 661 628 652 628 647 c 0
 628 632 616 621 598 606 c 0
 505 522 418 512 375 512 c 0
 348 512 321 517 318 517 c 2
 318 517 315 516 312 504 c 2
 282 385 l 1
 328 410 366 415 397 415 c 0
 484 415 565 372 565 260 c 0
EndSplineSet
Substitution2: "'pnum' Proportional Numbers lookup 6 subtable" five.prop
Substitution2: "'onum' Oldstyle Figures lookup 4 subtable" five.oldstyle
AlternateSubs2: "'aalt' Access All Alternates lookup 1 subtable" five.oldstyle five.prop
EndChar

StartChar: four
Encoding: 52 52 57
Width: 591
Flags: MW
HStem: -194 21G<324.5 363.5> -23 47<444 448.5> 28 47<186 206 206 217> 641 20G<462 491.5>
LayerCount: 2
Fore
SplineSet
547 10 m 0
 547 -12 466 -23 431 -23 c 1
 426 -48 412 -102 404 -134 c 0
 400 -150 388 -194 339 -194 c 0
 310 -194 294 -174 294 -152 c 0
 294 -145 306 -100 312 -74 c 2
 330 -1 l 1
 259 23 242 28 192 28 c 0
 124 28 113 21 99 12 c 0
 85 2 82 0 77 0 c 0
 65 0 53 21 53 27 c 0
 53 45 84 59 91 62 c 0
 99 66 191 127 280 263 c 0
 331 341 383 453 421 599 c 0
 426 617 437 661 487 661 c 0
 496 661 531 657 531 618 c 0
 531 611 483 323 186 75 c 1
 206 75 l 2
 253 75 283 65 342 45 c 1
 372 164 l 2
 379 193 390 236 439 236 c 0
 463 236 484 222 484 194 c 0
 484 188 484 186 480 171 c 2
 444 24 l 1
 457 24 483 25 511 34 c 0
 518 36 519 37 523 37 c 0
 536 37 547 15 547 10 c 0
EndSplineSet
Substitution2: "'pnum' Proportional Numbers lookup 6 subtable" four.prop
Substitution2: "'onum' Oldstyle Figures lookup 4 subtable" four.oldstyle
AlternateSubs2: "'aalt' Access All Alternates lookup 1 subtable" four.oldstyle four.prop
EndChar

StartChar: G
Encoding: 71 71 58
Width: 895
Flags: MW
HStem: -17 47<455.5 488.5> 229 47<554 561 561 587.5 554 595 833.5 846> 656 47<610.5 641.5 483.5 694.5>
VStem: 163 135<171 225.5 171 352>
LayerCount: 2
Fore
SplineSet
874 258 m 0
 874 229 858 229 834 229 c 0
 823 229 812 229 801 227 c 0
 794 226 792 226 789 212 c 2
 742 21 l 2
 739 9 737 0 725 0 c 0
 718 0 676 24 650 47 c 1
 595 -2 519 -17 458 -17 c 0
 305 -17 163 57 163 244 c 0
 163 460 338 703 629 703 c 0
 654 703 732 703 795 635 c 1
 881 703 l 1
 896 703 908 703 908 689 c 2
 908 689 908 685 904 670 c 2
 848 446 l 2
 843 426 841 426 816 426 c 0
 796 426 785 426 785 441 c 0
 785 449 788 453 788 485 c 0
 788 573 746 656 643 656 c 0
 578 656 477 631 406 541 c 0
 324 435 298 248 298 203 c 0
 298 139 318 102 347 75 c 0
 374 51 425 30 486 30 c 0
 548 30 612 63 629 119 c 0
 632 129 655 219 655 223 c 0
 655 229 607 229 595 229 c 2
 561 229 l 2
 547 229 529 229 529 247 c 0
 529 276 548 276 560 276 c 0
 615 276 672 273 727 273 c 0
 769 273 813 276 854 276 c 0
 870 276 874 264 874 258 c 0
EndSplineSet
Position2: "'cpsp' Capital Spacing lookup 0 subtable" dx=7 dy=0 dh=14 dv=0
EndChar

StartChar: g
Encoding: 103 103 59
Width: 532
Flags: MW
HStem: -202 36<200.5 241 200.5 272.5> 0 36<246.5 285> 416 36<361 389>
VStem: 59 121<-110.5 -109.5>
LayerCount: 2
Fore
SplineSet
451 -64 m 2
 429 -151 333 -202 212 -202 c 0
 138 -202 59 -194 59 -132 c 0
 59 -87 95 -58 130 -58 c 0
 161 -58 180 -79 180 -104 c 0
 180 -117 173 -143 152 -160 c 1
 164 -163 187 -166 214 -166 c 0
 268 -166 325 -137 349 -44 c 2
 366 27 l 1
 332 8 301 0 269 0 c 0
 179 0 107 52 107 158 c 0
 107 287 204 452 374 452 c 0
 410 452 442 442 471 415 c 1
 480 424 491 435 518 435 c 0
 546 435 563 416 563 393 c 2
 563 393 563 385 559 369 c 2
 451 -64 l 2
389 117 m 2
 448 356 l 1
 436 400 404 416 374 416 c 0
 348 416 297 401 264 318 c 0
 250 283 215 162 215 107 c 0
 215 85 220 36 273 36 c 0
 321 36 380 82 389 117 c 2
EndSplineSet
EndChar

StartChar: grave
Encoding: 96 96 60
Width: 591
Flags: MW
HStem: 502 21G<451 462> 679 20G<379.5 403>
LayerCount: 2
Fore
SplineSet
499 535 m 0
 496 529 470 502 454 502 c 0
 448 502 445 505 441 508 c 2
 333 597 l 2
 323 605 305 620 321 651 c 0
 335 679 367 699 392 699 c 0
 414 699 421 687 431 668 c 2
 496 554 l 2
 500 549 502 542 499 535 c 0
EndSplineSet
EndChar

StartChar: greater
Encoding: 62 62 61
Width: 894
Flags: MW
HStem: -86 21G<96.5 109.5> 567 20G<265 274.5>
LayerCount: 2
Fore
SplineSet
860 251 m 0
 855 233 842 225 827 219 c 2
 126 -80 l 2
 118 -84 113 -86 106 -86 c 0
 87 -86 79 -70 82 -56 c 0
 86 -41 96 -32 115 -24 c 2
 759 251 l 1
 252 525 l 2
 238 533 231 541 235 557 c 0
 239 573 257 587 273 587 c 0
 276 587 282 587 294 580 c 2
 843 282 l 2
 852 277 864 269 860 251 c 0
EndSplineSet
EndChar

StartChar: H
Encoding: 72 72 62
Width: 896
Flags: MW
HStem: 0 47<99 110.5 366 388 388 395 523 534.5 790 812 812 819> 333 47<400 675 388 687> 639 47<248.5 256 256 278 545 553.5 672.5 680 680 702 969 977.5>
LayerCount: 2
Fore
SplineSet
1003 668 m 0
 1003 639 986 639 969 639 c 2
 907 638 l 2
 888 636 887 635 883 620 c 2
 741 49 l 1
 747 49 780 47 790 47 c 2
 812 47 l 2
 826 47 843 47 843 29 c 0
 843 0 824 0 815 0 c 0
 765 0 712 3 661 3 c 0
 611 3 559 0 510 0 c 0
 499 0 488 5 488 18 c 0
 488 47 506 47 523 47 c 2
 545 47 l 2
 557 47 573 48 585 49 c 0
 603 50 604 51 608 65 c 2
 675 333 l 1
 388 333 l 1
 317 49 l 1
 323 49 356 47 366 47 c 2
 388 47 l 2
 402 47 419 47 419 29 c 0
 419 0 400 0 391 0 c 0
 341 0 288 3 237 3 c 0
 187 3 135 0 86 0 c 0
 75 0 64 5 64 18 c 0
 64 47 82 47 99 47 c 2
 121 47 l 2
 133 47 149 48 161 49 c 0
 179 50 180 51 184 65 c 2
 327 637 l 1
 315 638 289 639 278 639 c 2
 256 639 l 2
 241 639 224 639 224 657 c 0
 224 686 243 686 253 686 c 0
 303 686 356 683 407 683 c 0
 457 683 508 686 557 686 c 0
 568 686 579 681 579 668 c 0
 579 639 562 639 545 639 c 2
 483 638 l 2
 464 636 463 635 459 620 c 2
 400 380 l 1
 687 380 l 1
 751 637 l 1
 739 638 713 639 702 639 c 2
 680 639 l 2
 665 639 648 639 648 657 c 0
 648 686 667 686 677 686 c 0
 727 686 780 683 831 683 c 0
 881 683 932 686 981 686 c 0
 992 686 1003 681 1003 668 c 0
EndSplineSet
Position2: "'cpsp' Capital Spacing lookup 0 subtable" dx=7 dy=0 dh=14 dv=0
EndChar

StartChar: h
Encoding: 104 104 63
Width: 591
Flags: MW
HStem: -8 36<474.5 505.5 474.5 524> 416 36<381.5 421.5> 639 51
VStem: 155 186<648 685.5> 367 96<53 56.5 37 88.5>
LayerCount: 2
Fore
SplineSet
625 148 m 0
 625 127 576 -8 472 -8 c 0
 418 -8 367 25 367 81 c 0
 367 96 370 106 379 131 c 0
 397 176 443 299 443 359 c 0
 443 378 443 416 400 416 c 0
 309 416 253 322 246 294 c 2
 184 45 l 2
 172 -3 134 -8 122 -8 c 0
 95 -8 76 10 76 35 c 0
 76 40 76 42 80 57 c 2
 224 637 l 1
 212 638 194 639 182 639 c 0
 173 639 155 639 155 657 c 0
 155 686 175 686 186 687 c 2
 309 693 l 2
 323 694 341 695 341 676 c 0
 341 671 339 665 338 660 c 2
 273 401 l 1
 316 436 356 452 407 452 c 0
 486 452 545 422 545 339 c 0
 545 282 500 164 486 127 c 0
 473 93 463 67 463 46 c 0
 463 28 472 28 477 28 c 0
 534 28 561 123 569 149 c 0
 573 162 578 162 597 162 c 0
 612 162 625 162 625 148 c 0
EndSplineSet
EndChar

StartChar: hyphen
Encoding: 45 45 64
Width: 414
Flags: MW
HStem: 175 94<117.5 355 138 338>
VStem: 92 295<184.5 260>
LayerCount: 2
Fore
SplineSet
375 202 m 0
 369 178 368 175 338 175 c 2
 125 175 l 2
 110 175 92 175 92 194 c 0
 92 197 102 237 103 244 c 0
 109 267 110 269 138 269 c 2
 355 269 l 2
 369 269 387 269 387 251 c 0
 387 248 379 218 375 202 c 0
EndSplineSet
EndChar

StartChar: I
Encoding: 73 73 65
Width: 472
Flags: MW
HStem: 0 47<94 106.5 369 393 393 400.5> 637 46 639 47<243.5 251 251 274 242.5 275 537.5 550>
LayerCount: 2
Fore
SplineSet
585 668 m 0x20
 585 639 567 639 550 639 c 2
 525 639 l 2x20
 513 639 496 638 484 637 c 0
 464 636 463 635 459 620 c 2
 317 49 l 1
 368 47 l 1
 393 47 l 2
 408 47 425 47 425 29 c 0
 425 0 406 0 395 0 c 0
 343 0 289 3 236 3 c 0
 185 3 132 0 81 0 c 0
 69 0 59 5 59 18 c 0
 59 47 76 47 94 47 c 2
 118 47 l 2
 129 47 148 47 159 48 c 0
 179 50 180 51 184 65 c 2
 326 637 l 1xc0
 315 637 280 639 275 639 c 2
 251 639 l 2
 236 639 219 639 219 657 c 0
 219 686 237 686 248 686 c 0x20
 300 686 354 683 407 683 c 0x40
 459 683 512 686 563 686 c 0
 584 686 585 671 585 668 c 0x20
EndSplineSet
Position2: "'cpsp' Capital Spacing lookup 0 subtable" dx=7 dy=0 dh=14 dv=0
EndChar

StartChar: i
Encoding: 105 105 66
Width: 356
Flags: MW
HStem: -8 36<239.5 270.5 239.5 289> 416 36<196.5 227.5> 527 147<319 338.5>
VStem: 132 96<37 88.5> 239 96<355.5 407>
LayerCount: 2
Fore
SplineSet
390 148 m 0
 390 127 341 -8 237 -8 c 0
 183 -8 132 25 132 81 c 0
 132 96 135 104 141 120 c 2
 231 358 l 2
 232 360 239 385 239 398 c 0
 239 416 230 416 225 416 c 0
 168 416 141 321 133 295 c 0
 129 282 124 282 105 282 c 0
 90 282 77 282 77 296 c 0
 77 317 126 452 230 452 c 0
 284 452 335 419 335 363 c 0
 335 348 332 340 326 324 c 2
 236 86 l 2
 235 84 228 59 228 46 c 0
 228 28 237 28 242 28 c 0
 299 28 326 123 334 149 c 0
 338 162 343 162 362 162 c 0
 377 162 390 162 390 148 c 0
404 614 m 0x20
 404 571 362 527 315 527 c 0
 277 527 253 555 253 587 c 0
 253 631 296 674 342 674 c 0
 383 674 404 642 404 614 c 0x20
EndSplineSet
EndChar

StartChar: J
Encoding: 74 74 67
Width: 611
Flags: MW
HStem: -17 36<223 253.5 223 305> 639 47<361 368 368 395 361 407 649.5 656>
VStem: 72 152<116.5 125.5>
LayerCount: 2
Fore
SplineSet
691 668 m 0
 691 639 674 639 656 639 c 2
 648 639 l 2
 638 639 626 639 615 638 c 0
 603 636 602 635 599 622 c 2
 479 140 l 2
 461 66 380 -17 230 -17 c 0
 139 -17 72 23 72 92 c 0
 72 159 125 188 161 188 c 0
 201 188 224 161 224 130 c 0
 224 103 206 57 155 43 c 1
 181 19 220 19 226 19 c 0
 281 19 330 70 350 149 c 2
 471 636 l 1
 448 639 446 639 407 639 c 2
 368 639 l 2
 354 639 337 639 337 657 c 0
 337 686 355 686 367 686 c 0
 423 686 482 683 539 683 c 0
 583 683 628 686 671 686 c 0
 686 686 691 675 691 668 c 0
EndSplineSet
Position2: "'cpsp' Capital Spacing lookup 0 subtable" dx=7 dy=0 dh=14 dv=0
EndChar

StartChar: j
Encoding: 106 106 68
Width: 356
Flags: MW
HStem: -202 36<70 103 70 116.5> 416 36<240 257.5> 527 147<319 338.5>
VStem: -29 121<-114 -111> 274 101<375.5 386.5 352 400>
LayerCount: 2
Fore
SplineSet
277 -52 m 2
 255 -140 160 -202 73 -202 c 0
 15 -202 -29 -175 -29 -130 c 0
 -29 -92 3 -58 42 -58 c 0
 73 -58 92 -79 92 -104 c 0
 92 -124 79 -151 58 -164 c 1
 58 -164 67 -166 73 -166 c 0
 133 -166 163 -77 171 -47 c 2
 268 342 l 2
 272 358 274 366 274 385 c 0
 274 415 262 416 253 416 c 0
 227 416 178 398 136 299 c 0
 128 283 127 282 105 282 c 0
 90 282 77 282 77 296 c 0
 77 313 143 452 258 452 c 0
 318 452 375 418 375 355 c 0
 375 349 375 342 371 326 c 2
 277 -52 l 2
404 614 m 0x20
 404 571 362 527 315 527 c 0
 277 527 253 555 253 587 c 0
 253 631 296 674 342 674 c 0
 383 674 404 642 404 614 c 0x20
EndSplineSet
EndChar

StartChar: K
Encoding: 75 75 69
Width: 895
Flags: MW
HStem: 0 47<99 110.5 366 388 388 395 540 550.5 780.5 803.5> 639 47<248.5 256 256 278 545 553.5 733 735 946 949.5>
VStem: 709 263<654 671.5>
LayerCount: 2
Fore
SplineSet
827 29 m 0
 827 0 809 0 800 0 c 0
 761 0 720 3 680 3 c 0
 632 3 583 0 536 0 c 0
 524 0 514 6 514 18 c 0
 514 47 531 47 549 47 c 0
 552 47 582 47 602 54 c 1
 477 337 l 1
 368 254 l 1
 317 49 l 1
 323 49 356 47 366 47 c 2
 388 47 l 2
 402 47 419 47 419 29 c 0
 419 0 400 0 391 0 c 0
 341 0 288 3 237 3 c 0
 187 3 135 0 86 0 c 0
 75 0 64 5 64 18 c 0
 64 47 82 47 99 47 c 2
 121 47 l 2
 158 47 180 51 180 51 c 1
 327 637 l 1
 315 638 289 639 278 639 c 2
 256 639 l 2
 241 639 224 639 224 657 c 0
 224 686 243 686 253 686 c 0
 303 686 356 683 407 683 c 0
 457 683 508 686 557 686 c 0
 568 686 579 681 579 668 c 0
 579 639 562 639 545 639 c 2
 483 638 l 2
 464 636 463 635 459 620 c 2
 387 331 l 1
 784 631 l 1
 764 638 735 639 735 639 c 2
 726 639 709 640 709 657 c 0
 709 686 728 686 738 686 c 0
 780 686 825 683 868 683 c 0
 896 683 927 686 954 686 c 0
 964 686 972 678 972 668 c 0
 972 640 953 639 946 639 c 0
 888 637 862 626 828 601 c 2
 586 419 l 1
 742 66 l 2
 749 51 750 47 797 47 c 0
 810 47 827 47 827 29 c 0
EndSplineSet
Position2: "'cpsp' Capital Spacing lookup 0 subtable" dx=7 dy=0 dh=14 dv=0
EndChar

StartChar: k
Encoding: 107 107 70
Width: 532
Flags: MW
HStem: -8 36<430.5 453 430.5 480.5> 416 36<469 489.5> 639 51
VStem: 318 107<139 166.5> 439 123<340 348.5>
LayerCount: 2
Fore
SplineSet
566 148 m 0
 566 140 531 -8 430 -8 c 0
 365 -8 312 34 312 94 c 0
 312 105 313 110 315 119 c 0
 318 130 318 135 318 140 c 0
 318 193 256 209 226 214 c 1
 181 33 l 2
 170 5 143 -8 122 -8 c 0
 95 -8 76 10 76 35 c 0
 76 40 76 42 80 57 c 2
 224 637 l 1
 212 638 194 639 182 639 c 0
 173 639 155 639 155 657 c 0
 155 686 175 686 186 687 c 2
 309 693 l 2
 323 694 341 695 341 676 c 0
 341 671 339 665 338 660 c 2
 241 274 l 1
 265 289 282 303 322 345 c 0
 386 413 435 452 491 452 c 0
 548 452 562 403 562 373 c 0
 562 307 518 286 489 286 c 0
 458 286 439 307 439 332 c 0
 439 365 465 399 506 404 c 1
 503 416 491 416 488 416 c 0
 450 416 407 391 339 315 c 0
 337 314 303 277 267 251 c 1
 339 243 425 220 425 144 c 0
 425 134 423 124 421 114 c 0
 413 82 413 62 413 62 c 1
 413 30 426 28 435 28 c 0
 471 28 491 76 506 135 c 0
 513 161 514 162 538 162 c 0
 553 162 566 162 566 148 c 0
EndSplineSet
EndChar

StartChar: L
Encoding: 76 76 71
Width: 698
Flags: MW
HStem: 0 47<88.5 121 99 121 121 127 340 398 398 475> 639 47<248.5 256 256 278 554.5 572>
LayerCount: 2
Fore
SplineSet
687 256 m 0
 687 252 685 246 682 239 c 2
 602 21 l 2
 594 0 591 0 568 0 c 2
 96 0 l 2
 81 0 64 0 64 18 c 0
 64 47 82 47 99 47 c 2
 121 47 l 2
 133 47 149 48 161 49 c 0
 179 50 180 51 184 65 c 2
 327 637 l 1
 315 638 289 639 278 639 c 2
 256 639 l 2
 241 639 224 639 224 657 c 0
 224 686 243 686 253 686 c 0
 305 686 359 683 411 683 c 0
 468 683 526 686 583 686 c 0
 591 686 606 684 606 668 c 0
 606 639 590 639 572 639 c 2
 536 639 l 2
 524 639 500 638 490 637 c 0
 464 635 463 634 459 620 c 2
 317 48 l 1
 324 47 331 47 340 47 c 2
 398 47 l 2
 552 47 603 183 631 258 c 0
 636 274 644 274 659 274 c 0
 668 274 687 274 687 256 c 0
EndSplineSet
Position2: "'cpsp' Capital Spacing lookup 0 subtable" dx=7 dy=0 dh=14 dv=0
EndChar

StartChar: l
Encoding: 108 108 72
Width: 297
Flags: MW
HStem: -8 36<205 228 205 230.5> 639 51
VStem: 91 101<57 68.5 47.5 92>
LayerCount: 2
Fore
SplineSet
331 148 m 0
 331 144 318 88 292 46 c 0
 279 26 254 -8 207 -8 c 0
 151 -8 91 25 91 89 c 0
 91 95 91 102 95 118 c 2
 224 637 l 1
 212 638 194 639 182 639 c 0
 173 639 155 639 155 657 c 0
 155 686 175 686 186 687 c 2
 309 693 l 2
 323 694 341 695 341 676 c 0
 341 671 339 665 338 660 c 2
 198 102 l 2
 194 86 192 78 192 59 c 0
 192 36 199 28 211 28 c 0
 245 28 263 103 271 136 c 0
 278 161 279 162 303 162 c 0
 318 162 331 162 331 148 c 0
EndSplineSet
EndChar

StartChar: less
Encoding: 60 60 73
Width: 894
Flags: MW
HStem: -86 21G<745 754.5> 567 20G<909.5 922.5>
LayerCount: 2
Fore
SplineSet
783 -56 m 0
 780 -70 764 -86 745 -86 c 1
 745 -86 737 -86 724 -79 c 2
 176 219 l 2
 164 225 154 233 159 251 c 0
 163 269 179 277 192 282 c 2
 892 581 l 2
 900 585 906 587 913 587 c 0
 932 587 940 571 936 557 c 0
 932 540 919 532 903 525 c 2
 260 250 l 1
 766 -24 l 2
 778 -31 787 -39 783 -56 c 0
EndSplineSet
EndChar

StartChar: M
Encoding: 77 77 74
Width: 1073
Flags: MW
HStem: 0 47<90 102.5 309.5 321 717 727 968 989 989 996> 639 47<248.5 452 259 278 1146 1148 1148 1154.5>
VStem: 64 281<16 32.5>
LayerCount: 2
Fore
SplineSet
1180 668 m 0
 1180 639 1163 639 1146 639 c 2
 1084 638 l 2
 1065 636 1064 635 1060 620 c 2
 918 49 l 1
 924 49 957 47 967 47 c 2
 989 47 l 2
 1003 47 1020 47 1020 29 c 0
 1020 0 1001 0 992 0 c 0
 944 0 894 3 846 3 c 0
 799 3 750 0 704 0 c 0
 693 0 682 5 682 18 c 0
 682 47 700 47 717 47 c 2
 739 47 l 2
 751 47 767 48 779 49 c 0
 797 50 798 51 802 65 c 2
 940 621 l 1
 939 622 l 1
 546 25 l 2
 536 10 530 0 505 0 c 0
 483 0 478 8 475 29 c 2
 383 607 l 1
 382 607 l 1
 245 57 l 1
 269 47 305 47 314 47 c 0
 328 47 345 47 345 29 c 0
 345 0 326 0 318 0 c 0
 280 0 238 3 199 3 c 0
 161 3 121 0 84 0 c 0
 67 0 64 14 64 18 c 0
 64 47 82 47 98 47 c 0
 123 47 144 50 155 52 c 0
 182 58 183 62 187 77 c 2
 327 637 l 1
 315 638 289 639 278 639 c 2
 256 639 l 2
 241 639 224 639 224 657 c 0
 224 686 242 686 259 686 c 2
 452 686 l 2
 479 686 485 684 489 658 c 2
 572 139 l 1
 918 663 l 2
 932 685 940 686 964 686 c 2
 1148 686 l 2
 1163 686 1180 686 1180 668 c 0
EndSplineSet
Position2: "'cpsp' Capital Spacing lookup 0 subtable" dx=7 dy=0 dh=14 dv=0
EndChar

StartChar: m
Encoding: 109 109 75
Width: 944
Flags: MW
HStem: -8 36<827.5 858.5 827.5 877> 416 36<180 203 455.5 476.5 720 774.5>
VStem: 720 96<53 56.5 37 88.5>
LayerCount: 2
Fore
SplineSet
978 148 m 0
 978 127 929 -8 825 -8 c 0
 771 -8 720 25 720 81 c 0
 720 96 723 106 732 131 c 0
 750 176 796 299 796 359 c 0
 796 378 796 416 753 416 c 0
 663 416 606 323 599 294 c 2
 538 48 l 2
 525 -3 486 -8 474 -8 c 0
 453 -8 429 4 429 35 c 0
 429 42 439 82 445 106 c 2
 487 274 l 2
 498 317 502 334 502 359 c 0
 502 378 502 416 459 416 c 0
 368 416 312 323 305 294 c 2
 243 46 l 2
 230 -6 187 -8 180 -8 c 0
 159 -8 135 4 135 35 c 0
 135 40 135 42 139 57 c 2
 210 342 l 2
 214 358 216 366 216 385 c 0
 216 408 209 416 197 416 c 0
 163 416 145 341 137 308 c 0
 130 283 129 282 105 282 c 0
 90 282 77 282 77 296 c 0
 77 300 90 356 116 398 c 0
 129 418 154 452 201 452 c 0
 233 452 293 440 313 383 c 1
 379 452 445 452 466 452 c 0
 487 452 578 452 600 376 c 1
 634 410 680 452 760 452 c 0
 839 452 898 422 898 339 c 0
 898 282 853 164 839 127 c 0
 826 93 816 67 816 46 c 0
 816 28 825 28 830 28 c 0
 887 28 914 123 922 149 c 0
 926 162 931 162 950 162 c 0
 965 162 978 162 978 148 c 0
EndSplineSet
EndChar

StartChar: N
Encoding: 78 78 76
Width: 896
Flags: MW
HStem: 0 47<90 102.5 309.5 321> 639 47<248.5 444 259 283 746 757.5 968 979>
VStem: 64 281<16 32.5> 722 281<653.5 671.5>
LayerCount: 2
Fore
SplineSet
1003 668 m 0
 1003 639 986 639 972 639 c 0
 964 639 938 639 915 634 c 0
 886 628 885 625 881 610 c 2
 735 24 l 2
 729 0 724 0 701 0 c 0
 679 0 678 1 670 16 c 2
 376 584 l 1
 245 57 l 1
 269 47 305 47 314 47 c 0
 328 47 345 47 345 29 c 0
 345 0 326 0 318 0 c 0
 280 0 238 3 199 3 c 0
 161 3 121 0 84 0 c 0
 67 0 64 14 64 18 c 0
 64 47 82 47 98 47 c 0
 123 47 144 50 155 52 c 0
 182 58 183 62 187 77 c 2
 323 623 l 2
 324 626 326 634 326 634 c 2
 326 637 326 639 283 639 c 2
 256 639 l 2
 241 639 224 639 224 657 c 0
 224 686 242 686 259 686 c 2
 444 686 l 2
 467 686 468 685 477 669 c 2
 717 206 l 1
 823 629 l 1
 798 639 762 639 753 639 c 0
 739 639 722 639 722 657 c 0
 722 686 742 686 750 686 c 0
 788 686 829 683 868 683 c 0
 906 683 946 686 983 686 c 0
 994 686 1003 679 1003 668 c 0
EndSplineSet
Position2: "'cpsp' Capital Spacing lookup 0 subtable" dx=7 dy=0 dh=14 dv=0
EndChar

StartChar: n
Encoding: 110 110 77
Width: 650
Flags: MW
HStem: -8 36<533.5 564.5 533.5 583> 416 36<180 203 455.5 480.5>
VStem: 426 96<53 56.5 37 88.5>
LayerCount: 2
Fore
SplineSet
684 148 m 0
 684 127 635 -8 531 -8 c 0
 477 -8 426 25 426 81 c 0
 426 96 429 106 438 131 c 0
 456 176 502 299 502 359 c 0
 502 378 502 416 459 416 c 0
 368 416 312 323 305 294 c 2
 243 46 l 2
 230 -6 187 -8 180 -8 c 0
 159 -8 135 4 135 35 c 0
 135 40 135 42 139 57 c 2
 210 342 l 2
 214 358 216 366 216 385 c 0
 216 408 209 416 197 416 c 0
 163 416 145 341 137 308 c 0
 130 283 129 282 105 282 c 0
 90 282 77 282 77 296 c 0
 77 300 90 356 116 398 c 0
 129 418 154 452 201 452 c 0
 233 452 293 440 313 383 c 1
 379 452 445 452 466 452 c 0
 545 452 604 422 604 339 c 0
 604 282 559 164 545 127 c 0
 532 93 522 67 522 46 c 0
 522 28 531 28 536 28 c 0
 593 28 620 123 628 149 c 0
 632 162 637 162 656 162 c 0
 671 162 684 162 684 148 c 0
EndSplineSet
EndChar

StartChar: nine
Encoding: 57 57 78
Width: 591
Flags: MW
HStem: -17 43<247.5 282.5 247.5 292> 221 36<323 359.5> 622 39<441.5 483>
VStem: 125 122<104.5 110.5> 517 104<461 563>
LayerCount: 2
Fore
SplineSet
621 479 m 0
 621 443 607 253 501 116 c 0
 429 24 333 -17 251 -17 c 0
 188 -17 125 6 125 78 c 0
 125 143 168 164 197 164 c 0
 233 164 247 141 247 118 c 0
 247 91 229 59 191 49 c 1
 208 27 242 26 253 26 c 0
 312 26 362 69 384 98 c 0
 398 118 426 155 460 286 c 1
 417 233 379 221 340 221 c 0
 198 221 175 331 175 373 c 0
 175 377 175 495 260 580 c 0
 340 659 424 661 459 661 c 0
 569 661 621 591 621 479 c 0
517 552 m 0
 517 574 508 622 458 622 c 0
 399 622 359 586 339 531 c 0
 322 486 288 352 288 314 c 0
 288 292 297 257 349 257 c 0
 486 257 517 531 517 552 c 0
EndSplineSet
Substitution2: "'pnum' Proportional Numbers lookup 6 subtable" nine.prop
Substitution2: "'onum' Oldstyle Figures lookup 4 subtable" nine.oldstyle
AlternateSubs2: "'aalt' Access All Alternates lookup 1 subtable" nine.oldstyle nine.prop
EndChar

StartChar: numbersign
Encoding: 35 35 79
Width: 944
Flags: MW
HStem: 108 61<165 171 171 307 410 541 165 376 644 842> 332 61<215 460 227 427 227 496 529 661 763 898 898 904>
LayerCount: 2
Fore
SplineSet
889 139 m 0
 889 108 857 108 842 108 c 2
 610 108 l 1
 461 -172 l 2
 455 -183 449 -194 432 -194 c 0
 415 -194 401 -180 401 -163 c 0
 401 -157 402 -155 408 -144 c 2
 541 108 l 1
 376 108 l 1
 227 -172 l 2
 221 -183 215 -194 198 -194 c 0
 181 -194 167 -180 167 -163 c 0
 167 -157 168 -155 174 -144 c 2
 307 108 l 1
 171 108 l 2
 156 108 125 108 125 139 c 0
 125 169 153 169 165 169 c 2
 341 169 l 1
 427 332 l 1
 221 332 l 2
 209 332 181 332 181 362 c 0
 181 393 212 393 227 393 c 2
 460 393 l 1
 608 672 l 2
 614 683 620 694 637 694 c 0
 654 694 668 680 668 663 c 0
 668 657 667 655 661 644 c 2
 529 393 l 1
 694 393 l 1
 842 672 l 2
 848 683 854 694 871 694 c 0
 888 694 902 680 902 663 c 0
 902 657 901 655 895 644 c 2
 763 393 l 1
 898 393 l 2
 913 393 944 393 944 362 c 0
 944 332 916 332 904 332 c 2
 730 332 l 1
 644 169 l 1
 848 169 l 2
 860 169 889 169 889 139 c 0
661 332 m 1
 496 332 l 1
 410 169 l 1
 575 169 l 1
 661 332 l 1
EndSplineSet
EndChar

StartChar: O
Encoding: 79 79 80
Width: 855
Flags: MW
HStem: -17 42<408 463 408 565.5> 663 40<566 654>
VStem: 160 137<178.5 229 178.5 329.5> 733 132<466 529>
LayerCount: 2
Fore
SplineSet
865 453 m 0
 865 242 707 -17 424 -17 c 0
 276 -17 160 59 160 229 c 0
 160 430 315 703 603 703 c 0
 741 703 865 633 865 453 c 0
733 501 m 0
 733 557 715 663 593 663 c 0
 539 663 453 637 388 530 c 0
 334 440 297 265 297 193 c 0
 297 164 300 111 330 72 c 0
 348 50 382 25 434 25 c 0
 492 25 565 54 629 148 c 0
 692 240 733 431 733 501 c 0
EndSplineSet
Position2: "'cpsp' Capital Spacing lookup 0 subtable" dx=7 dy=0 dh=14 dv=0
EndChar

StartChar: o
Encoding: 111 111 81
Width: 591
Flags: MW
HStem: -8 36<281.5 324.5 281.5 395.5> 416 36<377.5 420.5>
VStem: 107 109<108.5 135.5 80.5 222.5> 486 109<308.5 335.5 221 363.5>
LayerCount: 2
Fore
SplineSet
595 284 m 0
 595 158 494 -8 297 -8 c 0
 178 -8 107 57 107 160 c 0
 107 285 207 452 405 452 c 0
 524 452 595 387 595 284 c 0
435 124 m 0
 460 177 486 289 486 328 c 0
 486 399 438 416 403 416 c 0
 352 416 296 383 267 320 c 0
 242 267 216 155 216 116 c 0
 216 45 264 28 299 28 c 0
 350 28 406 61 435 124 c 0
EndSplineSet
EndChar

StartChar: one
Encoding: 49 49 82
Width: 591
Flags: MW
HStem: 0 47<159 171.5 437.5 462 462 469>
LayerCount: 2
Fore
SplineSet
494 29 m 0
 494 0 475 0 464 0 c 0
 411 0 356 3 302 3 c 0
 250 3 197 0 146 0 c 0
 126 0 124 13 124 18 c 0
 124 47 141 47 159 47 c 2
 190 47 l 2
 205 47 220 47 234 49 c 0
 256 51 257 52 261 67 c 2
 373 514 l 1
 330 494 282 485 256 485 c 0
 235 485 233 497 233 504 c 0
 233 530 250 531 258 532 c 0
 325 537 400 560 477 650 c 0
 483 656 487 661 497 661 c 0
 516 661 518 646 518 643 c 0
 518 640 517 636 515 630 c 2
 370 50 l 1
 397 47 398 47 429 47 c 2
 462 47 l 2
 476 47 494 47 494 29 c 0
EndSplineSet
Substitution2: "'pnum' Proportional Numbers lookup 6 subtable" one.prop
Substitution2: "'onum' Oldstyle Figures lookup 4 subtable" one.oldstyle
AlternateSubs2: "'aalt' Access All Alternates lookup 1 subtable" one.oldstyle one.prop
EndChar

StartChar: P
Encoding: 80 80 83
Width: 787
Flags: MW
HStem: 0 47<99 110.5 366 388 388 395> 302 41<384 499 499 535 380 499> 639 47<248.5 622 259 278 472.5 486 486 532>
VStem: 689 136<557 595.5 472.5 602.5>
LayerCount: 2
Fore
SplineSet
825 535 m 0
 825 410 700 302 535 302 c 2
 380 302 l 1
 317 49 l 1
 323 49 356 47 366 47 c 2
 388 47 l 2
 402 47 419 47 419 29 c 0
 419 0 400 0 391 0 c 0
 341 0 288 3 237 3 c 0
 187 3 135 0 86 0 c 0
 75 0 64 5 64 18 c 0
 64 47 82 47 99 47 c 2
 121 47 l 2
 133 47 149 48 161 49 c 0
 179 50 180 51 184 65 c 2
 327 637 l 1
 315 638 289 639 278 639 c 2
 256 639 l 2
 241 639 224 639 224 657 c 0
 224 686 242 686 259 686 c 2
 622 686 l 2
 710 686 825 656 825 535 c 0
689 566 m 0
 689 639 613 639 532 639 c 2
 486 639 l 2
 459 639 458 638 454 623 c 2
 384 343 l 1
 499 343 l 2
 593 343 629 381 639 397 c 0
 673 445 689 548 689 566 c 0
EndSplineSet
Position2: "'cpsp' Capital Spacing lookup 0 subtable" dx=7 dy=0 dh=14 dv=0
EndChar

StartChar: p
Encoding: 112 112 84
Width: 591
Flags: MW
HStem: -194 47<49.5 58 231 241.5> -8 36<316.5 341 310.5 412> 416 36<180 203 416.5 443.5>
VStem: 489 107<318 351.5 225 373.5>
LayerCount: 2
Fore
SplineSet
596 292 m 0
 596 158 496 -8 328 -8 c 0
 305 -8 269 -4 237 24 c 1
 195 -146 l 1
 208 -147 224 -147 238 -147 c 0
 248 -147 265 -148 265 -165 c 0
 265 -194 245 -194 238 -194 c 0
 204 -194 168 -191 133 -191 c 0
 104 -191 72 -194 44 -194 c 0
 35 -194 25 -188 25 -176 c 0
 25 -147 42 -147 57 -147 c 0
 87 -147 88 -146 92 -131 c 2
 210 342 l 2
 214 358 216 366 216 385 c 0
 216 408 209 416 197 416 c 0
 163 416 145 341 137 308 c 0
 130 283 129 282 105 282 c 0
 90 282 77 282 77 296 c 0
 77 300 90 356 116 398 c 0
 129 418 154 452 201 452 c 0
 240 452 285 436 304 401 c 1
 328 420 375 452 436 452 c 0
 512 452 596 411 596 292 c 0
443 140 m 0
 454 168 489 291 489 345 c 0
 489 402 455 416 432 416 c 0
 401 416 359 401 316 344 c 1
 315 336 315 333 313 326 c 2
 254 90 l 1
 265 50 293 28 328 28 c 0
 354 28 409 43 443 140 c 0
EndSplineSet
EndChar

StartChar: parenleft
Encoding: 40 40 85
Width: 473
Flags: MW
VStem: 169 83<59.5 86.5 -2.5 185>
LayerCount: 2
Fore
SplineSet
567 736 m 0
 567 730 563 726 561 725 c 2
 542 708 l 1
 316 516 252 157 252 16 c 0
 252 -21 255 -129 313 -215 c 0
 324 -229 324 -231 324 -235 c 0
 324 -249 310 -249 306 -249 c 0
 281 -249 225 -172 201 -111 c 0
 169 -30 169 45 169 74 c 0
 169 296 280 519 413 650 c 0
 450 686 528 750 549 750 c 0
 557 750 567 747 567 736 c 0
EndSplineSet
EndChar

StartChar: parenright
Encoding: 41 41 86
Width: 473
Flags: MW
VStem: 346 84<422 462 352.5 555>
LayerCount: 2
Fore
SplineSet
430 427 m 0
 430 278 369 27 173 -159 c 0
 146 -186 71 -249 49 -249 c 0
 43 -249 32 -247 32 -235 c 0
 32 -229 33 -228 51 -212 c 0
 291 -9 346 359 346 485 c 0
 346 625 299 695 280 724 c 0
 277 728 274 731 274 736 c 0
 274 747 284 750 292 750 c 0
 319 750 373 669 391 628 c 0
 418 565 430 497 430 427 c 0
EndSplineSet
EndChar

StartChar: percent
Encoding: 37 37 87
Width: 944
Flags: MW
HStem: -56 36<699 749.5 699 768> 311 36<751 818> 347 36<329.5 380.5 329.5 399.5> 611 35<651 695> 714 36<420.5 448.5 366 453.5>
VStem: 218 87<421.5 458.5 418.5 541> 478 54<591.5 629.5 572 638> 587 87<23 32 15 135> 847 54<187.5 242.5>
LayerCount: 2
Fore
SplineSet
946 719 m 0xbf80
 946 709 939 699 933 693 c 2
 228 -42 l 2
 220 -50 215 -56 202 -56 c 0
 189 -56 172 -47 172 -25 c 0
 172 -14 174 -11 188 3 c 2
 783 626 l 1
 782 626 l 1
 741 613 707 611 683 611 c 0
 597 611 541 645 531 651 c 1
 532 644 532 633 532 626 c 0
 532 518 462 347 337 347 c 0
 302 347 218 363 218 480 c 0
 218 602 302 750 430 750 c 0
 467 750 486 736 507 716 c 0
 553 670 618 646 684 646 c 0
 762 646 836 679 889 737 c 0
 894 742 902 750 915 750 c 0
 932 750 946 736 946 719 c 0xbf80
901 222 m 0
 901 113 830 -56 706 -56 c 0
 660 -56 587 -31 587 77 c 0
 587 193 667 347 800 347 c 0
 836 347 901 328 901 222 c 0
478 634 m 0
 478 642 477 714 430 714 c 0
 411 714 373 701 347 624 c 0
 337 594 305 482 305 435 c 0
 305 402 319 383 340 383 c 0
 421 383 478 549 478 634 c 0
847 230 m 0
 847 255 842 311 799 311 c 0x4080
 703 311 674 32 674 32 c 1
 674 -2 689 -20 709 -20 c 0
 790 -20 847 145 847 230 c 0
EndSplineSet
EndChar

StartChar: period
Encoding: 46 46 88
Width: 356
Flags: MW
HStem: 0 147<190.5 204.5>
VStem: 122 150<64.5 84>
LayerCount: 2
Fore
SplineSet
272 88 m 0
 272 41 227 0 182 0 c 0
 153 0 122 18 122 59 c 0
 122 109 170 147 211 147 c 0
 247 147 272 123 272 88 c 0
EndSplineSet
EndChar

StartChar: plus
Encoding: 43 43 89
Width: 886
Flags: MW
HStem: -102 21G<417.5 438> 220 61<188.5 482 196 467 545 816 196 530> 583 20G<575 593.5>
LayerCount: 2
Fore
SplineSet
859 250 m 0
 859 220 827 220 816 220 c 2
 530 220 l 1
 457 -72 l 2
 455 -80 450 -102 426 -102 c 0
 409 -102 395 -88 395 -71 c 0
 395 -68 396 -63 398 -56 c 2
 467 220 l 1
 196 220 l 2
 181 220 153 220 153 251 c 0
 153 281 182 281 196 281 c 2
 482 281 l 1
 555 572 l 2
 557 581 563 603 587 603 c 0
 600 603 617 593 617 572 c 0
 617 568 617 566 613 552 c 2
 545 281 l 1
 816 281 l 2
 828 281 859 281 859 250 c 0
EndSplineSet
EndChar

StartChar: Q
Encoding: 81 81 90
Width: 855
Flags: MW
HStem: -194 144<629.5 642 629.5 661> -17 40<426 442> 119 36<446.5 482.5> 663 40<564.5 621>
VStem: 160 129<162 219 162 329.5> 352 36<46 72 39 89.5> 736 129<475 503.5>
LayerCount: 2
Fore
SplineSet
771 0 m 0
 771 -15 722 -194 600 -194 c 0
 511 -194 510 -109 510 -77 c 0
 510 -63 513 -21 514 -7 c 1
 494 -12 460 -17 424 -17 c 0
 276 -17 160 59 160 229 c 0
 160 430 315 703 603 703 c 0
 741 703 865 633 865 453 c 0
 865 328 797 96 575 11 c 1
 594 -50 620 -50 639 -50 c 0
 645 -50 715 -50 735 3 c 0
 737 9 741 18 753 18 c 0
 763 18 771 10 771 0 c 0
736 493 m 0
 736 514 736 572 701 616 c 0
 684 636 649 663 593 663 c 0
 536 663 451 633 387 532 c 0
 322 428 289 248 289 190 c 0
 289 134 304 77 352 46 c 1
 352 133 431 155 462 155 c 0
 520 155 543 114 560 66 c 1
 709 170 736 457 736 493 c 0
516 41 m 1
 516 96 502 119 463 119 c 0
 425 119 388 89 388 55 c 0
 388 23 418 23 434 23 c 0
 472 23 508 37 516 41 c 1
EndSplineSet
Position2: "'cpsp' Capital Spacing lookup 0 subtable" dx=7 dy=0 dh=14 dv=0
EndChar

StartChar: q
Encoding: 113 113 91
Width: 532
Flags: MW
HStem: -194 47<268 277 268 278 466 476.5> -8 36<258.5 288.5> 416 36<361 387 290 391.5>
VStem: 106 107<92.5 126 70.5 219> 241 259<-178.5 -161.5>
LayerCount: 2
Fore
SplineSet
500 -165 m 0
 500 -194 480 -194 473 -194 c 0
 438 -194 401 -191 365 -191 c 0
 331 -191 295 -194 261 -194 c 0
 244 -194 241 -181 241 -176 c 0
 241 -147 259 -147 277 -147 c 2
 277 -147 298 -147 311 -146 c 0
 323 -145 324 -144 327 -130 c 2
 364 20 l 1
 348 10 311 -8 266 -8 c 0
 190 -8 106 33 106 152 c 0
 106 286 206 452 374 452 c 0
 400 452 439 447 471 414 c 1
 500 439 556 452 556 452 c 1
 571 452 574 438 574 434 c 0
 574 430 573 424 572 420 c 2
 430 -146 l 1
 443 -147 459 -147 473 -147 c 0
 483 -147 500 -148 500 -165 c 0
387 110 m 2
 448 354 l 1
 437 394 409 416 374 416 c 0
 348 416 293 401 259 304 c 0
 248 276 213 153 213 99 c 0
 213 42 247 28 270 28 c 0
 320 28 378 75 387 110 c 2
EndSplineSet
EndChar

StartChar: question
Encoding: 63 63 92
Width: 591
Flags: MW
HStem: 0 147<306.5 322> 219 36<351.5 364 351.5 395> 675 36<435 478>
VStem: 214 120<494.5 523> 556 58<592 624 553.5 639.5>
LayerCount: 2
Fore
SplineSet
614 587 m 0
 614 520 578 459 505 411 c 2
 382 332 l 2
 362 319 341 305 341 273 c 0
 341 263 346 255 357 255 c 0
 371 255 416 264 434 313 c 0
 439 327 442 327 462 327 c 0
 478 327 490 327 490 313 c 0
 490 280 435 219 355 219 c 0
 337 219 284 225 284 293 c 0
 284 321 293 375 349 411 c 2
 493 505 l 2
 544 538 556 578 556 606 c 0
 556 673 487 675 469 675 c 0
 401 675 337 628 296 561 c 1
 299 560 334 553 334 514 c 0
 334 475 300 444 264 444 c 0
 234 444 214 463 214 490 c 0
 214 556 315 711 470 711 c 0
 562 711 614 661 614 587 c 0
389 87 m 0
 389 39 343 0 301 0 c 0
 266 0 239 24 239 60 c 0
 239 109 286 147 327 147 c 0
 365 147 389 120 389 87 c 0
EndSplineSet
EndChar

StartChar: quotedbl
Encoding: 34 34 93
Width: 518
Flags: MW
HStem: 422 21G<255 311 255 255 417 417 417 473> 683 20G<338.5 369 500.5 531>
LayerCount: 2
Fore
SplineSet
393 650 m 2
 311 422 l 1
 255 422 l 1
 287 650 l 2
 291 679 323 703 354 703 c 0
 384 703 404 679 393 650 c 2
555 650 m 2
 473 422 l 1
 417 422 l 1
 449 650 l 2
 453 679 485 703 516 703 c 0
 546 703 566 679 555 650 c 2
EndSplineSet
EndChar

StartChar: quotesingle
Encoding: 39 39 94
Width: 356
Flags: MW
HStem: 422 21G<255 311 255 255> 683 20G<338.5 369>
LayerCount: 2
Fore
SplineSet
393 650 m 2
 311 422 l 1
 255 422 l 1
 287 650 l 2
 291 679 323 703 354 703 c 0
 384 703 404 679 393 650 c 2
EndSplineSet
EndChar

StartChar: R
Encoding: 82 82 95
Width: 859
Flags: MW
HStem: 0 47<99 110 360.5 382 382 389> 325 36<389 486 380 488> 639 47<248.5 589 259 278 469 480 480 525>
VStem: 570 134<239 251 228 286>
CounterMasks: 1 e0
LayerCount: 2
Fore
SplineSet
850 99 m 0
 850 86 817 -17 716 -17 c 0
 683 -17 540 -14 540 95 c 0
 540 111 542 120 555 172 c 0
 562 197 570 231 570 247 c 0
 570 325 501 325 486 325 c 2
 380 325 l 1
 311 49 l 1
 317 49 350 47 360 47 c 2
 382 47 l 2
 396 47 413 47 413 29 c 0
 413 0 394 0 385 0 c 0
 336 0 284 3 234 3 c 0
 185 3 134 0 86 0 c 0
 75 0 64 5 64 18 c 0
 64 47 82 47 99 47 c 2
 121 47 l 2
 133 47 149 48 161 49 c 0
 179 50 180 51 184 65 c 2
 327 637 l 1
 315 638 289 639 278 639 c 2
 256 639 l 2
 241 639 224 639 224 657 c 0
 224 686 242 686 259 686 c 2
 589 686 l 2
 694 686 825 652 825 535 c 0
 825 444 740 368 623 339 c 1
 683 313 704 271 704 231 c 0
 704 225 704 221 697 181 c 0
 684 99 684 91 684 75 c 0
 684 49 686 19 722 19 c 0
 751 19 777 48 793 97 c 0
 799 117 803 117 822 117 c 0
 833 117 850 117 850 99 c 0
687 561 m 0
 687 639 603 639 525 639 c 2
 480 639 l 2
 458 639 458 638 454 623 c 2
 389 361 l 1
 488 361 l 2
 539 361 591 370 631 403 c 0
 672 439 687 540 687 561 c 0
EndSplineSet
Position2: "'cpsp' Capital Spacing lookup 0 subtable" dx=7 dy=0 dh=14 dv=0
EndChar

StartChar: r
Encoding: 114 114 96
Width: 502
Flags: MW
HStem: -8 21G<169.5 183.5> 416 36<180 203 416 437.5>
VStem: 440 122<319.5 389.5>
LayerCount: 2
Fore
SplineSet
562 363 m 0
 562 318 528 286 490 286 c 0
 459 286 440 307 440 332 c 0
 440 336 441 378 487 399 c 1
 467 415 443 416 432 416 c 0
 362 416 317 341 311 318 c 2
 243 46 l 2
 230 -6 187 -8 180 -8 c 0
 159 -8 135 4 135 35 c 0
 135 40 135 42 139 57 c 2
 210 342 l 2
 214 358 216 366 216 385 c 0
 216 408 209 416 197 416 c 0
 163 416 145 341 137 308 c 0
 130 283 129 282 105 282 c 0
 90 282 77 282 77 296 c 0
 77 300 90 356 116 398 c 0
 129 418 154 452 201 452 c 0
 250 452 290 429 307 398 c 1
 350 441 397 452 435 452 c 0
 508 452 562 416 562 363 c 0
EndSplineSet
EndChar

StartChar: S
Encoding: 83 83 97
Width: 650
Flags: MW
HStem: -17 47<321.5 411.5 321.5 439.5> 660 43<411.5 498 379.5 503.5>
VStem: 209 107<487.5 503> 510 106<196 223.5> 597 106
LayerCount: 2
Fore
SplineSet
616 251 m 0x68
 616 141 528 -17 351 -17 c 0
 272 -17 214 6 182 38 c 1
 120 -14 159 17 128 -8 c 0
 119 -16 118 -17 108 -17 c 0
 104 -17 90 -17 90 -3 c 2
 90 -3 91 4 92 9 c 2
 142 209 l 2
 147 228 149 228 172 228 c 0
 186 228 199 228 199 214 c 2
 199 214 199 208 198 205 c 0
 194 190 192 175 192 159 c 0
 192 54 288 30 355 30 c 0
 468 30 510 138 510 189 c 0x90
 510 258 463 270 424 279 c 0
 392 288 390 288 360 295 c 0
 311 307 271 317 240 359 c 0
 219 388 209 420 209 456 c 0
 209 550 291 703 468 703 c 0
 528 703 572 687 607 654 c 0
 611 651 612 650 612 650 c 1
 664 694 l 2
 674 702 674 703 684 703 c 0
 690 703 703 703 703 688 c 0
 703 685 702 683 699 670 c 2
 651 478 l 2
 646 458 644 458 621 458 c 0
 605 458 593 458 593 473 c 0
 593 476 597 500 597 521 c 0
 597 621 541 660 466 660 c 0
 357 660 316 565 316 519 c 0
 316 456 368 443 385 439 c 2
 453 422 l 2
 517 406 548 399 579 362 c 0
 616 317 616 272 616 251 c 0x68
EndSplineSet
Position2: "'cpsp' Capital Spacing lookup 0 subtable" dx=7 dy=0 dh=14 dv=0
EndChar

StartChar: s
Encoding: 115 115 98
Width: 487
Flags: MW
HStem: -8 36<243.5 261> 416 36<312 354>
VStem: 85 121<100 115.5> 389 97
LayerCount: 2
Fore
SplineSet
465 164 m 0
 465 131 445 68 393 31 c 0
 339 -7 275 -8 247 -8 c 0
 150 -8 85 28 85 91 c 0
 85 140 120 169 157 169 c 0
 174 169 206 161 206 123 c 0
 206 77 164 58 157 55 c 1
 190 28 237 28 250 28 c 0
 389 28 389 124 389 124 c 1
 389 170 336 180 284 190 c 0
 253 196 167 213 167 298 c 0
 167 329 187 382 220 410 c 0
 238 425 273 452 351 452 c 0
 430 452 486 419 486 364 c 0
 486 315 449 295 424 295 c 0
 399 295 380 311 380 336 c 0
 380 339 380 375 418 392 c 1
 395 416 359 416 349 416 c 0
 243 416 243 338 243 338 c 1
 243 301 284 293 314 287 c 0
 367 277 392 272 421 249 c 0
 458 220 465 186 465 164 c 0
EndSplineSet
EndChar

StartChar: semicolon
Encoding: 59 59 99
Width: 356
Flags: MW
HStem: 0 147<184 192.5> 297 147<263.5 278.5>
VStem: 121 147<46 78.5>
LayerCount: 2
Fore
SplineSet
346 384 m 0
 346 337 300 297 257 297 c 0
 221 297 196 321 196 356 c 0
 196 403 241 444 286 444 c 0
 312 444 346 429 346 384 c 0
268 74 m 0
 268 -62 128 -194 107 -194 c 0
 97 -194 89 -183 89 -174 c 0
 89 -167 92 -165 100 -158 c 0
 130 -134 190 -80 219 8 c 1
 219 8 203 0 182 0 c 0
 135 0 121 34 121 58 c 0
 121 99 158 147 210 147 c 0
 254 147 268 114 268 74 c 0
EndSplineSet
EndChar

StartChar: seven
Encoding: 55 55 100
Width: 591
Flags: MW
HStem: -17 21G<337 382.5> 526 36<513 530.5> 641 20G<266 284.5 408.5 439.5 668 685>
LayerCount: 2
Fore
SplineSet
706 647 m 0
 706 643 706 641 694 627 c 0
 667 591 606 511 550 391 c 0
 503 291 467 195 430 53 c 0
 425 36 412 -17 353 -17 c 0
 321 -17 301 5 301 32 c 0
 301 41 319 137 398 285 c 0
 452 388 530 494 557 531 c 1
 543 527 541 526 520 526 c 0
 496 526 480 533 457 543 c 0
 434 552 423 556 405 556 c 0
 341 556 248 523 203 448 c 0
 193 431 192 430 171 430 c 0
 157 430 143 430 143 444 c 0
 143 447 144 450 150 461 c 2
 245 645 l 2
 253 661 256 661 276 661 c 0
 293 661 304 661 304 647 c 0
 304 641 294 622 291 617 c 1
 342 651 393 661 424 661 c 0
 455 661 472 648 486 605 c 0
 498 572 504 562 522 562 c 0
 574 562 624 620 647 648 c 0
 657 660 658 661 678 661 c 0
 692 661 706 661 706 647 c 0
EndSplineSet
Substitution2: "'pnum' Proportional Numbers lookup 6 subtable" seven.prop
Substitution2: "'onum' Oldstyle Figures lookup 4 subtable" seven.oldstyle
AlternateSubs2: "'aalt' Access All Alternates lookup 1 subtable" seven.oldstyle seven.prop
EndChar

StartChar: six
Encoding: 54 54 101
Width: 591
Flags: MW
HStem: -17 43<275.5 335 275.5 388> 388 36<403.5 425> 622 39<484 523.5>
VStem: 132 105<113.5 114.5 83.5 192> 505 123<538 540.5>
LayerCount: 2
Fore
SplineSet
577 272 m 0
 577 141 478 -17 298 -17 c 0
 181 -17 132 58 132 169 c 0
 132 215 149 398 250 524 c 0
 337 632 444 661 514 661 c 0
 608 661 628 605 628 569 c 0
 628 507 590 480 555 480 c 0
 519 480 505 503 505 526 c 0
 505 555 526 588 566 596 c 1
 556 616 534 622 513 622 c 0
 455 622 398 582 369 543 c 0
 347 514 322 474 293 360 c 1
 344 424 394 424 413 424 c 0
 549 424 577 322 577 272 c 0
414 114 m 0
 425 143 464 286 464 331 c 0
 464 363 447 388 403 388 c 0
 271 388 237 132 237 97 c 0
 237 70 250 26 301 26 c 0
 369 26 399 75 414 114 c 0
EndSplineSet
Substitution2: "'pnum' Proportional Numbers lookup 6 subtable" six.prop
Substitution2: "'onum' Oldstyle Figures lookup 4 subtable" six.oldstyle
AlternateSubs2: "'aalt' Access All Alternates lookup 1 subtable" six.oldstyle six.prop
EndChar

StartChar: slash
Encoding: 47 47 102
Width: 591
Flags: MW
HStem: -250 21G<57.5 74.5> 730 20G<641.5 658.5>
LayerCount: 2
Fore
SplineSet
681 719 m 0
 681 711 677 705 671 695 c 2
 97 -227 l 2
 90 -238 83 -250 66 -250 c 0
 49 -250 35 -236 35 -219 c 0
 35 -211 39 -205 45 -195 c 2
 619 727 l 2
 626 738 633 750 650 750 c 0
 667 750 681 736 681 719 c 0
EndSplineSet
EndChar

StartChar: T
Encoding: 84 84 104
Width: 796
Flags: MW
HStem: 0 47<203 261 595 601.5> 628 47<379.5 456 639 674 639 639>
LayerCount: 2
Fore
SplineSet
842 460 m 2
 838 434 830 434 812 434 c 0
 801 434 784 434 784 453 c 2
 784 453 784 457 786 467 c 0
 788 477 794 516 794 547 c 0
 794 610 771 628 674 628 c 2
 639 628 l 2
 624 627 623 627 619 612 c 2
 479 50 l 1
 499 48 529 47 550 47 c 2
 594 47 l 2
 609 47 626 47 626 29 c 0
 626 0 609 0 595 0 c 2
 398 3 l 1
 205 0 l 2
 201 0 181 0 181 18 c 0
 181 47 199 47 216 47 c 2
 261 47 l 2
 310 47 339 51 343 52 c 2
 486 627 l 1
 470 628 468 628 444 628 c 0
 315 628 287 591 240 455 c 0
 233 435 230 434 210 434 c 0
 200 434 182 434 182 452 c 0
 182 458 194 492 201 512 c 2
 251 656 l 2
 258 675 262 675 284 675 c 2
 840 675 l 2
 856 675 872 675 872 656 c 2
 872 656 872 652 870 641 c 2
 842 460 l 2
EndSplineSet
Position2: "'cpsp' Capital Spacing lookup 0 subtable" dx=7 dy=0 dh=14 dv=0
EndChar

StartChar: t
Encoding: 116 116 105
Width: 385
Flags: MW
HStem: -8 36<238.5 256 238.5 295.5> 397 47<115.5 207 126 195 314 382> 623 20G<299.5 320>
VStem: 91 131
LayerCount: 2
Fore
SplineSet
419 148 m 0
 419 131 353 -8 238 -8 c 0
 178 -8 121 26 121 89 c 0
 121 95 121 102 125 118 c 2
 195 397 l 1
 123 397 l 2
 108 397 91 397 91 415 c 0
 91 444 108 444 126 444 c 2
 207 444 l 1
 243 590 l 2
 255 637 293 643 306 643 c 0
 334 643 351 624 351 601 c 0
 351 593 340 549 333 523 c 2
 314 444 l 1
 385 444 l 2
 399 444 416 444 416 426 c 0
 416 397 399 397 382 397 c 2
 302 397 l 1
 228 102 l 2
 224 86 222 78 222 59 c 0
 222 29 234 28 243 28 c 0
 269 28 318 46 360 145 c 0
 368 161 369 162 391 162 c 0
 406 162 419 162 419 148 c 0
EndSplineSet
EndChar

StartChar: three
Encoding: 51 51 106
Width: 591
Flags: MW
HStem: -17 36<246 298.5 246 353.5> 311 47<326.5 366 338 366 366 368> 412 36<279.5 299 279.5 309> 625 36<405.5 472>
VStem: 108 123<150 157> 231 37 342 37<485.5 505.5> 438 109<146 280.5>
LayerCount: 2
Fore
SplineSet
628 527 m 0xf7
 628 467 590 368 475 328 c 1
 520 306 547 265 547 206 c 0
 547 86 438 -17 269 -17 c 0
 171 -17 108 39 108 116 c 0x89
 108 198 166 206 181 206 c 0
 214 206 231 183 231 160 c 0
 231 140 217 97 167 90 c 1
 179 40 224 19 268 19 c 0
 329 19 376 51 396 90 c 0
 422 139 438 229 438 250 c 0
 438 311 387 311 368 311 c 2
 336 311 l 2
 317 311 304 311 304 326 c 1
 304 326 308 348 312 352 c 0
 315 357 316 358 338 358 c 2
 366 358 l 2
 395 358 451 358 487 412 c 0
 512 448 529 534 529 559 c 0
 529 613 490 625 454 625 c 0
 357 625 268 548 268 476 c 0
 268 463 272 448 287 448 c 0
 311 448 342 471 342 500 c 0
 342 511 337 521 332 529 c 0
 330 531 326 536 326 541 c 0
 326 546 329 551 334 554 c 0
 337 558 342 561 347 561 c 0
 362 561 379 524 379 502 c 0
 379 456 334 412 284 412 c 0
 244 412 213 439 213 483 c 0
 213 562 315 661 458 661 c 0
 559 661 628 615 628 527 c 0xf7
EndSplineSet
Substitution2: "'pnum' Proportional Numbers lookup 6 subtable" three.prop
Substitution2: "'onum' Oldstyle Figures lookup 4 subtable" three.oldstyle
AlternateSubs2: "'aalt' Access All Alternates lookup 1 subtable" three.oldstyle three.prop
EndChar

StartChar: two
Encoding: 50 50 107
Width: 591
Flags: MW
HStem: 66 36<203 219> 346 36<239.5 271.5 239.5 281.5> 625 36<367.5 444>
VStem: 170 54<399 447 396.5 460.5> 342 36<483.5 503.5> 509 109<537.5 552 439.5 573>
LayerCount: 2
Fore
SplineSet
601 168 m 0
 601 141 537 -17 411 -17 c 0
 367 -17 332 5 300 25 c 0
 268 46 236 66 202 66 c 0
 180 66 163 51 147 -3 c 0
 143 -17 139 -17 118 -17 c 0
 104 -17 91 -17 91 -3 c 0
 91 12 130 160 306 252 c 0
 351 275 413 310 460 373 c 0
 504 434 509 536 509 539 c 0
 509 607 463 625 425 625 c 0
 310 625 224 484 224 410 c 0
 224 383 236 382 243 382 c 0
 300 382 342 469 342 498 c 0
 342 509 337 520 331 530 c 0
 329 533 326 537 326 541 c 0
 326 546 329 551 334 554 c 0
 337 558 342 561 347 561 c 0
 362 561 378 526 378 500 c 0
 378 454 324 346 239 346 c 0
 197 346 170 377 170 421 c 0
 170 500 273 661 430 661 c 0
 534 661 618 608 618 496 c 0
 618 383 556 320 352 216 c 0
 322 201 255 167 203 102 c 1
 238 102 275 100 319 95 c 0
 330 94 392 88 424 88 c 0
 489 88 530 126 544 167 c 0
 549 182 550 183 573 183 c 0
 588 183 601 183 601 168 c 0
EndSplineSet
Substitution2: "'pnum' Proportional Numbers lookup 6 subtable" two.prop
Substitution2: "'onum' Oldstyle Figures lookup 4 subtable" two.oldstyle
AlternateSubs2: "'aalt' Access All Alternates lookup 1 subtable" two.oldstyle two.prop
EndChar

StartChar: U
Encoding: 85 85 108
Width: 881
Flags: MW
HStem: -17 47<448 518 448 552> 639 47<248.5 256 256 278 545 553.5 732 743.5 953 964>
VStem: 218 128<120.5 150 120.5 186> 708 280<653.5 671.5>
LayerCount: 2
Fore
SplineSet
988 668 m 0
 988 639 971 639 957 639 c 0
 949 639 923 639 900 634 c 0
 871 628 870 625 866 610 c 2
 769 220 l 2
 744 119 646 -17 458 -17 c 0
 312 -17 218 52 218 173 c 0
 218 199 223 224 225 231 c 2
 327 637 l 1
 315 638 289 639 278 639 c 2
 256 639 l 2
 241 639 224 639 224 657 c 0
 224 686 243 686 253 686 c 0
 303 686 356 683 407 683 c 0
 457 683 508 686 557 686 c 0
 568 686 579 681 579 668 c 0
 579 639 562 639 545 639 c 2
 483 638 l 2
 464 636 463 635 459 620 c 2
 358 215 l 2
 351 185 346 167 346 133 c 0
 346 108 350 77 378 54 c 0
 400 37 433 30 463 30 c 0
 573 30 675 93 710 233 c 2
 809 629 l 1
 784 639 748 639 739 639 c 0
 725 639 708 639 708 657 c 0
 708 686 728 686 735 686 c 0
 774 686 815 683 854 683 c 0
 892 683 931 686 968 686 c 0
 979 686 988 679 988 668 c 0
EndSplineSet
Position2: "'cpsp' Capital Spacing lookup 0 subtable" dx=7 dy=0 dh=14 dv=0
EndChar

StartChar: u
Encoding: 117 117 109
Width: 621
Flags: MW
HStem: -8 36<290 323 529 552> 416 36<196.5 227.5>
VStem: 239 96<387.5 391 354.5 407>
LayerCount: 2
Fore
SplineSet
655 148 m 0
 655 144 642 88 616 46 c 0
 603 26 578 -8 531 -8 c 0
 492 -8 447 8 428 43 c 1
 379 -3 337 -8 309 -8 c 0
 226 -8 161 27 161 118 c 0
 161 174 189 246 221 332 c 0
 227 346 239 377 239 398 c 0
 239 416 230 416 225 416 c 0
 168 416 141 321 133 295 c 0
 129 282 124 282 105 282 c 0
 90 282 77 282 77 296 c 0
 77 317 126 452 230 452 c 0
 284 452 335 419 335 363 c 0
 335 346 330 334 321 309 c 0
 297 246 263 157 263 97 c 0
 263 75 265 28 315 28 c 0
 345 28 370 44 384 57 c 0
 412 85 413 89 417 107 c 2
 486 388 l 2
 498 438 537 444 550 444 c 0
 571 444 595 432 595 401 c 0
 595 396 595 394 591 379 c 2
 522 102 l 2
 518 86 516 78 516 59 c 0
 516 36 523 28 535 28 c 0
 569 28 587 103 595 136 c 0
 602 161 603 162 627 162 c 0
 642 162 655 162 655 148 c 0
EndSplineSet
EndChar

StartChar: underscore
Encoding: 95 95 110
Width: 866
Flags: MW
HStem: -153 56<-46 841 -24 827>
LayerCount: 2
Fore
SplineSet
862 -125 m 0
 858 -140 843 -153 827 -153 c 2
 -38 -153 l 2
 -54 -153 -63 -140 -59 -125 c 0
 -55 -110 -40 -97 -24 -97 c 2
 841 -97 l 2
 857 -97 866 -110 862 -125 c 0
EndSplineSet
EndChar

StartChar: V
Encoding: 86 86 111
Width: 866
Flags: MW
HStem: -17 21G<412.5 440> 639 47<243 250 250 261 503.5 521 747.5 751.5 945 954.5>
VStem: 218 330<653.5 671.5> 724 255<653.5 671.5>
LayerCount: 2
Fore
SplineSet
979 668 m 0
 979 639 961 639 948 639 c 0
 932 639 883 638 866 613 c 0
 864 611 863 610 857 601 c 2
 476 6 l 2
 461 -17 451 -17 429 -17 c 0
 396 -17 396 -12 392 14 c 2
 308 621 l 2
 306 636 305 636 292 638 c 0
 282 639 271 639 261 639 c 2
 250 639 l 2
 236 639 218 639 218 657 c 0
 218 686 238 686 246 686 c 0
 289 686 335 683 379 683 c 0
 428 683 478 686 526 686 c 0
 537 686 548 681 548 668 c 0
 548 639 531 639 511 639 c 0
 496 639 465 638 446 634 c 1
 511 163 l 1
 808 629 l 1
 784 638 753 639 750 639 c 0
 741 639 724 639 724 657 c 0
 724 686 744 686 751 686 c 0
 788 686 828 683 866 683 c 0
 897 683 930 686 960 686 c 0
 973 686 979 676 979 668 c 0
EndSplineSet
Position2: "'cpsp' Capital Spacing lookup 0 subtable" dx=7 dy=0 dh=14 dv=0
EndChar

StartChar: v
Encoding: 118 118 112
Width: 532
Flags: MW
HStem: -8 36<300 384 300 410> 416 36<196.5 227.5>
VStem: 239 96<387.5 391 354.5 407> 419 136<369 399>
LayerCount: 2
Fore
SplineSet
555 365 m 0
 555 313 499 -8 321 -8 c 0
 259 -8 162 9 162 122 c 0
 162 173 183 231 221 332 c 0
 227 346 239 377 239 398 c 0
 239 416 230 416 225 416 c 0
 168 416 141 321 133 295 c 0
 129 282 124 282 105 282 c 0
 90 282 77 282 77 296 c 0
 77 317 126 452 230 452 c 0
 284 452 335 419 335 363 c 0
 335 346 331 335 321 310 c 0
 296 244 264 159 264 103 c 0
 264 72 272 28 328 28 c 0
 440 28 482 270 482 274 c 0
 482 304 463 325 443 339 c 0
 433 347 419 357 419 381 c 0
 419 417 456 453 491 453 c 0
 510 453 555 439 555 365 c 0
EndSplineSet
EndChar

StartChar: W
Encoding: 87 87 113
Width: 1160
Flags: MW
HStem: -17 21G<372.5 396 753.5 775> 639 47<241.5 249 249 256 494.5 512 619.5 627 627 634 872 889.5 1043 1045.5 1242 1249.5>
VStem: 217 323<653.5 671.5> 595 322<653.5 668 653.5 671.5> 1019 255<654 671.5 654 671.5>
LayerCount: 2
Fore
SplineSet
1274 668 m 0
 1274 640 1257 639 1242 639 c 0
 1185 637 1172 623 1160 602 c 2
 810 9 l 2
 795 -16 785 -17 765 -17 c 0
 742 -17 735 -16 732 12 c 2
 692 449 l 1
 431 7 l 2
 417 -17 405 -17 387 -17 c 0
 358 -17 357 -11 355 14 c 2
 298 637 l 1
 279 639 273 639 256 639 c 2
 249 639 l 2
 234 639 217 639 217 657 c 0
 217 686 237 686 245 686 c 0
 286 686 331 683 373 683 c 0
 421 683 471 686 518 686 c 0
 529 686 540 681 540 668 c 0
 540 639 523 639 501 639 c 0
 481 639 455 638 436 634 c 1
 477 185 l 1
 684 536 l 1
 675 637 l 1
 662 638 647 639 634 639 c 2
 627 639 l 2
 612 639 595 639 595 657 c 0
 595 686 614 686 623 686 c 0
 664 686 708 683 750 683 c 0
 798 683 848 686 896 686 c 0
 917 686 917 668 917 668 c 1
 917 639 901 639 878 639 c 0
 858 639 832 637 813 634 c 1
 854 185 l 1
 1116 627 l 1
 1116 628 l 1
 1088 638 1047 639 1044 639 c 0
 1037 639 1019 639 1019 657 c 0
 1019 686 1039 686 1047 686 c 0
 1086 686 1127 683 1167 683 c 0
 1196 683 1227 686 1255 686 c 0
 1268 686 1274 675 1274 668 c 0
EndSplineSet
Position2: "'cpsp' Capital Spacing lookup 0 subtable" dx=7 dy=0 dh=14 dv=0
EndChar

StartChar: w
Encoding: 119 119 114
Width: 768
Flags: MW
HStem: -8 36<300.5 352.5 300.5 354.5 551 599.5> 416 36<196.5 227.5>
VStem: 239 96<387.5 391 354.5 407> 412 102<117 120.5 87.5 136> 655 136<369 399>
LayerCount: 2
Fore
SplineSet
791 365 m 0
 791 315 759 191 729 122 c 0
 694 42 645 -8 572 -8 c 0
 530 -8 470 0 436 43 c 1
 414 15 379 -8 330 -8 c 0
 260 -8 162 13 162 124 c 0
 162 175 184 235 221 332 c 0
 227 346 239 377 239 398 c 0
 239 416 230 416 225 416 c 0
 168 416 141 321 133 295 c 0
 129 282 124 282 105 282 c 0
 90 282 77 282 77 296 c 0
 77 317 126 452 230 452 c 0
 284 452 335 419 335 363 c 0
 335 346 330 333 323 316 c 0
 292 232 265 162 265 106 c 0
 265 89 265 28 336 28 c 0
 369 28 395 55 414 98 c 1
 412 107 412 112 412 122 c 0
 412 150 426 204 436 244 c 2
 470 380 l 2
 474 399 486 444 535 444 c 0
 556 444 580 432 580 401 c 0
 580 391 574 367 565 334 c 0
 538 230 514 138 514 103 c 0
 514 72 522 28 578 28 c 0
 621 28 650 62 671 111 c 0
 694 164 718 259 718 274 c 0
 718 304 699 325 679 339 c 0
 669 347 655 357 655 381 c 0
 655 417 692 453 727 453 c 0
 746 453 791 439 791 365 c 0
EndSplineSet
EndChar

StartChar: X
Encoding: 88 88 115
Width: 866
Flags: MW
HStem: 0 47<92.5 102 92.5 104 330 333 501 507 768 780 780 787.5> 639 47<264.5 272 272 284 545 552 660.5 664.5 889 902>
VStem: 66 290<15.5 32.5> 637 290<653.5 671.5>
LayerCount: 2
Fore
SplineSet
812 29 m 0
 812 0 794 0 784 0 c 0
 740 0 694 3 649 3 c 0
 600 3 549 0 500 0 c 0
 480 0 478 13 478 18 c 0
 478 46 497 47 505 47 c 0
 509 47 537 48 568 54 c 1
 476 281 l 1
 271 58 l 1
 297 48 326 47 334 47 c 0
 338 47 356 46 356 29 c 0
 356 0 338 0 328 0 c 0
 285 0 240 3 197 3 c 0
 160 3 122 0 86 0 c 0
 69 0 66 13 66 18 c 0
 66 47 83 47 102 47 c 0
 170 48 199 61 222 85 c 2
 454 337 l 1
 338 623 l 2
 333 635 332 636 317 638 c 0
 308 639 293 639 284 639 c 2
 272 639 l 2
 257 639 240 639 240 657 c 0
 240 686 260 686 268 686 c 0
 312 686 358 683 403 683 c 0
 452 683 503 686 552 686 c 0
 564 686 574 681 574 668 c 0
 574 639 557 639 547 639 c 0
 543 639 518 639 484 632 c 1
 558 449 l 1
 723 628 l 1
 700 637 666 639 663 639 c 0
 654 639 637 640 637 657 c 0
 637 686 656 686 665 686 c 0
 708 686 753 683 796 683 c 0
 833 683 871 686 907 686 c 0
 919 686 927 679 927 668 c 0
 927 639 911 639 893 639 c 0
 829 639 795 627 771 601 c 2
 580 394 l 1
 714 63 l 2
 719 51 720 50 735 48 c 0
 744 47 759 47 768 47 c 2
 780 47 l 2
 795 47 812 47 812 29 c 0
EndSplineSet
Position2: "'cpsp' Capital Spacing lookup 0 subtable" dx=7 dy=0 dh=14 dv=0
EndChar

StartChar: x
Encoding: 120 120 116
Width: 561
Flags: MW
HStem: -8 36<177.5 199.5 177.5 202.5 383.5 430.5> 416 36<242 287.5 483.5 494.5>
VStem: 68 122<54 124.5> 482 122<319.5 390.5>
LayerCount: 2
Fore
SplineSet
595 148 m 0
 595 116 529 -8 404 -8 c 0
 349 -8 302 11 279 45 c 1
 263 26 228 -8 177 -8 c 0
 116 -8 68 28 68 80 c 0
 68 126 102 158 140 158 c 0
 171 158 190 137 190 112 c 0
 190 108 190 63 139 44 c 1
 154 28 176 28 179 28 c 0
 220 28 245 73 259 128 c 2
 291 258 l 2
 300 294 313 346 313 367 c 0
 313 378 313 416 262 416 c 0
 222 416 160 382 134 296 c 0
 129 282 125 282 105 282 c 0
 90 282 77 282 77 296 c 0
 77 328 143 452 267 452 c 0
 326 452 370 431 393 399 c 1
 433 446 472 452 495 452 c 0
 554 452 604 417 604 364 c 0
 604 317 569 286 532 286 c 0
 501 286 482 307 482 332 c 0
 482 336 482 381 533 400 c 1
 517 416 497 416 492 416 c 0
 452 416 424 365 415 327 c 2
 361 105 l 2
 358 93 358 83 358 77 c 0
 358 67 358 28 409 28 c 0
 452 28 512 64 538 148 c 0
 543 162 547 162 567 162 c 0
 582 162 595 162 595 148 c 0
EndSplineSet
EndChar

StartChar: Y
Encoding: 89 89 117
Width: 866
Flags: MW
HStem: 0 47<299 310 560.5 582 582 589.5> 639 47<237 244 244 256 508.5 526.5 751 761.5 955 961>
VStem: 727 258<653.5 671.5>
LayerCount: 2
Fore
SplineSet
985 668 m 0
 985 639 967 639 955 639 c 0
 882 638 866 620 848 599 c 2
 567 274 l 1
 511 49 l 1
 523 48 549 47 560 47 c 2
 582 47 l 2
 597 47 614 47 614 29 c 0
 614 0 595 0 585 0 c 0
 536 0 484 3 434 3 c 0
 385 3 334 0 286 0 c 0
 275 0 264 5 264 18 c 0
 264 47 282 47 299 47 c 2
 321 47 l 2
 332 47 350 47 361 48 c 0
 380 51 381 52 385 66 c 2
 437 274 l 1
 309 623 l 2
 304 635 303 636 289 638 c 0
 280 639 265 639 256 639 c 2
 244 639 l 2
 230 639 212 639 212 657 c 0
 212 686 232 686 240 686 c 0
 285 686 332 683 378 683 c 0
 428 683 480 686 529 686 c 0
 539 686 551 682 551 668 c 0
 551 639 533 639 520 639 c 0
 497 639 483 638 459 635 c 1
 562 351 l 1
 803 631 l 1
 787 637 770 639 753 639 c 0
 745 639 727 639 727 657 c 0
 727 686 747 686 755 686 c 0
 792 686 832 683 870 683 c 0
 902 683 935 686 966 686 c 0
 979 686 985 676 985 668 c 0
EndSplineSet
Position2: "'cpsp' Capital Spacing lookup 0 subtable" dx=7 dy=0 dh=14 dv=0
EndChar

StartChar: y
Encoding: 121 121 118
Width: 562
Flags: MW
HStem: -202 36<230.5 273.5 230.5 297> -8 36<290 329> 416 36<196.5 227.5>
VStem: 107 121<-104 -93.5> 239 96<387.5 391 354.5 407>
LayerCount: 2
Fore
SplineSet
495 -7 m 2
 471 -104 360 -202 234 -202 c 0
 160 -202 107 -168 107 -115 c 0
 107 -72 139 -39 179 -39 c 0
 197 -39 228 -47 228 -85 c 0
 228 -123 198 -144 183 -151 c 1
 203 -165 226 -166 235 -166 c 0
 312 -166 374 -74 393 16 c 1
 378 6 349 -8 309 -8 c 0
 226 -8 161 27 161 118 c 0
 161 174 189 246 221 332 c 0
 227 346 239 377 239 398 c 0
 239 416 230 416 225 416 c 0
 168 416 141 321 133 295 c 0
 129 282 124 282 105 282 c 0
 90 282 77 282 77 296 c 0
 77 317 126 452 230 452 c 0
 284 452 335 419 335 363 c 0
 335 346 330 334 321 309 c 0
 297 246 263 157 263 97 c 0
 263 75 265 28 315 28 c 0
 346 28 370 45 378 52 c 0
 408 77 412 92 415 104 c 2
 487 390 l 2
 500 443 544 444 550 444 c 0
 571 444 595 432 595 401 c 0
 595 396 595 394 591 379 c 2
 495 -7 l 2
EndSplineSet
EndChar

StartChar: Z
Encoding: 90 90 119
Width: 709
Flags: MW
HStem: 0 51<259 377 377 466.5> 639 47<450.5 513 513 624 315 773>
LayerCount: 2
Fore
SplineSet
688 251 m 2
 615 21 l 2
 608 0 602 0 581 0 c 2
 122 0 l 2
 105 0 94 0 94 14 c 0
 94 32 103 42 110 50 c 2
 624 639 l 1
 513 639 l 2
 388 639 319 586 280 470 c 0
 272 447 271 445 249 445 c 0
 239 445 221 445 221 463 c 1
 221 463 225 479 226 481 c 2
 281 666 l 2
 287 686 295 686 315 686 c 2
 759 686 l 2
 774 686 786 686 786 672 c 0
 786 660 781 648 773 639 c 2
 259 51 l 1
 377 51 l 2
 556 51 598 155 632 259 c 0
 640 282 641 284 663 284 c 0
 673 284 691 284 691 266 c 0
 691 263 689 254 688 251 c 2
EndSplineSet
Position2: "'cpsp' Capital Spacing lookup 0 subtable" dx=7 dy=0 dh=14 dv=0
EndChar

StartChar: z
Encoding: 122 122 120
Width: 491
Flags: MW
HStem: -8 21G<84 102 327 401> 346 38 432 20G<243.5 300.5 502 520>
LayerCount: 2
Fore
SplineSet
526 151 m 0
 526 117 457 -8 345 -8 c 0
 309 -8 288 8 260 30 c 0
 240 45 222 60 197 60 c 0
 166 60 138 30 119 2 c 0
 113 -7 112 -8 92 -8 c 0
 76 -8 64 -8 64 6 c 0
 64 25 127 96 174 143 c 0
 201 169 251 210 291 242 c 0
 361 300 386 325 408 348 c 1
 387 348 l 2
 372 348 333 346 318 346 c 2
 247 346 l 2
 214 344 206 339 201 330 c 0
 195 318 193 318 173 318 c 0
 160 318 145 318 145 332 c 0
 145 362 200 452 287 452 c 0
 314 452 336 442 366 419 c 0
 387 402 408 384 433 384 c 0
 448 384 472 423 484 441 c 0
 491 451 492 452 512 452 c 0
 528 452 540 452 540 438 c 0
 540 422 487 357 430 301 c 0
 403 275 353 234 313 202 c 0
 243 144 218 119 196 96 c 1
 244 96 l 1
 312 98 l 2
 397 99 448 100 470 155 c 0
 475 166 481 166 498 166 c 0
 512 166 526 166 526 151 c 0
EndSplineSet
EndChar

StartChar: zero
Encoding: 48 48 121
Width: 591
Flags: MW
HStem: -17 36<278 325.5> 625 36<423 477>
VStem: 115 103<125.5 137.5 77.5 201> 536 100<507.5 518 447.5 566.5>
LayerCount: 2
Fore
SplineSet
636 481 m 0
 636 414 600 199 511 88 c 0
 443 4 359 -17 292 -17 c 0
 131 -17 115 91 115 160 c 0
 115 242 155 412 209 508 c 0
 267 608 354 661 460 661 c 0
 617 661 636 555 636 481 c 0
446 157 m 0
 470 227 536 472 536 543 c 0
 536 590 503 625 451 625 c 0
 395 625 348 583 331 552 c 0
 290 475 218 170 218 105 c 0
 218 50 256 19 300 19 c 0
 400 19 436 127 446 157 c 0
EndSplineSet
Substitution2: "'zero' Slashed Zero lookup 14 subtable" zero.slash
Substitution2: "'pnum' Proportional Numbers lookup 6 subtable" zero.prop
Substitution2: "'onum' Oldstyle Figures lookup 4 subtable" zero.oldstyle
AlternateSubs2: "'aalt' Access All Alternates lookup 1 subtable" zero.oldstyle zero.prop zero.slash
EndChar

StartChar: f_f
Encoding: 64256 64256 122
Width: 756
Flags: MW
HStem: -202 36<91 108 91 127 388 412.5> 397 47<142.5 245 152 236 351 581 696 797> 666 36<454.5 477 757 784.5>
VStem: -19 121<-102 -100.5> 275 121<-148 -80.5> 485 121<601.5 604> 773 121<601.5 612.5>
LayerCount: 2
Fore
SplineSet
894 622 m 0
 894 581 860 548 823 548 c 0
 793 548 773 567 773 594 c 0
 773 631 802 652 812 658 c 1
 801 663 795 666 774 666 c 0
 740 666 732 630 729 615 c 0
 719 575 698 455 696 444 c 1
 800 444 l 2
 815 444 832 444 832 426 c 0
 832 397 815 397 797 397 c 2
 687 397 l 1
 632 95 l 2
 630 86 604 -57 557 -118 c 0
 545 -134 483 -202 393 -202 c 0
 330 -202 275 -174 275 -122 c 0
 275 -81 308 -48 346 -48 c 0
 376 -48 396 -67 396 -94 c 0
 396 -108 390 -139 357 -157 c 1
 369 -163 381 -166 395 -166 c 0
 430 -166 470 -129 484 -86 c 0
 500 -40 509 9 518 57 c 2
 581 397 l 1
 343 397 l 1
 287 93 l 2
 286 86 260 -56 219 -119 c 0
 215 -125 165 -202 89 -202 c 0
 34 -202 -19 -174 -19 -123 c 0
 -19 -78 17 -48 52 -48 c 0
 82 -48 102 -67 102 -94 c 0
 102 -110 94 -141 61 -158 c 1
 75 -166 91 -166 91 -166 c 1
 125 -166 139 -108 142 -94 c 0
 156 -40 156 -38 165 12 c 2
 236 397 l 1
 150 397 l 2
 135 397 118 397 118 415 c 0
 118 444 135 444 152 444 c 2
 245 444 l 1
 260 528 l 2
 286 671 371 702 471 702 c 0
 571 702 606 662 606 622 c 0
 606 581 572 548 535 548 c 0
 505 548 485 567 485 594 c 0
 485 614 495 641 522 656 c 1
 502 666 480 666 474 666 c 0
 435 666 410 651 399 639 c 0
 387 627 378 581 373 558 c 2
 351 444 l 1
 589 444 l 1
 607 540 l 2
 617 593 646 702 774 702 c 0
 837 702 894 676 894 622 c 0
EndSplineSet
Ligature2: "'liga' Standard Ligatures lookup 8 subtable" f f
EndChar

StartChar: f_f_i
Encoding: 64259 64259 123
Width: 1045
Flags: MW
HStem: -202 36<85 100 85 113.5 389 410> -8 36<953 976 953 978.5> 397 47<130.5 233 141 224 340 581 696 913> 666 36<430.5 480 828 886>
VStem: -19 121<-106 -101> 264 121<-106.5 -101.5> 502 121<580.5 662.5> 839 101<57 69 47.5 92> 951 121<591.5 600>
LayerCount: 2
Fore
SplineSet
1079 148 m 0
 1079 144 1066 88 1040 46 c 0
 1027 26 1002 -8 955 -8 c 0
 899 -8 839 25 839 89 c 0
 839 95 839 102 843 118 c 2
 913 397 l 1
 688 397 l 1
 626 67 l 2
 619 29 608 -8 595 -44 c 0
 546 -178 437 -202 387 -202 c 0
 328 -202 264 -179 264 -122 c 0
 264 -81 297 -48 335 -48 c 0
 365 -48 385 -67 385 -94 c 0
 385 -119 370 -144 347 -157 c 1
 366 -166 389 -166 389 -166 c 1
 431 -166 471 -122 482 -92 c 0
 499 -46 508 3 517 51 c 2
 581 397 l 1
 331 397 l 1
 274 86 l 2
 273 79 247 -61 205 -123 c 0
 189 -148 144 -202 83 -202 c 0
 28 -202 -19 -171 -19 -123 c 0
 -19 -79 16 -48 52 -48 c 0
 82 -48 102 -67 102 -94 c 0
 102 -118 88 -146 59 -159 c 1
 71 -166 85 -166 85 -166 c 1
 115 -166 126 -116 131 -94 c 0
 139 -59 147 -25 153 10 c 2
 224 397 l 1
 138 397 l 2
 123 397 106 397 106 415 c 0
 106 444 124 444 141 444 c 2
 233 444 l 1
 247 521 l 2
 278 688 385 702 472 702 c 0
 500 702 623 702 623 623 c 0
 623 578 587 548 552 548 c 0
 522 548 502 567 502 594 c 0
 502 602 504 635 538 655 c 1
 513 666 484 666 476 666 c 0
 385 666 376 624 363 568 c 2
 340 444 l 1
 589 444 l 1
 602 513 l 2
 637 702 781 702 875 702 c 0
 951 702 1072 700 1072 617 c 0
 1072 566 1032 540 1001 540 c 0
 971 540 951 559 951 586 c 0
 951 614 969 638 991 650 c 1
 954 666 897 666 875 666 c 0
 735 666 730 638 696 444 c 1
 999 444 l 2
 1014 444 1027 444 1027 430 c 0
 1027 427 1026 420 1025 417 c 2
 946 103 l 2
 942 89 940 79 940 59 c 0
 940 36 947 28 959 28 c 0
 993 28 1011 103 1019 136 c 0
 1026 161 1027 162 1051 162 c 0
 1066 162 1079 162 1079 148 c 0
EndSplineSet
Ligature2: "'liga' Standard Ligatures in Latin lookup 12 subtable" f_f i
Ligature2: "'liga' Standard Ligatures in Latin lookup 11 subtable" f_f i
Ligature2: "'liga' Standard Ligatures lookup 9 subtable" f_f i
EndChar

StartChar: f_f_l
Encoding: 64260 64260 124
Width: 1059
Flags: MW
HStem: -202 36<82 100 82 108.5 385.5 404> -8 36<967 990 967 992.5> 397 47<130.5 233 140 224 339 580 696 927> 666 36<442.5 465 793 838>
VStem: -19 121<-106 -101> 263 121<-106.5 -101.5> 473 121<601.5 604>
LayerCount: 2
Fore
SplineSet
1093 148 m 0
 1093 144 1080 88 1054 46 c 0
 1041 26 1016 -8 969 -8 c 0
 913 -8 853 25 853 89 c 0
 853 95 853 102 857 118 c 2
 927 397 l 1
 687 397 l 1
 627 73 l 2
 626 66 601 -65 550 -124 c 0
 535 -141 475 -202 386 -202 c 0
 328 -202 263 -179 263 -122 c 0
 263 -81 296 -48 334 -48 c 0
 364 -48 384 -67 384 -94 c 0
 384 -119 369 -144 346 -157 c 1
 362 -165 383 -166 388 -166 c 0
 420 -166 442 -145 453 -133 c 0
 475 -111 480 -102 491 -60 c 0
 505 -9 507 0 517 53 c 2
 580 397 l 1
 331 397 l 1
 275 93 l 2
 270 66 263 38 257 11 c 0
 248 -24 238 -55 231 -73 c 0
 195 -161 134 -202 83 -202 c 0
 29 -202 -19 -172 -19 -123 c 0
 -19 -79 16 -48 52 -48 c 0
 82 -48 102 -67 102 -94 c 0
 102 -118 88 -146 59 -159 c 1
 69 -165 79 -166 85 -166 c 0
 115 -166 126 -114 131 -92 c 2
 153 12 l 1
 224 397 l 1
 138 397 l 2
 123 397 106 397 106 415 c 0
 106 444 123 444 140 444 c 2
 233 444 l 1
 248 528 l 2
 274 671 359 702 459 702 c 0
 559 702 594 662 594 622 c 0
 594 581 560 548 523 548 c 0
 493 548 473 567 473 594 c 0
 473 614 483 641 510 656 c 1
 490 666 468 666 462 666 c 0
 423 666 398 651 387 639 c 0
 375 627 365 580 361 558 c 2
 339 444 l 1
 589 444 l 1
 616 597 634 702 830 702 c 0
 918 702 980 682 982 623 c 1
 983 623 l 1
 994 666 l 2
 1001 693 1002 694 1026 694 c 2
 1076 694 l 2
 1091 694 1104 694 1104 680 c 2
 1104 680 1104 677 1100 662 c 2
 960 102 l 2
 956 86 954 78 954 59 c 0
 954 36 961 28 973 28 c 0
 1007 28 1025 103 1033 136 c 0
 1040 161 1041 162 1065 162 c 0
 1080 162 1093 162 1093 148 c 0
939 444 m 1
 973 583 l 1
 972 583 l 1
 969 577 947 548 911 548 c 0
 881 548 861 567 861 594 c 0
 861 612 869 638 896 655 c 1
 871 666 843 666 833 666 c 0
 753 666 739 631 733 615 c 0
 721 583 714 547 696 444 c 1
 939 444 l 1
EndSplineSet
Ligature2: "'liga' Standard Ligatures lookup 8 subtable" f f l
EndChar

StartChar: f_i
Encoding: 64257 64257 125
Width: 674
Flags: MW
HStem: -202 36<85 100 85 111> -8 36<582 605 582 607.5> 397 47<130.5 233 141 224 340 542> 666 36<478.5 520>
VStem: -19 121<-106 -101> 468 101<57 69 47.5 92> 580 121<591.5 600>
LayerCount: 2
Fore
SplineSet
708 148 m 0
 708 144 695 88 669 46 c 0
 656 26 631 -8 584 -8 c 0
 528 -8 468 25 468 89 c 0
 468 95 468 102 472 118 c 2
 542 397 l 1
 331 397 l 1
 273 81 l 2
 263 29 251 -22 232 -71 c 0
 200 -153 139 -202 83 -202 c 0
 29 -202 -19 -172 -19 -123 c 0
 -19 -79 16 -48 52 -48 c 0
 82 -48 102 -67 102 -94 c 0
 102 -118 88 -146 59 -159 c 1
 71 -166 85 -166 85 -166 c 1
 115 -166 126 -117 131 -95 c 0
 144 -40 145 -34 155 20 c 2
 224 397 l 1
 138 397 l 2
 123 397 106 397 106 415 c 0
 106 444 124 444 141 444 c 2
 233 444 l 1
 249 537 262 608 323 657 c 0
 377 701 447 702 510 702 c 0
 573 702 701 701 701 617 c 0
 701 566 661 540 630 540 c 0
 600 540 580 559 580 586 c 0
 580 614 598 638 620 650 c 1
 584 666 529 666 511 666 c 0
 380 666 375 640 340 444 c 1
 628 444 l 2
 643 444 656 444 656 430 c 0
 656 427 655 420 654 417 c 2
 575 103 l 2
 571 89 569 79 569 59 c 0
 569 36 576 28 588 28 c 0
 622 28 640 103 648 136 c 0
 655 161 656 162 680 162 c 0
 695 162 708 162 708 148 c 0
EndSplineSet
Ligature2: "'liga' Standard Ligatures in Latin lookup 12 subtable" f i
Ligature2: "'liga' Standard Ligatures in Latin lookup 11 subtable" f i
Ligature2: "'liga' Standard Ligatures lookup 9 subtable" f i
EndChar

StartChar: f_l
Encoding: 64258 64258 126
Width: 704
Flags: MW
HStem: -202 36<78 100 78 101.5> -8 36<612 635 612 637.5> 397 47<131 233 141 225 340 572> 666 36<439 483>
VStem: -19 121<-115 -100.5>
LayerCount: 2
Fore
SplineSet
738 148 m 0
 738 144 725 88 699 46 c 0
 686 26 661 -8 614 -8 c 0
 558 -8 498 25 498 89 c 0
 498 95 498 102 502 118 c 2
 572 397 l 1
 331 397 l 1
 273 80 l 2
 267 47 258 14 249 -19 c 0
 204 -181 120 -202 83 -202 c 0
 29 -202 -19 -172 -19 -123 c 0
 -19 -78 17 -48 52 -48 c 0
 82 -48 102 -67 102 -94 c 0
 102 -136 66 -157 59 -160 c 1
 62 -162 71 -166 85 -166 c 0
 115 -166 126 -117 131 -96 c 0
 144 -40 144 -38 153 8 c 2
 225 397 l 1
 138 397 l 2
 124 397 107 397 107 415 c 0
 107 444 124 444 141 444 c 2
 233 444 l 1
 248 524 l 2
 280 698 403 702 475 702 c 0
 564 702 625 682 627 623 c 1
 628 623 l 1
 639 666 l 2
 646 693 647 694 671 694 c 2
 721 694 l 2
 736 694 749 694 749 680 c 2
 749 680 749 677 745 662 c 2
 605 102 l 2
 601 86 599 78 599 59 c 0
 599 36 606 28 618 28 c 0
 652 28 670 103 678 136 c 0
 685 161 686 162 710 162 c 0
 725 162 738 162 738 148 c 0
584 444 m 1
 618 583 l 1
 617 583 l 1
 614 577 592 548 556 548 c 0
 526 548 506 567 506 594 c 0
 506 612 514 638 541 655 c 1
 516 666 488 666 478 666 c 0
 394 666 382 630 374 606 c 0
 368 588 360 560 340 444 c 1
 584 444 l 1
EndSplineSet
Ligature2: "'liga' Standard Ligatures lookup 8 subtable" f l
EndChar

StartChar: Aacute
Encoding: 193 193 127
Width: 866
Flags: MW
HStem: 0 47<97 104 97 107.5 307 309 499 517 760 773 773 780.5> 192 47<357 555 357 560 328 555> 691 20G<599 625> 751 21G<574 577> 898 20G<749 774>
VStem: 73 260<18 32.5>
LayerCount: 2
Fore
SplineSet
805 29 m 0
 805 0 787 0 777 0 c 0
 732 0 685 3 640 3 c 0
 591 3 541 0 493 0 c 0
 471 0 471 18 471 18 c 1
 471 47 488 47 510 47 c 0
 530 47 556 48 575 52 c 1
 560 192 l 1
 328 192 l 1
 247 57 l 1
 271 48 307 47 307 47 c 2
 315 47 333 47 333 29 c 0
 333 0 313 0 305 0 c 0
 268 0 228 3 190 3 c 0
 158 3 123 0 92 0 c 0
 73 0 73 18 73 18 c 1
 73 47 90 47 104 47 c 0
 176 48 187 66 198 84 c 2
 563 686 l 2
 578 711 588 711 610 711 c 0
 640 711 643 708 646 682 c 2
 712 66 l 2
 714 51 715 50 727 48 c 0
 735 47 751 47 760 47 c 2
 773 47 l 2
 788 47 805 47 805 29 c 0
555 239 m 1
 525 517 l 1
 357 239 l 1
 555 239 l 1
805 861 m 0x18
 799 831 772 820 757 815 c 2
 591 754 l 2
 585 752 580 751 574 751 c 0
 558 753 551 782 552 788 c 0
 553 795 561 801 567 805 c 2
 707 896 l 2
 727 909 740 918 758 918 c 0
 790 918 810 893 805 861 c 0x18
EndSplineSet
Position2: "'cpsp' Capital Spacing lookup 0 subtable" dx=7 dy=0 dh=14 dv=0
EndChar

StartChar: aacute
Encoding: 225 225 128
Width: 591
Flags: MW
HStem: -8 36<248.5 275.5 248.5 286.5 489 512> 416 36<351 377 280 381.5> 502 21G<380 391> 679 20G<538 561.5>
VStem: 96 107<92.5 126 70.5 219>
LayerCount: 2
Fore
SplineSet
615 148 m 0
 615 144 602 88 576 46 c 0
 563 26 538 -8 491 -8 c 0
 452 -8 407 8 388 43 c 1
 364 24 317 -8 256 -8 c 0
 180 -8 96 33 96 152 c 0
 96 286 196 452 364 452 c 0
 390 452 429 447 461 414 c 1
 474 427 491 435 508 435 c 0
 536 435 553 416 553 393 c 0
 553 389 553 387 549 372 c 2
 482 102 l 2
 478 86 476 78 476 59 c 0
 476 36 483 28 495 28 c 0
 529 28 547 103 555 136 c 0
 562 161 563 162 587 162 c 0
 602 162 615 162 615 148 c 0
376 100 m 1
 377 108 377 111 379 118 c 2
 438 354 l 1
 427 394 399 416 364 416 c 0
 338 416 283 401 249 304 c 0
 238 276 203 153 203 99 c 0
 203 42 237 28 260 28 c 0
 291 28 333 43 376 100 c 1
596 651 m 0x30
 596 620 571 605 557 597 c 2
 404 508 l 2
 399 505 394 502 388 502 c 0
 372 502 360 529 360 535 c 0
 360 542 366 549 372 554 c 2
 494 668 l 2
 514 687 527 699 549 699 c 0
 574 699 596 679 596 651 c 0x30
EndSplineSet
EndChar

StartChar: Abreve
Encoding: 258 258 129
Width: 866
Flags: MW
HStem: 0 47<97 104 97 107.5 307 309 499 517 760 773 773 780.5> 192 47<357 555 357 560 328 555> 691 20G<599 625> 751 59<607.5 652 607.5 688> 910 20G<505.5 520 801.5 813>
VStem: 73 260<18 32.5>
LayerCount: 2
Fore
SplineSet
805 29 m 0
 805 0 787 0 777 0 c 0
 732 0 685 3 640 3 c 0
 591 3 541 0 493 0 c 0
 471 0 471 18 471 18 c 1
 471 47 488 47 510 47 c 0
 530 47 556 48 575 52 c 1
 560 192 l 1
 328 192 l 1
 247 57 l 1
 271 48 307 47 307 47 c 2
 315 47 333 47 333 29 c 0
 333 0 313 0 305 0 c 0
 268 0 228 3 190 3 c 0
 158 3 123 0 92 0 c 0
 73 0 73 18 73 18 c 1
 73 47 90 47 104 47 c 0
 176 48 187 66 198 84 c 2
 563 686 l 2
 578 711 588 711 610 711 c 0
 640 711 643 708 646 682 c 2
 712 66 l 2
 714 51 715 50 727 48 c 0
 735 47 751 47 760 47 c 2
 773 47 l 2
 788 47 805 47 805 29 c 0
555 239 m 1
 525 517 l 1
 357 239 l 1
 555 239 l 1
826 912 m 0x18
 826 872 750 751 626 751 c 0
 551 751 493 801 493 878 c 0
 493 905 496 930 515 930 c 0
 525 930 533 921 533 912 c 0
 533 905 530 901 530 887 c 0
 530 834 583 810 632 810 c 0
 672 810 762 830 790 914 c 0
 792 919 795 930 808 930 c 0
 818 930 826 922 826 912 c 0x18
EndSplineSet
Position2: "'cpsp' Capital Spacing lookup 0 subtable" dx=7 dy=0 dh=14 dv=0
EndChar

StartChar: abreve
Encoding: 259 259 130
Width: 591
Flags: MW
HStem: -8 36<248.5 275.5 248.5 286.5 489 512> 416 36<351 377 280 381.5> 511 59<409.5 454 409.5 490> 670 20G<307.5 322 603.5 615>
VStem: 96 107<92.5 126 70.5 219>
LayerCount: 2
Fore
SplineSet
615 148 m 0
 615 144 602 88 576 46 c 0
 563 26 538 -8 491 -8 c 0
 452 -8 407 8 388 43 c 1
 364 24 317 -8 256 -8 c 0
 180 -8 96 33 96 152 c 0
 96 286 196 452 364 452 c 0
 390 452 429 447 461 414 c 1
 474 427 491 435 508 435 c 0
 536 435 553 416 553 393 c 0
 553 389 553 387 549 372 c 2
 482 102 l 2
 478 86 476 78 476 59 c 0
 476 36 483 28 495 28 c 0
 529 28 547 103 555 136 c 0
 562 161 563 162 587 162 c 0
 602 162 615 162 615 148 c 0
376 100 m 1
 377 108 377 111 379 118 c 2
 438 354 l 1
 427 394 399 416 364 416 c 0
 338 416 283 401 249 304 c 0
 238 276 203 153 203 99 c 0
 203 42 237 28 260 28 c 0
 291 28 333 43 376 100 c 1
628 672 m 0x30
 628 632 552 511 428 511 c 0
 353 511 295 561 295 638 c 0
 295 665 298 690 317 690 c 0
 327 690 335 681 335 672 c 0
 335 665 332 661 332 647 c 0
 332 594 385 570 434 570 c 0
 474 570 564 590 592 674 c 0
 594 679 597 690 610 690 c 0
 620 690 628 682 628 672 c 0x30
EndSplineSet
EndChar

StartChar: Abreveacute
Encoding: 7854 7854 131
Width: 866
Flags: MW
HStem: 0 47<97 104 97 107.5 307 309 499 517 760 773 773 780.5> 192 47<357 555 357 560 328 555> 691 20G<599 625> 751 59<607.5 652 607.5 688> 1112 20G<764 789>
VStem: 73 260<18 32.5>
LayerCount: 2
Fore
SplineSet
805 29 m 0
 805 0 787 0 777 0 c 0
 732 0 685 3 640 3 c 0
 591 3 541 0 493 0 c 0
 471 0 471 18 471 18 c 1
 471 47 488 47 510 47 c 0
 530 47 556 48 575 52 c 1
 560 192 l 1
 328 192 l 1
 247 57 l 1
 271 48 307 47 307 47 c 2
 315 47 333 47 333 29 c 0
 333 0 313 0 305 0 c 0
 268 0 228 3 190 3 c 0
 158 3 123 0 92 0 c 0
 73 0 73 18 73 18 c 1
 73 47 90 47 104 47 c 0
 176 48 187 66 198 84 c 2
 563 686 l 2
 578 711 588 711 610 711 c 0
 640 711 643 708 646 682 c 2
 712 66 l 2
 714 51 715 50 727 48 c 0
 735 47 751 47 760 47 c 2
 773 47 l 2
 788 47 805 47 805 29 c 0
555 239 m 1
 525 517 l 1
 357 239 l 1
 555 239 l 1
826 912 m 0x18
 826 872 750 751 626 751 c 0
 551 751 493 801 493 878 c 0
 493 905 496 930 515 930 c 0
 525 930 533 921 533 912 c 0
 533 905 530 901 530 887 c 0
 530 834 583 810 632 810 c 0
 672 810 762 830 790 914 c 0
 792 919 795 930 808 930 c 0
 818 930 826 922 826 912 c 0x18
820 1075 m 0
 814 1045 787 1034 772 1029 c 2
 606 968 l 2
 600 966 595 965 589 965 c 0
 573 967 566 996 567 1002 c 0
 568 1009 576 1015 582 1019 c 2
 722 1110 l 2
 742 1123 755 1132 773 1132 c 0
 805 1132 825 1107 820 1075 c 0
EndSplineSet
Position2: "'cpsp' Capital Spacing lookup 0 subtable" dx=7 dy=0 dh=14 dv=0
EndChar

StartChar: abreveacute
Encoding: 7855 7855 132
Width: 591
Flags: MW
HStem: -8 36<248.5 275.5 248.5 286.5 489 512> 416 36<351 377 280 381.5> 512 59<410.5 455 410.5 491> 873 20G<567 592>
VStem: 96 107<92.5 126 70.5 219>
LayerCount: 2
Fore
SplineSet
615 148 m 0
 615 144 602 88 576 46 c 0
 563 26 538 -8 491 -8 c 0
 452 -8 407 8 388 43 c 1
 364 24 317 -8 256 -8 c 0
 180 -8 96 33 96 152 c 0
 96 286 196 452 364 452 c 0
 390 452 429 447 461 414 c 1
 474 427 491 435 508 435 c 0
 536 435 553 416 553 393 c 0
 553 389 553 387 549 372 c 2
 482 102 l 2
 478 86 476 78 476 59 c 0
 476 36 483 28 495 28 c 0
 529 28 547 103 555 136 c 0
 562 161 563 162 587 162 c 0
 602 162 615 162 615 148 c 0
376 100 m 1
 377 108 377 111 379 118 c 2
 438 354 l 1
 427 394 399 416 364 416 c 0
 338 416 283 401 249 304 c 0
 238 276 203 153 203 99 c 0
 203 42 237 28 260 28 c 0
 291 28 333 43 376 100 c 1
629 673 m 0x30
 629 633 553 512 429 512 c 0
 354 512 296 562 296 639 c 0
 296 666 299 691 318 691 c 0
 328 691 336 682 336 673 c 0
 336 666 333 662 333 648 c 0
 333 595 386 571 435 571 c 0
 475 571 565 591 593 675 c 0
 595 680 598 691 611 691 c 0
 621 691 629 683 629 673 c 0x30
623 836 m 0
 617 806 590 795 575 790 c 2
 409 729 l 2
 403 727 398 726 392 726 c 0
 376 728 369 757 370 763 c 0
 371 770 379 776 385 780 c 2
 525 871 l 2
 545 884 558 893 576 893 c 0
 608 893 628 868 623 836 c 0
EndSplineSet
EndChar

StartChar: Abrevedotbelow
Encoding: 7862 7862 133
Width: 866
Flags: MW
HStem: 0 47<97 104 97 107.5 307 309 499 517 760 773 773 780.5> 192 47<357 555 357 560 328 555> 691 20G<599 625> 751 59<607.5 652 607.5 688> 910 20G<505.5 520 801.5 813>
VStem: 73 260<18 32.5>
LayerCount: 2
Fore
SplineSet
805 29 m 0
 805 0 787 0 777 0 c 0
 732 0 685 3 640 3 c 0
 591 3 541 0 493 0 c 0
 471 0 471 18 471 18 c 1
 471 47 488 47 510 47 c 0
 530 47 556 48 575 52 c 1
 560 192 l 1
 328 192 l 1
 247 57 l 1
 271 48 307 47 307 47 c 2
 315 47 333 47 333 29 c 0
 333 0 313 0 305 0 c 0
 268 0 228 3 190 3 c 0
 158 3 123 0 92 0 c 0
 73 0 73 18 73 18 c 1
 73 47 90 47 104 47 c 0
 176 48 187 66 198 84 c 2
 563 686 l 2
 578 711 588 711 610 711 c 0
 640 711 643 708 646 682 c 2
 712 66 l 2
 714 51 715 50 727 48 c 0
 735 47 751 47 760 47 c 2
 773 47 l 2
 788 47 805 47 805 29 c 0
555 239 m 1
 525 517 l 1
 357 239 l 1
 555 239 l 1
826 912 m 0
 826 872 750 751 626 751 c 0
 551 751 493 801 493 878 c 0
 493 905 496 930 515 930 c 0
 525 930 533 921 533 912 c 0
 533 905 530 901 530 887 c 0
 530 834 583 810 632 810 c 0
 672 810 762 830 790 914 c 0
 792 919 795 930 808 930 c 0
 818 930 826 922 826 912 c 0
477 -113 m 0
 477 -156 435 -200 388 -200 c 0
 350 -200 326 -172 326 -140 c 0
 326 -96 369 -53 415 -53 c 0
 456 -53 477 -85 477 -113 c 0
EndSplineSet
Position2: "'cpsp' Capital Spacing lookup 0 subtable" dx=7 dy=0 dh=14 dv=0
EndChar

StartChar: abrevedotbelow
Encoding: 7863 7863 134
Width: 591
Flags: MW
HStem: -8 36<248.5 275.5 248.5 286.5 489 512> 416 36<351 377 280 381.5> 511 59<409.5 454 409.5 490> 670 20G<307.5 322 603.5 615>
VStem: 96 107<92.5 126 70.5 219>
LayerCount: 2
Fore
SplineSet
615 148 m 0
 615 144 602 88 576 46 c 0
 563 26 538 -8 491 -8 c 0
 452 -8 407 8 388 43 c 1
 364 24 317 -8 256 -8 c 0
 180 -8 96 33 96 152 c 0
 96 286 196 452 364 452 c 0
 390 452 429 447 461 414 c 1
 474 427 491 435 508 435 c 0
 536 435 553 416 553 393 c 0
 553 389 553 387 549 372 c 2
 482 102 l 2
 478 86 476 78 476 59 c 0
 476 36 483 28 495 28 c 0
 529 28 547 103 555 136 c 0
 562 161 563 162 587 162 c 0
 602 162 615 162 615 148 c 0
376 100 m 1
 377 108 377 111 379 118 c 2
 438 354 l 1
 427 394 399 416 364 416 c 0
 338 416 283 401 249 304 c 0
 238 276 203 153 203 99 c 0
 203 42 237 28 260 28 c 0
 291 28 333 43 376 100 c 1
628 672 m 0
 628 632 552 511 428 511 c 0
 353 511 295 561 295 638 c 0
 295 665 298 690 317 690 c 0
 327 690 335 681 335 672 c 0
 335 665 332 661 332 647 c 0
 332 594 385 570 434 570 c 0
 474 570 564 590 592 674 c 0
 594 679 597 690 610 690 c 0
 620 690 628 682 628 672 c 0
340 -113 m 0
 340 -156 298 -200 251 -200 c 0
 213 -200 189 -172 189 -140 c 0
 189 -96 232 -53 278 -53 c 0
 319 -53 340 -85 340 -113 c 0
EndSplineSet
EndChar

StartChar: Abrevegrave
Encoding: 7856 7856 135
Width: 866
Flags: MW
HStem: 0 47<97 104 97 107.5 307 309 499 517 760 773 773 780.5> 192 47<357 555 357 560 328 555> 691 20G<599 625> 751 59<607.5 652 607.5 688> 910 20G<505.5 520 801.5 813>
VStem: 73 260<18 32.5>
LayerCount: 2
Fore
SplineSet
805 29 m 0
 805 0 787 0 777 0 c 0
 732 0 685 3 640 3 c 0
 591 3 541 0 493 0 c 0
 471 0 471 18 471 18 c 1
 471 47 488 47 510 47 c 0
 530 47 556 48 575 52 c 1
 560 192 l 1
 328 192 l 1
 247 57 l 1
 271 48 307 47 307 47 c 2
 315 47 333 47 333 29 c 0
 333 0 313 0 305 0 c 0
 268 0 228 3 190 3 c 0
 158 3 123 0 92 0 c 0
 73 0 73 18 73 18 c 1
 73 47 90 47 104 47 c 0
 176 48 187 66 198 84 c 2
 563 686 l 2
 578 711 588 711 610 711 c 0
 640 711 643 708 646 682 c 2
 712 66 l 2
 714 51 715 50 727 48 c 0
 735 47 751 47 760 47 c 2
 773 47 l 2
 788 47 805 47 805 29 c 0
555 239 m 1
 525 517 l 1
 357 239 l 1
 555 239 l 1
826 912 m 0x18
 826 872 750 751 626 751 c 0
 551 751 493 801 493 878 c 0
 493 905 496 930 515 930 c 0
 525 930 533 921 533 912 c 0
 533 905 530 901 530 887 c 0
 530 834 583 810 632 810 c 0
 672 810 762 830 790 914 c 0
 792 919 795 930 808 930 c 0
 818 930 826 922 826 912 c 0x18
802 1002 m 0
 805 1009 800 1015 796 1019 c 2
 701 1110 l 2
 688 1123 679 1132 662 1132 c 0
 629 1132 596 1107 586 1075 c 0
 577 1045 598 1034 611 1029 c 2
 746 968 l 2
 751 966 755 965 762 965 c 0
 779 967 800 996 802 1002 c 0
EndSplineSet
Position2: "'cpsp' Capital Spacing lookup 0 subtable" dx=7 dy=0 dh=14 dv=0
EndChar

StartChar: abrevegrave
Encoding: 7857 7857 136
Width: 591
Flags: MW
HStem: -8 36<248.5 275.5 248.5 286.5 489 512> 416 36<351 377 280 381.5> 512 59<410.5 455 410.5 491> 671 20G<308.5 323 604.5 616>
VStem: 96 107<92.5 126 70.5 219>
LayerCount: 2
Fore
SplineSet
615 148 m 0
 615 144 602 88 576 46 c 0
 563 26 538 -8 491 -8 c 0
 452 -8 407 8 388 43 c 1
 364 24 317 -8 256 -8 c 0
 180 -8 96 33 96 152 c 0
 96 286 196 452 364 452 c 0
 390 452 429 447 461 414 c 1
 474 427 491 435 508 435 c 0
 536 435 553 416 553 393 c 0
 553 389 553 387 549 372 c 2
 482 102 l 2
 478 86 476 78 476 59 c 0
 476 36 483 28 495 28 c 0
 529 28 547 103 555 136 c 0
 562 161 563 162 587 162 c 0
 602 162 615 162 615 148 c 0
376 100 m 1
 377 108 377 111 379 118 c 2
 438 354 l 1
 427 394 399 416 364 416 c 0
 338 416 283 401 249 304 c 0
 238 276 203 153 203 99 c 0
 203 42 237 28 260 28 c 0
 291 28 333 43 376 100 c 1
629 673 m 0x30
 629 633 553 512 429 512 c 0
 354 512 296 562 296 639 c 0
 296 666 299 691 318 691 c 0
 328 691 336 682 336 673 c 0
 336 666 333 662 333 648 c 0
 333 595 386 571 435 571 c 0
 475 571 565 591 593 675 c 0
 595 680 598 691 611 691 c 0
 621 691 629 683 629 673 c 0x30
605 763 m 0
 608 770 603 776 599 780 c 2
 504 871 l 2
 491 884 482 893 465 893 c 0
 432 893 399 868 389 836 c 0
 380 806 401 795 414 790 c 2
 549 729 l 2
 554 727 558 726 565 726 c 0
 582 728 603 757 605 763 c 0
EndSplineSet
EndChar

StartChar: Abrevehookabove
Encoding: 7858 7858 137
Width: 866
Flags: MW
HStem: 0 47<97 104 97 107.5 307 309 499 517 760 773 773 780.5> 192 47<357 555 357 560 328 555> 691 20G<599 625> 751 59<607.5 652 607.5 688> 1127 20G<685 725>
VStem: 73 260<18 32.5>
LayerCount: 2
Fore
SplineSet
805 29 m 0
 805 0 787 0 777 0 c 0
 732 0 685 3 640 3 c 0
 591 3 541 0 493 0 c 0
 471 0 471 18 471 18 c 1
 471 47 488 47 510 47 c 0
 530 47 556 48 575 52 c 1
 560 192 l 1
 328 192 l 1
 247 57 l 1
 271 48 307 47 307 47 c 2
 315 47 333 47 333 29 c 0
 333 0 313 0 305 0 c 0
 268 0 228 3 190 3 c 0
 158 3 123 0 92 0 c 0
 73 0 73 18 73 18 c 1
 73 47 90 47 104 47 c 0
 176 48 187 66 198 84 c 2
 563 686 l 2
 578 711 588 711 610 711 c 0
 640 711 643 708 646 682 c 2
 712 66 l 2
 714 51 715 50 727 48 c 0
 735 47 751 47 760 47 c 2
 773 47 l 2
 788 47 805 47 805 29 c 0
555 239 m 1
 525 517 l 1
 357 239 l 1
 555 239 l 1
826 912 m 0x18
 826 872 750 751 626 751 c 0
 551 751 493 801 493 878 c 0
 493 905 496 930 515 930 c 0
 525 930 533 921 533 912 c 0
 533 905 530 901 530 887 c 0
 530 834 583 810 632 810 c 0
 672 810 762 830 790 914 c 0
 792 919 795 930 808 930 c 0
 818 930 826 922 826 912 c 0x18
807 1078 m 0
 802 1058 785 1043 766 1035 c 0
 718 1016 691 999 684 973 c 2
 680 956 l 2
 678 949 672 945 666 945 c 2
 663 945 l 2
 657 947 652 953 652 959 c 2
 653 962 l 1
 657 980 l 2
 665 1010 687 1038 715 1059 c 0
 722 1065 727 1074 730 1084 c 0
 733 1097 735 1104 735 1109 c 2
 734 1113 l 2
 731 1117 723 1119 710 1119 c 0
 695 1119 680 1116 668 1110 c 1
 674 1105 678 1097 678 1088 c 0
 678 1084 677 1081 676 1077 c 0
 671 1056 652 1043 633 1043 c 0
 615 1043 600 1054 600 1074 c 0
 600 1077 600 1081 601 1084 c 2
 601 1085 l 1
 612 1126 661 1147 709 1147 c 0
 741 1147 766 1144 786 1132 c 0
 800 1123 808 1108 808 1091 c 0
 808 1087 808 1082 807 1078 c 0
EndSplineSet
Position2: "'cpsp' Capital Spacing lookup 0 subtable" dx=7 dy=0 dh=14 dv=0
EndChar

StartChar: abrevehookabove
Encoding: 7859 7859 138
Width: 591
Flags: MW
HStem: -8 36<248.5 275.5 248.5 286.5 489 512> 416 36<351 377 280 381.5> 512 59<410.5 455 410.5 491> 888 20G<488 528>
VStem: 96 107<92.5 126 70.5 219>
LayerCount: 2
Fore
SplineSet
615 148 m 0
 615 144 602 88 576 46 c 0
 563 26 538 -8 491 -8 c 0
 452 -8 407 8 388 43 c 1
 364 24 317 -8 256 -8 c 0
 180 -8 96 33 96 152 c 0
 96 286 196 452 364 452 c 0
 390 452 429 447 461 414 c 1
 474 427 491 435 508 435 c 0
 536 435 553 416 553 393 c 0
 553 389 553 387 549 372 c 2
 482 102 l 2
 478 86 476 78 476 59 c 0
 476 36 483 28 495 28 c 0
 529 28 547 103 555 136 c 0
 562 161 563 162 587 162 c 0
 602 162 615 162 615 148 c 0
376 100 m 1
 377 108 377 111 379 118 c 2
 438 354 l 1
 427 394 399 416 364 416 c 0
 338 416 283 401 249 304 c 0
 238 276 203 153 203 99 c 0
 203 42 237 28 260 28 c 0
 291 28 333 43 376 100 c 1
629 673 m 0x30
 629 633 553 512 429 512 c 0
 354 512 296 562 296 639 c 0
 296 666 299 691 318 691 c 0
 328 691 336 682 336 673 c 0
 336 666 333 662 333 648 c 0
 333 595 386 571 435 571 c 0
 475 571 565 591 593 675 c 0
 595 680 598 691 611 691 c 0
 621 691 629 683 629 673 c 0x30
610 839 m 0
 605 819 588 804 569 796 c 0
 521 777 494 760 487 734 c 2
 483 717 l 2
 481 710 475 706 469 706 c 2
 466 706 l 2
 460 708 455 714 455 720 c 2
 456 723 l 1
 460 741 l 2
 468 771 490 799 518 820 c 0
 525 826 530 835 533 845 c 0
 536 858 538 865 538 870 c 2
 537 874 l 2
 534 878 526 880 513 880 c 0
 498 880 483 877 471 871 c 1
 477 866 481 858 481 849 c 0
 481 845 480 842 479 838 c 0
 474 817 455 804 436 804 c 0
 418 804 403 815 403 835 c 0
 403 838 403 842 404 845 c 2
 404 846 l 1
 415 887 464 908 512 908 c 0
 544 908 569 905 589 893 c 0
 603 884 611 869 611 852 c 0
 611 848 611 843 610 839 c 0
EndSplineSet
EndChar

StartChar: Abrevetilde
Encoding: 7860 7860 139
Width: 866
Flags: MW
HStem: 0 47<97 104 97 107.5 307 309 499 517 760 773 773 780.5> 192 47<357 555 357 560 328 555> 691 20G<599 625> 751 59<607.5 652 607.5 688> 985 58<726 772.5> 1046 58<638 639>
VStem: 73 260<18 32.5>
LayerCount: 2
Fore
SplineSet
805 29 m 0
 805 0 787 0 777 0 c 0
 732 0 685 3 640 3 c 0
 591 3 541 0 493 0 c 0
 471 0 471 18 471 18 c 1
 471 47 488 47 510 47 c 0
 530 47 556 48 575 52 c 1
 560 192 l 1
 328 192 l 1
 247 57 l 1
 271 48 307 47 307 47 c 2
 315 47 333 47 333 29 c 0
 333 0 313 0 305 0 c 0
 268 0 228 3 190 3 c 0
 158 3 123 0 92 0 c 0
 73 0 73 18 73 18 c 1
 73 47 90 47 104 47 c 0
 176 48 187 66 198 84 c 2
 563 686 l 2
 578 711 588 711 610 711 c 0
 640 711 643 708 646 682 c 2
 712 66 l 2
 714 51 715 50 727 48 c 0
 735 47 751 47 760 47 c 2
 773 47 l 2
 788 47 805 47 805 29 c 0
555 239 m 1
 525 517 l 1
 357 239 l 1
 555 239 l 1
826 912 m 0x1c
 826 872 750 751 626 751 c 0
 551 751 493 801 493 878 c 0
 493 905 496 930 515 930 c 0
 525 930 533 921 533 912 c 0
 533 905 530 901 530 887 c 0
 530 834 583 810 632 810 c 0
 672 810 762 830 790 914 c 0
 792 919 795 930 808 930 c 0
 818 930 826 922 826 912 c 0x1c
882 1086 m 0
 882 1072 837 1037 821 1024 c 0
 796 1004 764 985 735 985 c 0
 717 985 698 990 667 1024 c 0
 656 1038 646 1046 632 1046 c 0
 605 1046 566 1014 544 995 c 0
 538 989 533 985 526 985 c 0
 513 985 508 997 508 1003 c 0
 508 1016 549 1049 565 1061 c 0
 583 1075 621 1104 655 1104 c 0
 675 1104 695 1096 716 1072 c 0
 735 1050 745 1043 758 1043 c 0
 787 1043 830 1080 843 1091 c 0
 852 1100 856 1104 864 1104 c 0
 874 1104 882 1096 882 1086 c 0
EndSplineSet
Position2: "'cpsp' Capital Spacing lookup 0 subtable" dx=7 dy=0 dh=14 dv=0
EndChar

StartChar: abrevetilde
Encoding: 7861 7861 140
Width: 591
Flags: MW
HStem: -8 36<248.5 275.5 248.5 286.5 489 512> 416 36<351 377 280 381.5> 512 59<410.5 455 410.5 491> 746 58<529 575.5> 807 58<441 442>
VStem: 96 107<92.5 126 70.5 219>
LayerCount: 2
Fore
SplineSet
615 148 m 0
 615 144 602 88 576 46 c 0
 563 26 538 -8 491 -8 c 0
 452 -8 407 8 388 43 c 1
 364 24 317 -8 256 -8 c 0
 180 -8 96 33 96 152 c 0
 96 286 196 452 364 452 c 0
 390 452 429 447 461 414 c 1
 474 427 491 435 508 435 c 0
 536 435 553 416 553 393 c 0
 553 389 553 387 549 372 c 2
 482 102 l 2
 478 86 476 78 476 59 c 0
 476 36 483 28 495 28 c 0
 529 28 547 103 555 136 c 0
 562 161 563 162 587 162 c 0
 602 162 615 162 615 148 c 0
376 100 m 1
 377 108 377 111 379 118 c 2
 438 354 l 1
 427 394 399 416 364 416 c 0
 338 416 283 401 249 304 c 0
 238 276 203 153 203 99 c 0
 203 42 237 28 260 28 c 0
 291 28 333 43 376 100 c 1
629 673 m 0x38
 629 633 553 512 429 512 c 0
 354 512 296 562 296 639 c 0
 296 666 299 691 318 691 c 0
 328 691 336 682 336 673 c 0
 336 666 333 662 333 648 c 0
 333 595 386 571 435 571 c 0
 475 571 565 591 593 675 c 0
 595 680 598 691 611 691 c 0
 621 691 629 683 629 673 c 0x38
685 847 m 0
 685 833 640 798 624 785 c 0
 599 765 567 746 538 746 c 0
 520 746 501 751 470 785 c 0
 459 799 449 807 435 807 c 0
 408 807 369 775 347 756 c 0
 341 750 336 746 329 746 c 0
 316 746 311 758 311 764 c 0
 311 777 352 810 368 822 c 0
 386 836 424 865 458 865 c 0
 478 865 498 857 519 833 c 0
 538 811 548 804 561 804 c 0
 590 804 633 841 646 852 c 0
 655 861 659 865 667 865 c 0
 677 865 685 857 685 847 c 0
EndSplineSet
EndChar

StartChar: Acaron
Encoding: 461 461 141
Width: 866
Flags: MW
HStem: 0 47<97 104 97 107.5 307 309 499 517 760 773 773 780.5> 192 47<357 555 357 560 328 555> 691 20G<599 625> 741 21G<631 631> 885 20G<499 499 819 819>
VStem: 73 260<18 32.5>
LayerCount: 2
Fore
SplineSet
805 29 m 0
 805 0 787 0 777 0 c 0
 732 0 685 3 640 3 c 0
 591 3 541 0 493 0 c 0
 471 0 471 18 471 18 c 1
 471 47 488 47 510 47 c 0
 530 47 556 48 575 52 c 1
 560 192 l 1
 328 192 l 1
 247 57 l 1
 271 48 307 47 307 47 c 2
 315 47 333 47 333 29 c 0
 333 0 313 0 305 0 c 0
 268 0 228 3 190 3 c 0
 158 3 123 0 92 0 c 0
 73 0 73 18 73 18 c 1
 73 47 90 47 104 47 c 0
 176 48 187 66 198 84 c 2
 563 686 l 2
 578 711 588 711 610 711 c 0
 640 711 643 708 646 682 c 2
 712 66 l 2
 714 51 715 50 727 48 c 0
 735 47 751 47 760 47 c 2
 773 47 l 2
 788 47 805 47 805 29 c 0
555 239 m 1
 525 517 l 1
 357 239 l 1
 555 239 l 1
828 880 m 1x18
 631 741 l 1
 479 880 l 1
 499 905 l 1
 650 849 l 1
 819 905 l 1
 828 880 l 1x18
EndSplineSet
EndChar

StartChar: acaron
Encoding: 462 462 142
Width: 591
Flags: MW
HStem: -8 36<248.5 275.5 248.5 286.5 489 512> 416 36<351 377 280 381.5> 497 21G<436 436> 684 20G<313 313 628 628>
VStem: 96 107<92.5 126 70.5 219>
LayerCount: 2
Fore
SplineSet
615 148 m 0
 615 144 602 88 576 46 c 0
 563 26 538 -8 491 -8 c 0
 452 -8 407 8 388 43 c 1
 364 24 317 -8 256 -8 c 0
 180 -8 96 33 96 152 c 0
 96 286 196 452 364 452 c 0
 390 452 429 447 461 414 c 1
 474 427 491 435 508 435 c 0
 536 435 553 416 553 393 c 0
 553 389 553 387 549 372 c 2
 482 102 l 2
 478 86 476 78 476 59 c 0
 476 36 483 28 495 28 c 0
 529 28 547 103 555 136 c 0
 562 161 563 162 587 162 c 0
 602 162 615 162 615 148 c 0
376 100 m 1
 377 108 377 111 379 118 c 2
 438 354 l 1
 427 394 399 416 364 416 c 0
 338 416 283 401 249 304 c 0
 238 276 203 153 203 99 c 0
 203 42 237 28 260 28 c 0
 291 28 333 43 376 100 c 1
643 682 m 1x30
 436 497 l 1
 290 682 l 1
 313 704 l 1
 454 605 l 1
 628 704 l 1
 643 682 l 1x30
EndSplineSet
EndChar

StartChar: Acircumflex
Encoding: 194 194 143
Width: 866
Flags: MW
HStem: 0 47<97 104 97 107.5 307 309 499 517 760 773 773 780.5> 192 47<357 555 357 560 328 555> 691 20G<599 625> 741 21G<460 460 780 780> 885 20G<648 648>
VStem: 73 260<18 32.5>
LayerCount: 2
Fore
SplineSet
805 29 m 0
 805 0 787 0 777 0 c 0
 732 0 685 3 640 3 c 0
 591 3 541 0 493 0 c 0
 471 0 471 18 471 18 c 1
 471 47 488 47 510 47 c 0
 530 47 556 48 575 52 c 1
 560 192 l 1
 328 192 l 1
 247 57 l 1
 271 48 307 47 307 47 c 2
 315 47 333 47 333 29 c 0
 333 0 313 0 305 0 c 0
 268 0 228 3 190 3 c 0
 158 3 123 0 92 0 c 0
 73 0 73 18 73 18 c 1
 73 47 90 47 104 47 c 0
 176 48 187 66 198 84 c 2
 563 686 l 2
 578 711 588 711 610 711 c 0
 640 711 643 708 646 682 c 2
 712 66 l 2
 714 51 715 50 727 48 c 0
 735 47 751 47 760 47 c 2
 773 47 l 2
 788 47 805 47 805 29 c 0
555 239 m 1
 525 517 l 1
 357 239 l 1
 555 239 l 1
799 766 m 1x18
 780 741 l 1
 629 797 l 1
 460 741 l 1
 450 766 l 1
 648 905 l 1
 799 766 l 1x18
EndSplineSet
Position2: "'cpsp' Capital Spacing lookup 0 subtable" dx=7 dy=0 dh=14 dv=0
EndChar

StartChar: acircumflex
Encoding: 226 226 144
Width: 591
Flags: MW
HStem: -8 36<248.5 275.5 248.5 286.5 489 512> 416 36<351 377 280 381.5> 497 21G<265 265 580 580> 684 20G<457 457>
VStem: 96 107<92.5 126 70.5 219>
LayerCount: 2
Fore
SplineSet
615 148 m 0
 615 144 602 88 576 46 c 0
 563 26 538 -8 491 -8 c 0
 452 -8 407 8 388 43 c 1
 364 24 317 -8 256 -8 c 0
 180 -8 96 33 96 152 c 0
 96 286 196 452 364 452 c 0
 390 452 429 447 461 414 c 1
 474 427 491 435 508 435 c 0
 536 435 553 416 553 393 c 0
 553 389 553 387 549 372 c 2
 482 102 l 2
 478 86 476 78 476 59 c 0
 476 36 483 28 495 28 c 0
 529 28 547 103 555 136 c 0
 562 161 563 162 587 162 c 0
 602 162 615 162 615 148 c 0
376 100 m 1
 377 108 377 111 379 118 c 2
 438 354 l 1
 427 394 399 416 364 416 c 0
 338 416 283 401 249 304 c 0
 238 276 203 153 203 99 c 0
 203 42 237 28 260 28 c 0
 291 28 333 43 376 100 c 1
603 519 m 1x30
 580 497 l 1
 439 596 l 1
 265 497 l 1
 250 519 l 1
 457 704 l 1
 603 519 l 1x30
EndSplineSet
EndChar

StartChar: Acircumflexacute
Encoding: 7844 7844 145
Width: 866
Flags: MW
HStem: 0 47<97 104 97 107.5 307 309 499 517 760 773 773 780.5> 192 47<357 555 357 560 328 555> 691 20G<599 625> 741 21G<460 460 780 780> 1087 20G<757 782>
VStem: 73 260<18 32.5>
LayerCount: 2
Fore
SplineSet
805 29 m 0
 805 0 787 0 777 0 c 0
 732 0 685 3 640 3 c 0
 591 3 541 0 493 0 c 0
 471 0 471 18 471 18 c 1
 471 47 488 47 510 47 c 0
 530 47 556 48 575 52 c 1
 560 192 l 1
 328 192 l 1
 247 57 l 1
 271 48 307 47 307 47 c 2
 315 47 333 47 333 29 c 0
 333 0 313 0 305 0 c 0
 268 0 228 3 190 3 c 0
 158 3 123 0 92 0 c 0
 73 0 73 18 73 18 c 1
 73 47 90 47 104 47 c 0
 176 48 187 66 198 84 c 2
 563 686 l 2
 578 711 588 711 610 711 c 0
 640 711 643 708 646 682 c 2
 712 66 l 2
 714 51 715 50 727 48 c 0
 735 47 751 47 760 47 c 2
 773 47 l 2
 788 47 805 47 805 29 c 0
555 239 m 1
 525 517 l 1
 357 239 l 1
 555 239 l 1
799 766 m 1x18
 780 741 l 1
 629 797 l 1
 460 741 l 1
 450 766 l 1
 648 905 l 1
 799 766 l 1x18
813 1050 m 0
 807 1020 780 1009 765 1004 c 2
 599 943 l 2
 593 941 588 940 582 940 c 0
 566 942 559 971 560 977 c 0
 561 984 569 990 575 994 c 2
 715 1085 l 2
 735 1098 748 1107 766 1107 c 0
 798 1107 818 1082 813 1050 c 0
EndSplineSet
Position2: "'cpsp' Capital Spacing lookup 0 subtable" dx=7 dy=0 dh=14 dv=0
EndChar

StartChar: acircumflexacute
Encoding: 7845 7845 146
Width: 591
Flags: MW
HStem: -8 36<248.5 275.5 248.5 286.5 489 512> 416 36<351 377 280 381.5> 497 21G<262 262 582 582> 843 20G<559 584>
VStem: 96 107<92.5 126 70.5 219>
LayerCount: 2
Fore
SplineSet
615 148 m 0
 615 144 602 88 576 46 c 0
 563 26 538 -8 491 -8 c 0
 452 -8 407 8 388 43 c 1
 364 24 317 -8 256 -8 c 0
 180 -8 96 33 96 152 c 0
 96 286 196 452 364 452 c 0
 390 452 429 447 461 414 c 1
 474 427 491 435 508 435 c 0
 536 435 553 416 553 393 c 0
 553 389 553 387 549 372 c 2
 482 102 l 2
 478 86 476 78 476 59 c 0
 476 36 483 28 495 28 c 0
 529 28 547 103 555 136 c 0
 562 161 563 162 587 162 c 0
 602 162 615 162 615 148 c 0
376 100 m 1
 377 108 377 111 379 118 c 2
 438 354 l 1
 427 394 399 416 364 416 c 0
 338 416 283 401 249 304 c 0
 238 276 203 153 203 99 c 0
 203 42 237 28 260 28 c 0
 291 28 333 43 376 100 c 1
601 522 m 1x30
 582 497 l 1
 431 553 l 1
 262 497 l 1
 252 522 l 1
 450 661 l 1
 601 522 l 1x30
615 806 m 0
 609 776 582 765 567 760 c 2
 401 699 l 2
 395 697 390 696 384 696 c 0
 368 698 361 727 362 733 c 0
 363 740 371 746 377 750 c 2
 517 841 l 2
 537 854 550 863 568 863 c 0
 600 863 620 838 615 806 c 0
EndSplineSet
EndChar

StartChar: Acircumflexdotbelow
Encoding: 7852 7852 147
Width: 866
Flags: MW
HStem: 0 47<97 104 97 107.5 307 309 499 517 760 773 773 780.5> 192 47<357 555 357 560 328 555> 691 20G<599 625> 741 21G<460 460 780 780> 885 20G<648 648>
VStem: 73 260<18 32.5>
LayerCount: 2
Fore
SplineSet
805 29 m 0
 805 0 787 0 777 0 c 0
 732 0 685 3 640 3 c 0
 591 3 541 0 493 0 c 0
 471 0 471 18 471 18 c 1
 471 47 488 47 510 47 c 0
 530 47 556 48 575 52 c 1
 560 192 l 1
 328 192 l 1
 247 57 l 1
 271 48 307 47 307 47 c 2
 315 47 333 47 333 29 c 0
 333 0 313 0 305 0 c 0
 268 0 228 3 190 3 c 0
 158 3 123 0 92 0 c 0
 73 0 73 18 73 18 c 1
 73 47 90 47 104 47 c 0
 176 48 187 66 198 84 c 2
 563 686 l 2
 578 711 588 711 610 711 c 0
 640 711 643 708 646 682 c 2
 712 66 l 2
 714 51 715 50 727 48 c 0
 735 47 751 47 760 47 c 2
 773 47 l 2
 788 47 805 47 805 29 c 0
555 239 m 1
 525 517 l 1
 357 239 l 1
 555 239 l 1
799 766 m 1
 780 741 l 1
 629 797 l 1
 460 741 l 1
 450 766 l 1
 648 905 l 1
 799 766 l 1
477 -113 m 0
 477 -156 435 -200 388 -200 c 0
 350 -200 326 -172 326 -140 c 0
 326 -96 369 -53 415 -53 c 0
 456 -53 477 -85 477 -113 c 0
EndSplineSet
Position2: "'cpsp' Capital Spacing lookup 0 subtable" dx=7 dy=0 dh=14 dv=0
EndChar

StartChar: acircumflexdotbelow
Encoding: 7853 7853 148
Width: 591
Flags: MW
HStem: -8 36<248.5 275.5 248.5 286.5 489 512> 416 36<351 377 280 381.5> 497 21G<265 265 580 580> 684 20G<457 457>
VStem: 96 107<92.5 126 70.5 219>
LayerCount: 2
Fore
SplineSet
615 148 m 0
 615 144 602 88 576 46 c 0
 563 26 538 -8 491 -8 c 0
 452 -8 407 8 388 43 c 1
 364 24 317 -8 256 -8 c 0
 180 -8 96 33 96 152 c 0
 96 286 196 452 364 452 c 0
 390 452 429 447 461 414 c 1
 474 427 491 435 508 435 c 0
 536 435 553 416 553 393 c 0
 553 389 553 387 549 372 c 2
 482 102 l 2
 478 86 476 78 476 59 c 0
 476 36 483 28 495 28 c 0
 529 28 547 103 555 136 c 0
 562 161 563 162 587 162 c 0
 602 162 615 162 615 148 c 0
376 100 m 1
 377 108 377 111 379 118 c 2
 438 354 l 1
 427 394 399 416 364 416 c 0
 338 416 283 401 249 304 c 0
 238 276 203 153 203 99 c 0
 203 42 237 28 260 28 c 0
 291 28 333 43 376 100 c 1
603 519 m 1
 580 497 l 1
 439 596 l 1
 265 497 l 1
 250 519 l 1
 457 704 l 1
 603 519 l 1
340 -113 m 0
 340 -156 298 -200 251 -200 c 0
 213 -200 189 -172 189 -140 c 0
 189 -96 232 -53 278 -53 c 0
 319 -53 340 -85 340 -113 c 0
EndSplineSet
EndChar

StartChar: Acircumflexgrave
Encoding: 7846 7846 149
Width: 866
Flags: MW
HStem: 0 47<97 104 97 107.5 307 309 499 517 760 773 773 780.5> 192 47<357 555 357 560 328 555> 691 20G<599 625> 741 21G<460 460 780 780> 885 20G<648 648>
VStem: 73 260<18 32.5>
LayerCount: 2
Fore
SplineSet
805 29 m 0
 805 0 787 0 777 0 c 0
 732 0 685 3 640 3 c 0
 591 3 541 0 493 0 c 0
 471 0 471 18 471 18 c 1
 471 47 488 47 510 47 c 0
 530 47 556 48 575 52 c 1
 560 192 l 1
 328 192 l 1
 247 57 l 1
 271 48 307 47 307 47 c 2
 315 47 333 47 333 29 c 0
 333 0 313 0 305 0 c 0
 268 0 228 3 190 3 c 0
 158 3 123 0 92 0 c 0
 73 0 73 18 73 18 c 1
 73 47 90 47 104 47 c 0
 176 48 187 66 198 84 c 2
 563 686 l 2
 578 711 588 711 610 711 c 0
 640 711 643 708 646 682 c 2
 712 66 l 2
 714 51 715 50 727 48 c 0
 735 47 751 47 760 47 c 2
 773 47 l 2
 788 47 805 47 805 29 c 0
555 239 m 1
 525 517 l 1
 357 239 l 1
 555 239 l 1
799 766 m 1x18
 780 741 l 1
 629 797 l 1
 460 741 l 1
 450 766 l 1
 648 905 l 1
 799 766 l 1x18
795 977 m 0
 798 984 793 990 789 994 c 2
 694 1085 l 2
 681 1098 672 1107 655 1107 c 0
 622 1107 589 1082 579 1050 c 0
 570 1020 591 1009 604 1004 c 2
 739 943 l 2
 744 941 748 940 755 940 c 0
 772 942 793 971 795 977 c 0
EndSplineSet
Position2: "'cpsp' Capital Spacing lookup 0 subtable" dx=7 dy=0 dh=14 dv=0
EndChar

StartChar: acircumflexgrave
Encoding: 7847 7847 150
Width: 591
Flags: MW
HStem: -8 36<248.5 275.5 248.5 286.5 489 512> 416 36<351 377 280 381.5> 497 21G<262 262 582 582> 641 20G<450 450>
VStem: 96 107<92.5 126 70.5 219>
LayerCount: 2
Fore
SplineSet
615 148 m 0
 615 144 602 88 576 46 c 0
 563 26 538 -8 491 -8 c 0
 452 -8 407 8 388 43 c 1
 364 24 317 -8 256 -8 c 0
 180 -8 96 33 96 152 c 0
 96 286 196 452 364 452 c 0
 390 452 429 447 461 414 c 1
 474 427 491 435 508 435 c 0
 536 435 553 416 553 393 c 0
 553 389 553 387 549 372 c 2
 482 102 l 2
 478 86 476 78 476 59 c 0
 476 36 483 28 495 28 c 0
 529 28 547 103 555 136 c 0
 562 161 563 162 587 162 c 0
 602 162 615 162 615 148 c 0
376 100 m 1
 377 108 377 111 379 118 c 2
 438 354 l 1
 427 394 399 416 364 416 c 0
 338 416 283 401 249 304 c 0
 238 276 203 153 203 99 c 0
 203 42 237 28 260 28 c 0
 291 28 333 43 376 100 c 1
601 522 m 1x30
 582 497 l 1
 431 553 l 1
 262 497 l 1
 252 522 l 1
 450 661 l 1
 601 522 l 1x30
597 733 m 0
 600 740 595 746 591 750 c 2
 496 841 l 2
 483 854 474 863 457 863 c 0
 424 863 391 838 381 806 c 0
 372 776 393 765 406 760 c 2
 541 699 l 2
 546 697 550 696 557 696 c 0
 574 698 595 727 597 733 c 0
EndSplineSet
EndChar

StartChar: Acircumflexhookabove
Encoding: 7848 7848 151
Width: 866
Flags: MW
HStem: 0 47<97 104 97 107.5 307 309 499 517 760 773 773 780.5> 192 47<357 555 357 560 328 555> 691 20G<599 625> 741 21G<460 460 780 780> 1102 20G<782 822>
VStem: 73 260<18 32.5>
LayerCount: 2
Fore
SplineSet
805 29 m 0
 805 0 787 0 777 0 c 0
 732 0 685 3 640 3 c 0
 591 3 541 0 493 0 c 0
 471 0 471 18 471 18 c 1
 471 47 488 47 510 47 c 0
 530 47 556 48 575 52 c 1
 560 192 l 1
 328 192 l 1
 247 57 l 1
 271 48 307 47 307 47 c 2
 315 47 333 47 333 29 c 0
 333 0 313 0 305 0 c 0
 268 0 228 3 190 3 c 0
 158 3 123 0 92 0 c 0
 73 0 73 18 73 18 c 1
 73 47 90 47 104 47 c 0
 176 48 187 66 198 84 c 2
 563 686 l 2
 578 711 588 711 610 711 c 0
 640 711 643 708 646 682 c 2
 712 66 l 2
 714 51 715 50 727 48 c 0
 735 47 751 47 760 47 c 2
 773 47 l 2
 788 47 805 47 805 29 c 0
555 239 m 1
 525 517 l 1
 357 239 l 1
 555 239 l 1
799 766 m 1x18
 780 741 l 1
 629 797 l 1
 460 741 l 1
 450 766 l 1
 648 905 l 1
 799 766 l 1x18
904 1053 m 0
 899 1033 882 1018 863 1010 c 0
 815 991 788 974 781 948 c 2
 777 931 l 2
 775 924 769 920 763 920 c 2
 760 920 l 2
 754 922 749 928 749 934 c 2
 750 937 l 1
 754 955 l 2
 762 985 784 1013 812 1034 c 0
 819 1040 824 1049 827 1059 c 0
 830 1072 832 1079 832 1084 c 2
 831 1088 l 2
 828 1092 820 1094 807 1094 c 0
 792 1094 777 1091 765 1085 c 1
 771 1080 775 1072 775 1063 c 0
 775 1059 774 1056 773 1052 c 0
 768 1031 749 1018 730 1018 c 0
 712 1018 697 1029 697 1049 c 0
 697 1052 697 1056 698 1059 c 2
 698 1060 l 1
 709 1101 758 1122 806 1122 c 0
 838 1122 863 1119 883 1107 c 0
 897 1098 905 1083 905 1066 c 0
 905 1062 905 1057 904 1053 c 0
EndSplineSet
Position2: "'cpsp' Capital Spacing lookup 0 subtable" dx=7 dy=0 dh=14 dv=0
EndChar

StartChar: acircumflexhookabove
Encoding: 7849 7849 152
Width: 591
Flags: MW
HStem: -8 36<248.5 275.5 248.5 286.5 489 512> 416 36<351 377 280 381.5> 497 21G<262 262 582 582> 858 20G<584 624>
VStem: 96 107<92.5 126 70.5 219>
LayerCount: 2
Fore
SplineSet
615 148 m 0
 615 144 602 88 576 46 c 0
 563 26 538 -8 491 -8 c 0
 452 -8 407 8 388 43 c 1
 364 24 317 -8 256 -8 c 0
 180 -8 96 33 96 152 c 0
 96 286 196 452 364 452 c 0
 390 452 429 447 461 414 c 1
 474 427 491 435 508 435 c 0
 536 435 553 416 553 393 c 0
 553 389 553 387 549 372 c 2
 482 102 l 2
 478 86 476 78 476 59 c 0
 476 36 483 28 495 28 c 0
 529 28 547 103 555 136 c 0
 562 161 563 162 587 162 c 0
 602 162 615 162 615 148 c 0
376 100 m 1
 377 108 377 111 379 118 c 2
 438 354 l 1
 427 394 399 416 364 416 c 0
 338 416 283 401 249 304 c 0
 238 276 203 153 203 99 c 0
 203 42 237 28 260 28 c 0
 291 28 333 43 376 100 c 1
601 522 m 1x30
 582 497 l 1
 431 553 l 1
 262 497 l 1
 252 522 l 1
 450 661 l 1
 601 522 l 1x30
706 809 m 0
 701 789 684 774 665 766 c 0
 617 747 590 730 583 704 c 2
 579 687 l 2
 577 680 571 676 565 676 c 2
 562 676 l 2
 556 678 551 684 551 690 c 2
 552 693 l 1
 556 711 l 2
 564 741 586 769 614 790 c 0
 621 796 626 805 629 815 c 0
 632 828 634 835 634 840 c 2
 633 844 l 2
 630 848 622 850 609 850 c 0
 594 850 579 847 567 841 c 1
 573 836 577 828 577 819 c 0
 577 815 576 812 575 808 c 0
 570 787 551 774 532 774 c 0
 514 774 499 785 499 805 c 0
 499 808 499 812 500 815 c 2
 500 816 l 1
 511 857 560 878 608 878 c 0
 640 878 665 875 685 863 c 0
 699 854 707 839 707 822 c 0
 707 818 707 813 706 809 c 0
EndSplineSet
EndChar

StartChar: Acircumflextilde
Encoding: 7850 7850 153
Width: 866
Flags: MW
HStem: 0 47<97 104 97 107.5 307 309 499 517 760 773 773 780.5> 192 47<357 555 357 560 328 555> 691 20G<599 625> 741 21G<460 460 780 780> 960 58<719 765.5> 1021 58<631 632>
VStem: 73 260<18 32.5>
LayerCount: 2
Fore
SplineSet
805 29 m 0
 805 0 787 0 777 0 c 0
 732 0 685 3 640 3 c 0
 591 3 541 0 493 0 c 0
 471 0 471 18 471 18 c 1
 471 47 488 47 510 47 c 0
 530 47 556 48 575 52 c 1
 560 192 l 1
 328 192 l 1
 247 57 l 1
 271 48 307 47 307 47 c 2
 315 47 333 47 333 29 c 0
 333 0 313 0 305 0 c 0
 268 0 228 3 190 3 c 0
 158 3 123 0 92 0 c 0
 73 0 73 18 73 18 c 1
 73 47 90 47 104 47 c 0
 176 48 187 66 198 84 c 2
 563 686 l 2
 578 711 588 711 610 711 c 0
 640 711 643 708 646 682 c 2
 712 66 l 2
 714 51 715 50 727 48 c 0
 735 47 751 47 760 47 c 2
 773 47 l 2
 788 47 805 47 805 29 c 0
555 239 m 1
 525 517 l 1
 357 239 l 1
 555 239 l 1
799 766 m 1x1c
 780 741 l 1
 629 797 l 1
 460 741 l 1
 450 766 l 1
 648 905 l 1
 799 766 l 1x1c
875 1061 m 0
 875 1047 830 1012 814 999 c 0
 789 979 757 960 728 960 c 0
 710 960 691 965 660 999 c 0
 649 1013 639 1021 625 1021 c 0
 598 1021 559 989 537 970 c 0
 531 964 526 960 519 960 c 0
 506 960 501 972 501 978 c 0
 501 991 542 1024 558 1036 c 0
 576 1050 614 1079 648 1079 c 0
 668 1079 688 1071 709 1047 c 0
 728 1025 738 1018 751 1018 c 0
 780 1018 823 1055 836 1066 c 0
 845 1075 849 1079 857 1079 c 0
 867 1079 875 1071 875 1061 c 0
EndSplineSet
Position2: "'cpsp' Capital Spacing lookup 0 subtable" dx=7 dy=0 dh=14 dv=0
EndChar

StartChar: acircumflextilde
Encoding: 7851 7851 154
Width: 591
Flags: MW
HStem: -8 36<248.5 275.5 248.5 286.5 489 512> 416 36<351 377 280 381.5> 497 21G<262 262 582 582> 716 58<521 567.5> 777 58<433 434>
VStem: 96 107<92.5 126 70.5 219>
LayerCount: 2
Fore
SplineSet
615 148 m 0
 615 144 602 88 576 46 c 0
 563 26 538 -8 491 -8 c 0
 452 -8 407 8 388 43 c 1
 364 24 317 -8 256 -8 c 0
 180 -8 96 33 96 152 c 0
 96 286 196 452 364 452 c 0
 390 452 429 447 461 414 c 1
 474 427 491 435 508 435 c 0
 536 435 553 416 553 393 c 0
 553 389 553 387 549 372 c 2
 482 102 l 2
 478 86 476 78 476 59 c 0
 476 36 483 28 495 28 c 0
 529 28 547 103 555 136 c 0
 562 161 563 162 587 162 c 0
 602 162 615 162 615 148 c 0
376 100 m 1
 377 108 377 111 379 118 c 2
 438 354 l 1
 427 394 399 416 364 416 c 0
 338 416 283 401 249 304 c 0
 238 276 203 153 203 99 c 0
 203 42 237 28 260 28 c 0
 291 28 333 43 376 100 c 1
601 522 m 1x38
 582 497 l 1
 431 553 l 1
 262 497 l 1
 252 522 l 1
 450 661 l 1
 601 522 l 1x38
677 817 m 0
 677 803 632 768 616 755 c 0
 591 735 559 716 530 716 c 0
 512 716 493 721 462 755 c 0
 451 769 441 777 427 777 c 0
 400 777 361 745 339 726 c 0
 333 720 328 716 321 716 c 0
 308 716 303 728 303 734 c 0
 303 747 344 780 360 792 c 0
 378 806 416 835 450 835 c 0
 470 835 490 827 511 803 c 0
 530 781 540 774 553 774 c 0
 582 774 625 811 638 822 c 0
 647 831 651 835 659 835 c 0
 669 835 677 827 677 817 c 0
EndSplineSet
EndChar

StartChar: acute
Encoding: 180 180 155
Width: 591
Flags: MW
HStem: 502 21G<380 391> 679 20G<538 561.5>
LayerCount: 2
Fore
SplineSet
596 651 m 0
 596 620 571 605 557 597 c 2
 404 508 l 2
 399 505 394 502 388 502 c 0
 372 502 360 529 360 535 c 0
 360 542 366 549 372 554 c 2
 494 668 l 2
 514 687 527 699 549 699 c 0
 574 699 596 679 596 651 c 0
EndSplineSet
EndChar

StartChar: uni0301
Encoding: 769 769 156
Width: 0
Flags: MW
HStem: 502 21G<-211 -200> 679 20G<-53 -29.5>
LayerCount: 2
Fore
SplineSet
5 651 m 0
 5 620 -20 605 -34 597 c 2
 -187 508 l 2
 -192 505 -197 502 -203 502 c 0
 -219 502 -231 529 -231 535 c 0
 -231 542 -225 549 -219 554 c 2
 -97 668 l 2
 -77 687 -64 699 -42 699 c 0
 -17 699 5 679 5 651 c 0
EndSplineSet
EndChar

StartChar: Adblgrave
Encoding: 512 512 157
Width: 866
Flags: MW
HStem: 0 47<97 104 97 107.5 307 309 499 517 760 773 773 780.5> 192 47<357 555 357 560 328 555> 691 20G<599 625> 751 21G<519 521 696 698> 927 20G<505.5 535 682.5 712>
VStem: 73 260<18 32.5>
LayerCount: 2
Fore
SplineSet
805 29 m 0
 805 0 787 0 777 0 c 0
 732 0 685 3 640 3 c 0
 591 3 541 0 493 0 c 0
 471 0 471 18 471 18 c 1
 471 47 488 47 510 47 c 0
 530 47 556 48 575 52 c 1
 560 192 l 1
 328 192 l 1
 247 57 l 1
 271 48 307 47 307 47 c 2
 315 47 333 47 333 29 c 0
 333 0 313 0 305 0 c 0
 268 0 228 3 190 3 c 0
 158 3 123 0 92 0 c 0
 73 0 73 18 73 18 c 1
 73 47 90 47 104 47 c 0
 176 48 187 66 198 84 c 2
 563 686 l 2
 578 711 588 711 610 711 c 0
 640 711 643 708 646 682 c 2
 712 66 l 2
 714 51 715 50 727 48 c 0
 735 47 751 47 760 47 c 2
 773 47 l 2
 788 47 805 47 805 29 c 0
555 239 m 1
 525 517 l 1
 357 239 l 1
 555 239 l 1
564 778 m 0x18
 556 761 523 751 519 751 c 2
 519 751 510 751 504 761 c 2
 450 855 l 2
 445 865 436 878 447 900 c 0
 460 926 491 947 520 947 c 0
 550 947 556 924 557 913 c 2
 566 795 l 2
 567 784 566 782 564 778 c 0x18
741 778 m 0
 733 761 700 751 696 751 c 2
 696 751 687 751 681 761 c 2
 627 855 l 2
 622 865 613 878 624 900 c 0
 637 926 668 947 697 947 c 0
 727 947 733 924 734 913 c 2
 743 795 l 2
 744 784 743 782 741 778 c 0
EndSplineSet
Position2: "'cpsp' Capital Spacing lookup 0 subtable" dx=7 dy=0 dh=14 dv=0
EndChar

StartChar: adblgrave
Encoding: 513 513 158
Width: 591
Flags: MW
HStem: -8 36<248.5 275.5 248.5 286.5 489 512> 416 36<351 377 280 381.5> 503 21G<349 351 526 528> 679 20G<335.5 365 512.5 542>
VStem: 96 107<92.5 126 70.5 219>
LayerCount: 2
Fore
SplineSet
615 148 m 0
 615 144 602 88 576 46 c 0
 563 26 538 -8 491 -8 c 0
 452 -8 407 8 388 43 c 1
 364 24 317 -8 256 -8 c 0
 180 -8 96 33 96 152 c 0
 96 286 196 452 364 452 c 0
 390 452 429 447 461 414 c 1
 474 427 491 435 508 435 c 0
 536 435 553 416 553 393 c 0
 553 389 553 387 549 372 c 2
 482 102 l 2
 478 86 476 78 476 59 c 0
 476 36 483 28 495 28 c 0
 529 28 547 103 555 136 c 0
 562 161 563 162 587 162 c 0
 602 162 615 162 615 148 c 0
376 100 m 1
 377 108 377 111 379 118 c 2
 438 354 l 1
 427 394 399 416 364 416 c 0
 338 416 283 401 249 304 c 0
 238 276 203 153 203 99 c 0
 203 42 237 28 260 28 c 0
 291 28 333 43 376 100 c 1
394 530 m 0x30
 386 513 353 503 349 503 c 2
 349 503 340 503 334 513 c 2
 280 607 l 2
 275 617 266 630 277 652 c 0
 290 678 321 699 350 699 c 0
 380 699 386 676 387 665 c 2
 396 547 l 2
 397 536 396 534 394 530 c 0x30
571 530 m 0
 563 513 530 503 526 503 c 2
 526 503 517 503 511 513 c 2
 457 607 l 2
 452 617 443 630 454 652 c 0
 467 678 498 699 527 699 c 0
 557 699 563 676 564 665 c 2
 573 547 l 2
 574 536 573 534 571 530 c 0
EndSplineSet
EndChar

StartChar: Adieresis
Encoding: 196 196 159
Width: 866
Flags: MW
HStem: 0 47<97 104 97 107.5 307 309 499 517 760 773 773 780.5> 192 47<357 555 357 560 328 555> 691 20G<599 625> 741 132<480.5 498 771.5 789>
VStem: 73 260<18 32.5>
LayerCount: 2
Fore
SplineSet
805 29 m 0
 805 0 787 0 777 0 c 0
 732 0 685 3 640 3 c 0
 591 3 541 0 493 0 c 0
 471 0 471 18 471 18 c 1
 471 47 488 47 510 47 c 0
 530 47 556 48 575 52 c 1
 560 192 l 1
 328 192 l 1
 247 57 l 1
 271 48 307 47 307 47 c 2
 315 47 333 47 333 29 c 0
 333 0 313 0 305 0 c 0
 268 0 228 3 190 3 c 0
 158 3 123 0 92 0 c 0
 73 0 73 18 73 18 c 1
 73 47 90 47 104 47 c 0
 176 48 187 66 198 84 c 2
 563 686 l 2
 578 711 588 711 610 711 c 0
 640 711 643 708 646 682 c 2
 712 66 l 2
 714 51 715 50 727 48 c 0
 735 47 751 47 760 47 c 2
 773 47 l 2
 788 47 805 47 805 29 c 0
555 239 m 1
 525 517 l 1
 357 239 l 1
 555 239 l 1
557 819 m 0x10
 557 780 519 741 477 741 c 0
 442 741 422 766 421 795 c 0
 421 834 460 873 501 873 c 0
 538 873 557 844 557 819 c 0x10
848 819 m 0
 848 780 810 741 768 741 c 0
 733 741 713 766 712 795 c 0
 712 834 751 873 792 873 c 0
 829 873 848 844 848 819 c 0
EndSplineSet
Position2: "'cpsp' Capital Spacing lookup 0 subtable" dx=7 dy=0 dh=14 dv=0
EndChar

StartChar: adieresis
Encoding: 228 228 160
Width: 591
Flags: MW
HStem: -8 36<248.5 275.5 248.5 286.5 489 512> 416 36<351 377 280 381.5> 535 132<315.5 333 560.5 578>
VStem: 96 107<92.5 126 70.5 219>
LayerCount: 2
Fore
SplineSet
615 148 m 0
 615 144 602 88 576 46 c 0
 563 26 538 -8 491 -8 c 0
 452 -8 407 8 388 43 c 1
 364 24 317 -8 256 -8 c 0
 180 -8 96 33 96 152 c 0
 96 286 196 452 364 452 c 0
 390 452 429 447 461 414 c 1
 474 427 491 435 508 435 c 0
 536 435 553 416 553 393 c 0
 553 389 553 387 549 372 c 2
 482 102 l 2
 478 86 476 78 476 59 c 0
 476 36 483 28 495 28 c 0
 529 28 547 103 555 136 c 0
 562 161 563 162 587 162 c 0
 602 162 615 162 615 148 c 0
376 100 m 1
 377 108 377 111 379 118 c 2
 438 354 l 1
 427 394 399 416 364 416 c 0
 338 416 283 401 249 304 c 0
 238 276 203 153 203 99 c 0
 203 42 237 28 260 28 c 0
 291 28 333 43 376 100 c 1
391 613 m 0x20
 391 574 354 535 312 535 c 0
 277 535 256 560 255 589 c 0
 255 628 295 667 336 667 c 0
 373 667 391 638 391 613 c 0x20
636 613 m 0
 636 574 599 535 557 535 c 0
 522 535 501 560 500 589 c 0
 500 628 540 667 581 667 c 0
 618 667 636 638 636 613 c 0
EndSplineSet
EndChar

StartChar: Adotbelow
Encoding: 7840 7840 161
Width: 866
Flags: MW
HStem: 0 47<97 104 97 107.5 307 309 499 517 760 773 773 780.5> 192 47<357 555 357 560 328 555> 691 20G<599 625>
VStem: 73 260<18 32.5>
LayerCount: 2
Fore
SplineSet
805 29 m 0
 805 0 787 0 777 0 c 0
 732 0 685 3 640 3 c 0
 591 3 541 0 493 0 c 0
 471 0 471 18 471 18 c 1
 471 47 488 47 510 47 c 0
 530 47 556 48 575 52 c 1
 560 192 l 1
 328 192 l 1
 247 57 l 1
 271 48 307 47 307 47 c 2
 315 47 333 47 333 29 c 0
 333 0 313 0 305 0 c 0
 268 0 228 3 190 3 c 0
 158 3 123 0 92 0 c 0
 73 0 73 18 73 18 c 1
 73 47 90 47 104 47 c 0
 176 48 187 66 198 84 c 2
 563 686 l 2
 578 711 588 711 610 711 c 0
 640 711 643 708 646 682 c 2
 712 66 l 2
 714 51 715 50 727 48 c 0
 735 47 751 47 760 47 c 2
 773 47 l 2
 788 47 805 47 805 29 c 0
555 239 m 1
 525 517 l 1
 357 239 l 1
 555 239 l 1
477 -113 m 0
 477 -156 435 -200 388 -200 c 0
 350 -200 326 -172 326 -140 c 0
 326 -96 369 -53 415 -53 c 0
 456 -53 477 -85 477 -113 c 0
EndSplineSet
Position2: "'cpsp' Capital Spacing lookup 0 subtable" dx=7 dy=0 dh=14 dv=0
EndChar

StartChar: adotbelow
Encoding: 7841 7841 162
Width: 591
Flags: MW
HStem: -8 36<248.5 275.5 248.5 286.5 489 512> 416 36<351 377 280 381.5>
VStem: 96 107<92.5 126 70.5 219>
LayerCount: 2
Fore
SplineSet
615 148 m 0
 615 144 602 88 576 46 c 0
 563 26 538 -8 491 -8 c 0
 452 -8 407 8 388 43 c 1
 364 24 317 -8 256 -8 c 0
 180 -8 96 33 96 152 c 0
 96 286 196 452 364 452 c 0
 390 452 429 447 461 414 c 1
 474 427 491 435 508 435 c 0
 536 435 553 416 553 393 c 0
 553 389 553 387 549 372 c 2
 482 102 l 2
 478 86 476 78 476 59 c 0
 476 36 483 28 495 28 c 0
 529 28 547 103 555 136 c 0
 562 161 563 162 587 162 c 0
 602 162 615 162 615 148 c 0
376 100 m 1
 377 108 377 111 379 118 c 2
 438 354 l 1
 427 394 399 416 364 416 c 0
 338 416 283 401 249 304 c 0
 238 276 203 153 203 99 c 0
 203 42 237 28 260 28 c 0
 291 28 333 43 376 100 c 1
340 -113 m 0
 340 -156 298 -200 251 -200 c 0
 213 -200 189 -172 189 -140 c 0
 189 -96 232 -53 278 -53 c 0
 319 -53 340 -85 340 -113 c 0
EndSplineSet
EndChar

StartChar: AE
Encoding: 198 198 163
Width: 1023
Flags: MW
HStem: 0 47<96.5 101 96.5 108 302.5 310.5 435 443 443 454 641 721 721 798> 306 47<432 553 403 565 694 741> 639 47<498.5 1040 509 546 778 790 790 835>
VStem: 73 260<14.5 32.5>
LayerCount: 2
Fore
SplineSet
1027 256 m 0
 1027 250 1024 244 1022 239 c 2
 927 17 l 2
 920 0 915 0 894 0 c 2
 432 0 l 2
 418 0 400 0 400 18 c 0
 400 47 418 47 435 47 c 2
 443 47 l 2
 465 47 467 47 475 48 c 0
 489 50 490 50 493 64 c 2
 553 306 l 1
 403 306 l 1
 248 57 l 1
 269 49 298 47 307 47 c 0
 316 47 333 47 333 29 c 0
 333 0 315 0 306 0 c 0
 268 0 228 3 190 3 c 0
 158 3 124 0 92 0 c 0
 79 0 73 10 73 18 c 0
 73 47 92 47 101 47 c 0
 177 48 187 65 200 85 c 2
 546 639 l 1
 506 639 l 2
 491 639 474 639 474 657 c 0
 474 686 492 686 509 686 c 2
 1040 686 l 2
 1062 686 1075 686 1071 654 c 2
 1050 472 l 2
 1047 449 1044 445 1021 445 c 0
 1008 445 993 445 993 466 c 0
 993 471 995 485 996 490 c 0
 998 509 999 514 999 538 c 0
 999 637 943 639 835 639 c 2
 790 639 l 2
 766 639 765 638 761 623 c 2
 694 353 l 1
 744 353 l 2
 820 353 841 375 860 447 c 0
 866 467 868 470 890 470 c 0
 900 470 918 470 918 452 c 0
 918 447 916 441 915 436 c 2
 859 212 l 2
 853 189 846 189 829 189 c 0
 819 189 801 189 801 207 c 0
 801 210 801 211 803 220 c 0
 805 227 811 251 811 266 c 0
 811 296 796 306 741 306 c 2
 682 306 l 1
 618 48 l 1
 625 47 632 47 641 47 c 2
 721 47 l 2
 875 47 915 130 965 247 c 0
 977 273 977 274 999 274 c 0
 1009 274 1027 274 1027 256 c 0
565 353 m 1
 635 636 l 1
 628 637 617 637 609 637 c 1
 432 353 l 1
 565 353 l 1
EndSplineSet
Position2: "'cpsp' Capital Spacing lookup 0 subtable" dx=7 dy=0 dh=14 dv=0
EndChar

StartChar: ae
Encoding: 230 230 164
Width: 826
Flags: W
HStem: -10 36<231.655 328.207 537.062 670.373> 219 36<524.211 684.894> 419 37<320.92 427.599 621.408 745.137>
VStem: 106 107<62.9649 219.067> 416 86<109.524 218.79> 761 66<303.561 405.837>
LayerCount: 2
Fore
SplineSet
429 81 m 1
 403 32 328 -10 264 -10 c 0
 219 -10 172 7 142 41 c 0
 116 73 106 115 106 155 c 0
 106 302 212 456 370 456 c 0
 407 456 443 446 471 421 c 1
 481 441 500 456 524 456 c 0
 542 456 558 447 563 423 c 1
 607 441 648 456 696 456 c 0
 757 456 827 428 827 359 c 0
 827 221 645 219 549 219 c 2
 525 219 l 2
 508 219 502 169 502 131 c 0
 502 50 549 26 593 26 c 0
 652 26 703 56 744 97 c 0
 751 105 758 119 770 119 c 0
 784 119 801 96 801 89 c 2
 801 88 l 2
 801 78 790 68 783 61 c 0
 733 11 662 -10 593 -10 c 0
 529 -10 456 13 431 81 c 1
 429 81 l 1
453 353 m 2
 453 355 l 2
 453 392 412 419 377 419 c 0
 285 419 254 305 236 225 c 0
 225 184 213 141 213 99 c 0
 213 62 232 26 270 26 c 0
 299 26 329 41 350 60 c 0
 366 73 416 125 416 163 c 0
 416 169 415 175 415 180 c 0
 419 226 433 272 444 317 c 0
 447 329 452 341 453 353 c 2
524 255 m 1
 540 255 l 2
 616 255 761 258 761 360 c 0
 761 403 726 420 695 420 c 0
 594 420 553 338 524 255 c 1
EndSplineSet
EndChar

StartChar: AEacute
Encoding: 508 508 165
Width: 1023
Flags: MW
HStem: 0 47<96.5 101 96.5 108 302.5 310.5 435 443 443 454 641 721 721 798> 306 47<432 553 403 565 694 741> 639 47<498.5 1040 509 546 778 790 790 835> 751 21G<652 655> 898 20G<827 852>
VStem: 73 260<14.5 32.5>
LayerCount: 2
Fore
SplineSet
1027 256 m 0
 1027 250 1024 244 1022 239 c 2
 927 17 l 2
 920 0 915 0 894 0 c 2
 432 0 l 2
 418 0 400 0 400 18 c 0
 400 47 418 47 435 47 c 2
 443 47 l 2
 465 47 467 47 475 48 c 0
 489 50 490 50 493 64 c 2
 553 306 l 1
 403 306 l 1
 248 57 l 1
 269 49 298 47 307 47 c 0
 316 47 333 47 333 29 c 0
 333 0 315 0 306 0 c 0
 268 0 228 3 190 3 c 0
 158 3 124 0 92 0 c 0
 79 0 73 10 73 18 c 0
 73 47 92 47 101 47 c 0
 177 48 187 65 200 85 c 2
 546 639 l 1
 506 639 l 2
 491 639 474 639 474 657 c 0
 474 686 492 686 509 686 c 2
 1040 686 l 2
 1062 686 1075 686 1071 654 c 2
 1050 472 l 2
 1047 449 1044 445 1021 445 c 0
 1008 445 993 445 993 466 c 0
 993 471 995 485 996 490 c 0
 998 509 999 514 999 538 c 0
 999 637 943 639 835 639 c 2
 790 639 l 2
 766 639 765 638 761 623 c 2
 694 353 l 1
 744 353 l 2
 820 353 841 375 860 447 c 0
 866 467 868 470 890 470 c 0
 900 470 918 470 918 452 c 0
 918 447 916 441 915 436 c 2
 859 212 l 2
 853 189 846 189 829 189 c 0
 819 189 801 189 801 207 c 0
 801 210 801 211 803 220 c 0
 805 227 811 251 811 266 c 0
 811 296 796 306 741 306 c 2
 682 306 l 1
 618 48 l 1
 625 47 632 47 641 47 c 2
 721 47 l 2
 875 47 915 130 965 247 c 0
 977 273 977 274 999 274 c 0
 1009 274 1027 274 1027 256 c 0
565 353 m 1
 635 636 l 1
 628 637 617 637 609 637 c 1
 432 353 l 1
 565 353 l 1
883 861 m 0x18
 877 831 850 820 835 815 c 2
 669 754 l 2
 663 752 658 751 652 751 c 0
 636 753 629 782 630 788 c 0
 631 795 639 801 645 805 c 2
 785 896 l 2
 805 909 818 918 836 918 c 0
 868 918 888 893 883 861 c 0x18
EndSplineSet
Position2: "'cpsp' Capital Spacing lookup 0 subtable" dx=7 dy=0 dh=14 dv=0
EndChar

StartChar: aeacute
Encoding: 509 509 166
Width: 827
Flags: MW
HStem: -8 36<261 270.5 571.5 607> 218 36<525 546 546 561 516 546> 416 36<683.5 719.5> 502 21G<498 509> 679 20G<656 679.5>
VStem: 89 113<71 78 52.5 115> 762 65<305.5 371>
LayerCount: 2
Fore
SplineSet
803 87 m 0
 803 73 734 -8 594 -8 c 0
 549 -8 504 3 469 32 c 1
 456 -5 423 -8 416 -8 c 0
 399 -8 379 -1 376 28 c 1
 323 -8 278 -8 263 -8 c 0
 156 -8 89 36 89 106 c 0
 89 124 99 213 209 293 c 0
 291 353 408 391 469 409 c 1
 480 446 511 452 523 452 c 0
 553 452 562 430 564 419 c 1
 599 438 648 452 698 452 c 0
 768 452 827 418 827 356 c 0
 827 218 624 218 561 218 c 2
 516 218 l 1
 503 164 503 139 503 130 c 0
 503 52 547 28 595 28 c 0
 619 28 691 35 757 109 c 0
 762 116 765 119 772 119 c 0
 782 119 803 96 803 87 c 0
762 357 m 0
 762 385 743 416 696 416 c 0
 671 416 623 407 583 367 c 0
 556 338 536 296 525 254 c 1
 546 254 l 2
 601 254 762 254 762 357 c 0
397 122 m 2
 458 366 l 1
 388 339 323 295 283 250 c 0
 202 163 202 80 202 76 c 0
 202 29 253 28 269 28 c 0
 333 28 389 90 397 122 c 2
714 651 m 0x18
 714 620 689 605 675 597 c 2
 522 508 l 2
 517 505 512 502 506 502 c 0
 490 502 478 529 478 535 c 0
 478 542 484 549 490 554 c 2
 612 668 l 2
 632 687 645 699 667 699 c 0
 692 699 714 679 714 651 c 0x18
EndSplineSet
EndChar

StartChar: Agrave
Encoding: 192 192 167
Width: 866
Flags: MW
HStem: 0 47<97 104 97 107.5 307 309 499 517 760 773 773 780.5> 192 47<357 555 357 560 328 555> 691 20G<599 625> 751 21G<664.5 668> 898 20G<551.5 576.5>
VStem: 73 260<18 32.5>
LayerCount: 2
Fore
SplineSet
805 29 m 0
 805 0 787 0 777 0 c 0
 732 0 685 3 640 3 c 0
 591 3 541 0 493 0 c 0
 471 0 471 18 471 18 c 1
 471 47 488 47 510 47 c 0
 530 47 556 48 575 52 c 1
 560 192 l 1
 328 192 l 1
 247 57 l 1
 271 48 307 47 307 47 c 2
 315 47 333 47 333 29 c 0
 333 0 313 0 305 0 c 0
 268 0 228 3 190 3 c 0
 158 3 123 0 92 0 c 0
 73 0 73 18 73 18 c 1
 73 47 90 47 104 47 c 0
 176 48 187 66 198 84 c 2
 563 686 l 2
 578 711 588 711 610 711 c 0
 640 711 643 708 646 682 c 2
 712 66 l 2
 714 51 715 50 727 48 c 0
 735 47 751 47 760 47 c 2
 773 47 l 2
 788 47 805 47 805 29 c 0
555 239 m 1
 525 517 l 1
 357 239 l 1
 555 239 l 1
708 788 m 0x18
 706 782 685 753 668 751 c 0
 661 751 657 752 652 754 c 2
 517 815 l 2
 504 820 483 831 492 861 c 0
 502 893 535 918 568 918 c 0
 585 918 594 909 607 896 c 2
 702 805 l 2
 706 801 711 795 708 788 c 0x18
EndSplineSet
Position2: "'cpsp' Capital Spacing lookup 0 subtable" dx=7 dy=0 dh=14 dv=0
EndChar

StartChar: agrave
Encoding: 224 224 168
Width: 591
Flags: MW
HStem: -8 36<248.5 275.5 248.5 286.5 489 512> 416 36<351 377 280 381.5> 502 21G<451 462> 679 20G<379.5 403>
VStem: 96 107<92.5 126 70.5 219>
LayerCount: 2
Fore
SplineSet
615 148 m 0
 615 144 602 88 576 46 c 0
 563 26 538 -8 491 -8 c 0
 452 -8 407 8 388 43 c 1
 364 24 317 -8 256 -8 c 0
 180 -8 96 33 96 152 c 0
 96 286 196 452 364 452 c 0
 390 452 429 447 461 414 c 1
 474 427 491 435 508 435 c 0
 536 435 553 416 553 393 c 0
 553 389 553 387 549 372 c 2
 482 102 l 2
 478 86 476 78 476 59 c 0
 476 36 483 28 495 28 c 0
 529 28 547 103 555 136 c 0
 562 161 563 162 587 162 c 0
 602 162 615 162 615 148 c 0
376 100 m 1
 377 108 377 111 379 118 c 2
 438 354 l 1
 427 394 399 416 364 416 c 0
 338 416 283 401 249 304 c 0
 238 276 203 153 203 99 c 0
 203 42 237 28 260 28 c 0
 291 28 333 43 376 100 c 1
499 535 m 0x30
 496 529 470 502 454 502 c 0
 448 502 445 505 441 508 c 2
 333 597 l 2
 323 605 305 620 321 651 c 0
 335 679 367 699 392 699 c 0
 414 699 421 687 431 668 c 2
 496 554 l 2
 500 549 502 542 499 535 c 0x30
EndSplineSet
EndChar

StartChar: Ahookabove
Encoding: 7842 7842 169
Width: 866
Flags: MW
HStem: 0 47<97 104 97 107.5 307 309 499 517 760 773 773 780.5> 192 47<357 555 357 560 328 555> 691 20G<599 625> 758 21G<616 619 616 616> 940 20G<638 678>
VStem: 73 260<18 32.5>
LayerCount: 2
Fore
SplineSet
805 29 m 0
 805 0 787 0 777 0 c 0
 732 0 685 3 640 3 c 0
 591 3 541 0 493 0 c 0
 471 0 471 18 471 18 c 1
 471 47 488 47 510 47 c 0
 530 47 556 48 575 52 c 1
 560 192 l 1
 328 192 l 1
 247 57 l 1
 271 48 307 47 307 47 c 2
 315 47 333 47 333 29 c 0
 333 0 313 0 305 0 c 0
 268 0 228 3 190 3 c 0
 158 3 123 0 92 0 c 0
 73 0 73 18 73 18 c 1
 73 47 90 47 104 47 c 0
 176 48 187 66 198 84 c 2
 563 686 l 2
 578 711 588 711 610 711 c 0
 640 711 643 708 646 682 c 2
 712 66 l 2
 714 51 715 50 727 48 c 0
 735 47 751 47 760 47 c 2
 773 47 l 2
 788 47 805 47 805 29 c 0
555 239 m 1
 525 517 l 1
 357 239 l 1
 555 239 l 1
760 891 m 0x18
 755 871 738 856 719 848 c 0
 671 829 644 812 637 786 c 2
 633 769 l 2
 631 762 625 758 619 758 c 2
 616 758 l 2
 610 760 605 766 605 772 c 2
 606 775 l 1
 610 793 l 2
 618 823 640 851 668 872 c 0
 675 878 680 887 683 897 c 0
 686 910 688 917 688 922 c 2
 687 926 l 2
 684 930 676 932 663 932 c 0
 648 932 633 929 621 923 c 1
 627 918 631 910 631 901 c 0
 631 897 630 894 629 890 c 0
 624 869 605 856 586 856 c 0
 568 856 553 867 553 887 c 0
 553 890 553 894 554 897 c 2
 554 898 l 1
 565 939 614 960 662 960 c 0
 694 960 719 957 739 945 c 0
 753 936 761 921 761 904 c 0
 761 900 761 895 760 891 c 0x18
EndSplineSet
Position2: "'cpsp' Capital Spacing lookup 0 subtable" dx=7 dy=0 dh=14 dv=0
EndChar

StartChar: ahookabove
Encoding: 7843 7843 170
Width: 591
Flags: MW
HStem: -8 36<248.5 275.5 248.5 286.5 489 512> 416 36<351 377 280 381.5> 500 21G<414 417 414 414> 682 20G<436 476>
VStem: 96 107<92.5 126 70.5 219>
LayerCount: 2
Fore
SplineSet
615 148 m 0
 615 144 602 88 576 46 c 0
 563 26 538 -8 491 -8 c 0
 452 -8 407 8 388 43 c 1
 364 24 317 -8 256 -8 c 0
 180 -8 96 33 96 152 c 0
 96 286 196 452 364 452 c 0
 390 452 429 447 461 414 c 1
 474 427 491 435 508 435 c 0
 536 435 553 416 553 393 c 0
 553 389 553 387 549 372 c 2
 482 102 l 2
 478 86 476 78 476 59 c 0
 476 36 483 28 495 28 c 0
 529 28 547 103 555 136 c 0
 562 161 563 162 587 162 c 0
 602 162 615 162 615 148 c 0
376 100 m 1
 377 108 377 111 379 118 c 2
 438 354 l 1
 427 394 399 416 364 416 c 0
 338 416 283 401 249 304 c 0
 238 276 203 153 203 99 c 0
 203 42 237 28 260 28 c 0
 291 28 333 43 376 100 c 1
558 633 m 0x30
 553 613 536 598 517 590 c 0
 469 571 442 554 435 528 c 2
 431 511 l 2
 429 504 423 500 417 500 c 2
 414 500 l 2
 408 502 403 508 403 514 c 2
 404 517 l 1
 408 535 l 2
 416 565 438 593 466 614 c 0
 473 620 478 629 481 639 c 0
 484 652 486 659 486 664 c 2
 485 668 l 2
 482 672 474 674 461 674 c 0
 446 674 431 671 419 665 c 1
 425 660 429 652 429 643 c 0
 429 639 428 636 427 632 c 0
 422 611 403 598 384 598 c 0
 366 598 351 609 351 629 c 0
 351 632 351 636 352 639 c 2
 352 640 l 1
 363 681 412 702 460 702 c 0
 492 702 517 699 537 687 c 0
 551 678 559 663 559 646 c 0
 559 642 559 637 558 633 c 0x30
EndSplineSet
EndChar

StartChar: Alpha
Encoding: 913 913 171
Width: 866
Flags: MW
HStem: 0 47<97 104 97 107.5 307 309 499 517 760 773 773 780.5> 192 47<357 555 357 560 328 555> 691 20G<599 625>
VStem: 73 260<18 32.5>
LayerCount: 2
Fore
SplineSet
805 29 m 0
 805 0 787 0 777 0 c 0
 732 0 685 3 640 3 c 0
 591 3 541 0 493 0 c 0
 471 0 471 18 471 18 c 1
 471 47 488 47 510 47 c 0
 530 47 556 48 575 52 c 1
 560 192 l 1
 328 192 l 1
 247 57 l 1
 271 48 307 47 307 47 c 2
 315 47 333 47 333 29 c 0
 333 0 313 0 305 0 c 0
 268 0 228 3 190 3 c 0
 158 3 123 0 92 0 c 0
 73 0 73 18 73 18 c 1
 73 47 90 47 104 47 c 0
 176 48 187 66 198 84 c 2
 563 686 l 2
 578 711 588 711 610 711 c 0
 640 711 643 708 646 682 c 2
 712 66 l 2
 714 51 715 50 727 48 c 0
 735 47 751 47 760 47 c 2
 773 47 l 2
 788 47 805 47 805 29 c 0
555 239 m 1
 525 517 l 1
 357 239 l 1
 555 239 l 1
EndSplineSet
EndChar

StartChar: Amacron
Encoding: 256 256 172
Width: 866
Flags: MW
HStem: 0 47<97 104 97 107.5 307 309 499 517 760 773 773 780.5> 192 47<357 555 357 560 328 555> 691 20G<599 625> 761 50<462.5 790 473 787>
VStem: 73 260<18 32.5>
LayerCount: 2
Fore
SplineSet
805 29 m 0
 805 0 787 0 777 0 c 0
 732 0 685 3 640 3 c 0
 591 3 541 0 493 0 c 0
 471 0 471 18 471 18 c 1
 471 47 488 47 510 47 c 0
 530 47 556 48 575 52 c 1
 560 192 l 1
 328 192 l 1
 247 57 l 1
 271 48 307 47 307 47 c 2
 315 47 333 47 333 29 c 0
 333 0 313 0 305 0 c 0
 268 0 228 3 190 3 c 0
 158 3 123 0 92 0 c 0
 73 0 73 18 73 18 c 1
 73 47 90 47 104 47 c 0
 176 48 187 66 198 84 c 2
 563 686 l 2
 578 711 588 711 610 711 c 0
 640 711 643 708 646 682 c 2
 712 66 l 2
 714 51 715 50 727 48 c 0
 735 47 751 47 760 47 c 2
 773 47 l 2
 788 47 805 47 805 29 c 0
555 239 m 1
 525 517 l 1
 357 239 l 1
 555 239 l 1
822 793 m 0x10
 822 761 805 761 787 761 c 2
 470 761 l 2
 455 761 438 761 438 779 c 0
 438 811 455 811 473 811 c 2
 790 811 l 2
 805 811 822 811 822 793 c 0x10
EndSplineSet
Position2: "'cpsp' Capital Spacing lookup 0 subtable" dx=7 dy=0 dh=14 dv=0
EndChar

StartChar: amacron
Encoding: 257 257 173
Width: 591
Flags: MW
HStem: -8 36<248.5 275.5 248.5 286.5 489 512> 416 36<351 377 280 381.5> 576 50<278.5 606 289 603>
VStem: 96 107<92.5 126 70.5 219>
LayerCount: 2
Fore
SplineSet
615 148 m 0
 615 144 602 88 576 46 c 0
 563 26 538 -8 491 -8 c 0
 452 -8 407 8 388 43 c 1
 364 24 317 -8 256 -8 c 0
 180 -8 96 33 96 152 c 0
 96 286 196 452 364 452 c 0
 390 452 429 447 461 414 c 1
 474 427 491 435 508 435 c 0
 536 435 553 416 553 393 c 0
 553 389 553 387 549 372 c 2
 482 102 l 2
 478 86 476 78 476 59 c 0
 476 36 483 28 495 28 c 0
 529 28 547 103 555 136 c 0
 562 161 563 162 587 162 c 0
 602 162 615 162 615 148 c 0
376 100 m 1
 377 108 377 111 379 118 c 2
 438 354 l 1
 427 394 399 416 364 416 c 0
 338 416 283 401 249 304 c 0
 238 276 203 153 203 99 c 0
 203 42 237 28 260 28 c 0
 291 28 333 43 376 100 c 1
638 608 m 0x20
 638 576 621 576 603 576 c 2
 286 576 l 2
 271 576 254 576 254 594 c 0
 254 626 271 626 289 626 c 2
 606 626 l 2
 621 626 638 626 638 608 c 0x20
EndSplineSet
EndChar

StartChar: anglearc
Encoding: 8738 8738 174
Width: 886
Flags: MW
HStem: -102 21G<493 506> 584 20G<669.5 683>
LayerCount: 2
Fore
SplineSet
916 472 m 0
 912 459 901 448 888 444 c 2
 749 400 l 1
 750 352 744 302 732 251 c 0
 719 200 700 150 674 102 c 1
 792 58 l 2
 803 54 808 43 805 30 c 0
 800 9 776 -5 758 2 c 2
 641 45 l 1
 609 -3 571 -49 528 -91 c 0
 521 -98 511 -102 501 -102 c 0
 485 -102 475 -89 479 -72 c 0
 481 -65 485 -59 490 -53 c 0
 528 -17 561 23 589 65 c 1
 165 223 l 2
 154 227 148 238 152 251 c 0
 155 264 166 275 179 279 c 2
 682 437 l 1
 675 479 662 519 642 555 c 0
 640 561 639 567 640 574 c 0
 645 591 661 604 678 604 c 0
 688 604 695 600 699 593 c 0
 721 551 736 505 744 457 c 1
 883 500 l 2
 904 507 921 493 916 472 c 0
672 251 m 0
 683 295 688 338 687 380 c 1
 275 251 l 1
 622 122 l 1
 644 164 661 207 672 251 c 0
EndSplineSet
EndChar

StartChar: angleleft
Encoding: 9001 9001 175
Width: 473
Flags: MW
HStem: -250 21G<280.5 307.5> 730 20G<527 532 532 540.5>
LayerCount: 2
Fore
SplineSet
563 720 m 0
 563 704 548 686 539 673 c 2
 293 277 l 1
 279 255 l 2
 277 251 273 247 272 243 c 2
 272 240 l 2
 272 234 274 226 274 220 c 2
 280 176 l 1
 324 -182 l 2
 325 -192 328 -204 328 -215 c 0
 328 -231 318 -250 297 -250 c 0
 264 -250 266 -213 263 -191 c 2
 217 183 l 1
 212 229 l 2
 211 236 209 243 209 250 c 0
 209 266 222 279 229 292 c 2
 270 357 l 1
 408 579 l 1
 488 707 l 2
 497 723 507 747 527 750 c 2
 532 750 l 2
 549 750 563 736 563 720 c 0
EndSplineSet
EndChar

StartChar: angleright
Encoding: 9002 9002 176
Width: 473
Flags: MW
HStem: -250 21G<56.5 76> 730 20G<286.5 295> 731 20G<300 316>
LayerCount: 2
Fore
SplineSet
388 254 m 0x20
 388 237 377 224 369 210 c 2
 108 -210 l 2
 97 -226 87 -250 65 -250 c 0
 48 -250 35 -235 35 -219 c 0
 35 -202 52 -183 62 -167 c 2
 305 224 l 1
 318 245 l 2
 322 250 326 256 326 263 c 0
 326 269 324 277 323 282 c 2
 317 330 l 1
 274 688 l 2
 273 697 270 707 270 717 c 0
 270 730 278 750 295 750 c 2xc0
 300 751 l 1
 332 751 332 717 334 696 c 2
 380 324 l 1
 386 275 l 2
 387 268 388 261 388 254 c 0x20
EndSplineSet
EndChar

StartChar: Aogonek
Encoding: 260 260 177
Width: 866
Flags: MW
HStem: -204 66<641 661> 0 47<97 104 97 107.5 307 309 777 780.5> 192 47<357 555 357 560 328 555> 691 20G<599 625>
VStem: 73 260<18 32.5>
LayerCount: 2
Fore
SplineSet
805 29 m 0
 805 0 787 0 777 0 c 2
 683 2 l 1
 601 -44 607 -138 675 -138 c 0
 698 -138 704 -127 713 -119 c 0
 722 -113 735 -116 742 -122 c 0
 750 -129 751 -144 746 -150 c 0
 718 -180 683 -204 639 -204 c 0
 569 -204 534 -159 534 -114 c 0
 534 -70 571 -21 606 3 c 1
 493 0 l 2
 471 0 471 18 471 18 c 1
 471 47 488 47 510 47 c 0
 530 47 556 48 575 52 c 1
 560 192 l 1
 328 192 l 1
 247 57 l 1
 271 48 307 47 307 47 c 2
 315 47 333 47 333 29 c 0
 333 0 313 0 305 0 c 0
 268 0 228 3 190 3 c 0
 158 3 123 0 92 0 c 0
 73 0 73 18 73 18 c 1
 73 47 90 47 104 47 c 0
 176 48 187 66 198 84 c 2
 563 686 l 2
 578 711 588 711 610 711 c 0
 640 711 643 708 646 682 c 2
 712 66 l 2
 714 51 715 50 727 48 c 0
 735 47 751 47 760 47 c 2
 773 47 l 2
 788 47 805 47 805 29 c 0
555 239 m 1
 525 517 l 1
 357 239 l 1
 555 239 l 1
EndSplineSet
Position2: "'cpsp' Capital Spacing lookup 0 subtable" dx=7 dy=0 dh=14 dv=0
EndChar

StartChar: aogonek
Encoding: 261 261 178
Width: 591
Flags: MW
HStem: -204 66<453.5 471> -8 36<248.5 275.5 248.5 286.5 489 491> 416 36<351 377 280 381.5>
VStem: 96 107<92.5 126 70.5 219>
LayerCount: 2
Fore
SplineSet
556 -150 m 0
 528 -180 493 -204 449 -204 c 0
 379 -204 344 -159 344 -114 c 0
 344 -70 384 -20 425 8 c 1
 409 16 396 28 388 43 c 1
 364 24 317 -8 256 -8 c 0
 180 -8 96 33 96 152 c 0
 96 286 196 452 364 452 c 0
 390 452 429 447 461 414 c 1
 474 427 491 435 508 435 c 0
 536 435 553 416 553 393 c 0
 553 389 553 387 549 372 c 2
 482 102 l 2
 478 86 476 78 476 59 c 0
 476 36 483 28 495 28 c 0
 529 28 547 103 555 136 c 0
 562 161 563 162 587 162 c 0
 602 162 615 162 615 148 c 0
 615 144 602 88 576 46 c 0
 563 26 538 -8 491 -8 c 0
 487 -8 482 -9 478 -8 c 0
 406 -55 422 -138 485 -138 c 0
 508 -138 514 -127 523 -119 c 0
 532 -113 545 -116 552 -122 c 0
 560 -129 561 -144 556 -150 c 0
376 100 m 1
 377 108 377 111 379 118 c 2
 438 354 l 1
 427 394 399 416 364 416 c 0
 338 416 283 401 249 304 c 0
 238 276 203 153 203 99 c 0
 203 42 237 28 260 28 c 0
 291 28 333 43 376 100 c 1
EndSplineSet
EndChar

StartChar: Aring
Encoding: 197 197 179
Width: 866
Flags: MW
HStem: 0 47<97 104 97 107.5 307 309 499 517 760 773 773 780.5> 192 47<357 555 357 560 328 555> 711 41<611 629 611 658.5 611 625> 838 41<633.5 654>
VStem: 73 260<18 32.5> 513 62<764.5 778.5> 689 62<811 825>
LayerCount: 2
Fore
SplineSet
805 29 m 0
 805 0 787 0 777 0 c 0
 732 0 685 3 640 3 c 0
 591 3 541 0 493 0 c 0
 471 0 471 18 471 18 c 1
 471 47 488 47 510 47 c 0
 530 47 556 48 575 52 c 1
 560 192 l 1
 328 192 l 1
 247 57 l 1
 271 48 307 47 307 47 c 2
 315 47 333 47 333 29 c 0
 333 0 313 0 305 0 c 0
 268 0 228 3 190 3 c 0
 158 3 123 0 92 0 c 0
 73 0 73 18 73 18 c 1
 73 47 90 47 104 47 c 0
 176 48 187 66 198 84 c 2
 563 686 l 2
 578 711 588 711 610 711 c 0
 640 711 643 708 646 682 c 2
 712 66 l 2
 714 51 715 50 727 48 c 0
 735 47 751 47 760 47 c 2
 773 47 l 2
 788 47 805 47 805 29 c 0
555 239 m 1
 525 517 l 1
 357 239 l 1
 555 239 l 1
689 814 m 0x36
 689 836 666 838 642 838 c 0
 625 838 603 837 590 823 c 0
 579 810 575 781 575 776 c 0
 575 753 600 752 622 752 c 0
 636 752 662 753 674 767 c 0
 685 781 689 808 689 814 c 0x36
751 813 m 0
 751 767 706 711 611 711 c 0
 550 711 513 734 513 777 c 0
 513 825 560 879 653 879 c 0
 717 879 751 853 751 813 c 0
EndSplineSet
Position2: "'cpsp' Capital Spacing lookup 0 subtable" dx=7 dy=0 dh=14 dv=0
EndChar

StartChar: aring
Encoding: 229 229 180
Width: 591
Flags: MW
HStem: -8 36<248.5 275.5 248.5 286.5 489 512> 416 36<351 377 280 381.5> 534 41<429 447 429 476.5> 661 41<451.5 472>
VStem: 96 107<92.5 126 70.5 219> 331 62<587.5 601.5 587.5 624> 507 62<634 648>
LayerCount: 2
Fore
SplineSet
615 148 m 0
 615 144 602 88 576 46 c 0
 563 26 538 -8 491 -8 c 0
 452 -8 407 8 388 43 c 1
 364 24 317 -8 256 -8 c 0
 180 -8 96 33 96 152 c 0
 96 286 196 452 364 452 c 0
 390 452 429 447 461 414 c 1
 474 427 491 435 508 435 c 0
 536 435 553 416 553 393 c 0
 553 389 553 387 549 372 c 2
 482 102 l 2
 478 86 476 78 476 59 c 0
 476 36 483 28 495 28 c 0
 529 28 547 103 555 136 c 0
 562 161 563 162 587 162 c 0
 602 162 615 162 615 148 c 0
376 100 m 1
 377 108 377 111 379 118 c 2
 438 354 l 1
 427 394 399 416 364 416 c 0
 338 416 283 401 249 304 c 0
 238 276 203 153 203 99 c 0
 203 42 237 28 260 28 c 0
 291 28 333 43 376 100 c 1
507 637 m 0x36
 507 659 484 661 460 661 c 0
 443 661 421 660 408 646 c 0
 397 633 393 604 393 599 c 0
 393 576 418 575 440 575 c 0
 454 575 480 576 492 590 c 0
 503 604 507 631 507 637 c 0x36
569 636 m 0
 569 590 524 534 429 534 c 0
 368 534 331 557 331 600 c 0
 331 648 378 702 471 702 c 0
 535 702 569 676 569 636 c 0
EndSplineSet
EndChar

StartChar: Aringacute
Encoding: 506 506 181
Width: 866
Flags: MW
HStem: 0 47<97 104 97 107.5 307 309 499 517 760 773 773 780.5> 192 47<357 555 357 560 328 555> 711 41<611 629 611 658.5 611 625> 838 41<633.5 654> 1061 20G<751 776>
VStem: 73 260<18 32.5>
LayerCount: 2
Fore
SplineSet
805 29 m 0
 805 0 787 0 777 0 c 0
 732 0 685 3 640 3 c 0
 591 3 541 0 493 0 c 0
 471 0 471 18 471 18 c 1
 471 47 488 47 510 47 c 0
 530 47 556 48 575 52 c 1
 560 192 l 1
 328 192 l 1
 247 57 l 1
 271 48 307 47 307 47 c 2
 315 47 333 47 333 29 c 0
 333 0 313 0 305 0 c 0
 268 0 228 3 190 3 c 0
 158 3 123 0 92 0 c 0
 73 0 73 18 73 18 c 1
 73 47 90 47 104 47 c 0
 176 48 187 66 198 84 c 2
 563 686 l 2
 578 711 588 711 610 711 c 0
 640 711 643 708 646 682 c 2
 712 66 l 2
 714 51 715 50 727 48 c 0
 735 47 751 47 760 47 c 2
 773 47 l 2
 788 47 805 47 805 29 c 0
555 239 m 1
 525 517 l 1
 357 239 l 1
 555 239 l 1
689 814 m 0x38
 689 836 666 838 642 838 c 0
 625 838 603 837 590 823 c 0
 579 810 575 781 575 776 c 0
 575 753 600 752 622 752 c 0
 636 752 662 753 674 767 c 0
 685 781 689 808 689 814 c 0x38
751 813 m 0
 751 767 706 711 611 711 c 0
 550 711 513 734 513 777 c 0
 513 825 560 879 653 879 c 0
 717 879 751 853 751 813 c 0
807 1024 m 0
 801 994 774 983 759 978 c 2
 593 917 l 2
 587 915 582 914 576 914 c 0
 560 916 553 945 554 951 c 0
 555 958 563 964 569 968 c 2
 709 1059 l 2
 729 1072 742 1081 760 1081 c 0
 792 1081 812 1056 807 1024 c 0
EndSplineSet
Position2: "'cpsp' Capital Spacing lookup 0 subtable" dx=7 dy=0 dh=14 dv=0
EndChar

StartChar: aringacute
Encoding: 507 507 182
Width: 591
Flags: MW
HStem: -8 36<248.5 275.5 248.5 286.5 489 512> 416 36<351 377 280 381.5> 534 41<429 447 429 476.5> 661 41<451.5 472> 884 20G<569 594>
VStem: 96 107<92.5 126 70.5 219> 331 62<587.5 601.5 587.5 624> 507 62<634 648>
LayerCount: 2
Fore
SplineSet
615 148 m 0
 615 144 602 88 576 46 c 0
 563 26 538 -8 491 -8 c 0
 452 -8 407 8 388 43 c 1
 364 24 317 -8 256 -8 c 0
 180 -8 96 33 96 152 c 0
 96 286 196 452 364 452 c 0
 390 452 429 447 461 414 c 1
 474 427 491 435 508 435 c 0
 536 435 553 416 553 393 c 0
 553 389 553 387 549 372 c 2
 482 102 l 2
 478 86 476 78 476 59 c 0
 476 36 483 28 495 28 c 0
 529 28 547 103 555 136 c 0
 562 161 563 162 587 162 c 0
 602 162 615 162 615 148 c 0
376 100 m 1
 377 108 377 111 379 118 c 2
 438 354 l 1
 427 394 399 416 364 416 c 0
 338 416 283 401 249 304 c 0
 238 276 203 153 203 99 c 0
 203 42 237 28 260 28 c 0
 291 28 333 43 376 100 c 1
507 637 m 0x3b
 507 659 484 661 460 661 c 0
 443 661 421 660 408 646 c 0
 397 633 393 604 393 599 c 0
 393 576 418 575 440 575 c 0
 454 575 480 576 492 590 c 0
 503 604 507 631 507 637 c 0x3b
569 636 m 0
 569 590 524 534 429 534 c 0
 368 534 331 557 331 600 c 0
 331 648 378 702 471 702 c 0
 535 702 569 676 569 636 c 0
625 847 m 0
 619 817 592 806 577 801 c 2
 411 740 l 2
 405 738 400 737 394 737 c 0
 378 739 371 768 372 774 c 0
 373 781 381 787 387 791 c 2
 527 882 l 2
 547 895 560 904 578 904 c 0
 610 904 630 879 625 847 c 0
EndSplineSet
EndChar

StartChar: uni2193
Encoding: 8595 8595 183
Width: 592
Flags: W
LayerCount: 2
Fore
SplineSet
565 62 m 2
 563 53 555 46 546 44 c 0
 428 20 319 -68 269 -180 c 0
 265 -188 256 -194 247 -194 c 0
 239 -194 233 -188 233 -180 c 0
 239 -68 174 20 68 44 c 0
 60 46 56 53 58 62 c 2
 64 86 l 2
 67 97 79 106 90 103 c 0
 166 86 226 42 260 -23 c 1
 432 664 l 2
 442 704 502 704 492 664 c 2
 320 -23 l 1
 387 42 469 86 554 103 c 0
 565 106 574 97 571 86 c 2
 565 62 l 2
EndSplineSet
EndChar

StartChar: uni2190
Encoding: 8592 8592 184
Width: 1121
Flags: MW
HStem: -17 21G<329 352 329 329> 220 61<321 1012 299 1053> 498 20G<459 474 474 479>
VStem: 313 61<8 19 19 49 1 61>
LayerCount: 2
Fore
SplineSet
1094 254 m 0
 1094 227 1069 219 1047 219 c 0
 1035 219 1023 220 1012 220 c 2
 299 220 l 1
 354 162 374 90 374 8 c 0
 374 -6 369 -17 352 -17 c 2
 329 -17 l 2
 315 -15 313 -4 313 8 c 2
 313 19 l 2
 313 103 271 186 192 222 c 0
 179 228 153 233 153 250 c 2
 153 252 l 2
 154 267 172 270 184 274 c 0
 289 309 380 391 430 489 c 0
 436 502 440 518 459 518 c 2
 474 518 l 2
 484 518 495 517 498 505 c 2
 498 499 l 2
 498 486 483 465 476 451 c 0
 439 383 384 326 321 281 c 1
 1053 281 l 2
 1069 281 1094 280 1094 254 c 0
EndSplineSet
EndChar

StartChar: uni2192
Encoding: 8594 8594 185
Width: 1121
Flags: MW
HStem: -17 21G<761.5 769 769 788> 220 61<185 947 234 925> 498 20G<896 917 917 917>
VStem: 871 61<479 480 480 481.5 479 489.5>
LayerCount: 2
Fore
SplineSet
1093 249 m 2
 1092 233 1073 231 1061 227 c 0
 956 189 866 113 815 11 c 0
 810 -1 806 -17 788 -17 c 2
 769 -17 l 2
 754 -17 748 -10 748 2 c 0
 748 5 748 7 749 10 c 0
 782 89 849 170 925 220 c 1
 193 220 l 2
 177 220 152 221 152 247 c 0
 152 273 175 282 199 282 c 0
 211 282 223 281 234 281 c 2
 947 281 l 1
 897 333 871 406 871 476 c 2
 871 480 l 2
 871 499 872 518 896 518 c 2
 917 518 l 1
 930 512 933 508 933 496 c 0
 933 490 932 484 932 479 c 0
 938 395 973 320 1052 280 c 0
 1065 273 1093 268 1093 250 c 2
 1093 249 l 2
EndSplineSet
EndChar

StartChar: uni2191
Encoding: 8593 8593 186
Width: 592
Flags: W
LayerCount: 2
Fore
SplineSet
653 414 m 2
 650 403 638 394 627 397 c 0
 551 414 491 458 457 523 c 1
 285 -164 l 2
 275 -204 215 -204 225 -164 c 2
 397 523 l 1
 330 458 248 414 163 397 c 0
 152 394 143 403 146 414 c 2
 152 438 l 2
 154 447 162 454 171 456 c 0
 289 480 398 568 448 680 c 0
 452 688 461 694 470 694 c 0
 478 694 484 688 484 680 c 0
 478 568 543 480 649 456 c 0
 657 454 661 447 659 438 c 2
 653 414 l 2
EndSplineSet
EndChar

StartChar: asterisk.math
Encoding: 8727 8727 187
Width: 591
Flags: MW
HStem: 29 21G<300 303 300 300> 453 20G<413 416 416 416>
LayerCount: 2
Fore
SplineSet
535 174 m 0
 535 153 511 118 481 118 c 0
 461 118 450 135 438 147 c 2
 369 217 l 1
 364 181 361 143 358 107 c 0
 356 90 358 69 348 54 c 0
 339 39 321 29 303 29 c 2
 300 29 l 2
 285 30 269 40 269 58 c 0
 269 71 277 85 281 96 c 0
 298 136 315 176 330 217 c 1
 214 139 l 2
 201 130 187 118 171 118 c 0
 148 118 138 135 138 152 c 0
 138 191 175 201 212 212 c 2
 278 236 l 2
 291 241 305 247 319 250 c 1
 310 257 298 260 288 265 c 0
 267 274 245 283 224 293 c 2
 203 302 l 2
 192 308 181 314 181 328 c 0
 181 349 205 384 235 384 c 0
 255 384 266 367 278 355 c 2
 347 285 l 1
 352 321 355 359 358 395 c 0
 360 412 358 433 368 448 c 0
 377 463 395 473 413 473 c 2
 416 473 l 2
 431 472 447 462 447 444 c 0
 447 431 439 417 435 406 c 0
 418 366 401 326 386 285 c 1
 502 363 l 2
 515 372 529 384 545 384 c 0
 568 384 578 367 578 350 c 0
 578 311 541 301 504 290 c 2
 438 266 l 2
 425 261 411 255 397 252 c 1
 406 245 418 242 428 237 c 0
 449 228 471 219 492 209 c 2
 513 200 l 2
 524 194 535 188 535 174 c 0
EndSplineSet
EndChar

StartChar: Atilde
Encoding: 195 195 188
Width: 866
Flags: MW
HStem: 0 47<97 104 97 107.5 307 309 499 517 760 773 773 780.5> 192 47<357 555 357 560 328 555> 691 20G<599 625> 741 58<664 710.5> 802 58<576 577>
VStem: 73 260<18 32.5>
LayerCount: 2
Fore
SplineSet
805 29 m 0
 805 0 787 0 777 0 c 0
 732 0 685 3 640 3 c 0
 591 3 541 0 493 0 c 0
 471 0 471 18 471 18 c 1
 471 47 488 47 510 47 c 0
 530 47 556 48 575 52 c 1
 560 192 l 1
 328 192 l 1
 247 57 l 1
 271 48 307 47 307 47 c 2
 315 47 333 47 333 29 c 0
 333 0 313 0 305 0 c 0
 268 0 228 3 190 3 c 0
 158 3 123 0 92 0 c 0
 73 0 73 18 73 18 c 1
 73 47 90 47 104 47 c 0
 176 48 187 66 198 84 c 2
 563 686 l 2
 578 711 588 711 610 711 c 0
 640 711 643 708 646 682 c 2
 712 66 l 2
 714 51 715 50 727 48 c 0
 735 47 751 47 760 47 c 2
 773 47 l 2
 788 47 805 47 805 29 c 0
555 239 m 1
 525 517 l 1
 357 239 l 1
 555 239 l 1
820 842 m 0x18
 820 828 775 793 759 780 c 0
 734 760 702 741 673 741 c 0
 655 741 636 746 605 780 c 0
 594 794 584 802 570 802 c 0
 543 802 504 770 482 751 c 0
 476 745 471 741 464 741 c 0
 451 741 446 753 446 759 c 0
 446 772 487 805 503 817 c 0
 521 831 559 860 593 860 c 0
 613 860 633 852 654 828 c 0
 673 806 683 799 696 799 c 0
 725 799 768 836 781 847 c 0
 790 856 794 860 802 860 c 0
 812 860 820 852 820 842 c 0x18
EndSplineSet
Position2: "'cpsp' Capital Spacing lookup 0 subtable" dx=7 dy=0 dh=14 dv=0
EndChar

StartChar: atilde
Encoding: 227 227 189
Width: 591
Flags: MW
HStem: -8 36<248.5 275.5 248.5 286.5 489 512> 416 36<351 377 280 381.5> 541 58<477 523.5> 602 58<389 390>
VStem: 96 107<92.5 126 70.5 219>
LayerCount: 2
Fore
SplineSet
615 148 m 0
 615 144 602 88 576 46 c 0
 563 26 538 -8 491 -8 c 0
 452 -8 407 8 388 43 c 1
 364 24 317 -8 256 -8 c 0
 180 -8 96 33 96 152 c 0
 96 286 196 452 364 452 c 0
 390 452 429 447 461 414 c 1
 474 427 491 435 508 435 c 0
 536 435 553 416 553 393 c 0
 553 389 553 387 549 372 c 2
 482 102 l 2
 478 86 476 78 476 59 c 0
 476 36 483 28 495 28 c 0
 529 28 547 103 555 136 c 0
 562 161 563 162 587 162 c 0
 602 162 615 162 615 148 c 0
376 100 m 1
 377 108 377 111 379 118 c 2
 438 354 l 1
 427 394 399 416 364 416 c 0
 338 416 283 401 249 304 c 0
 238 276 203 153 203 99 c 0
 203 42 237 28 260 28 c 0
 291 28 333 43 376 100 c 1
633 642 m 0x30
 633 628 588 593 572 580 c 0
 547 560 515 541 486 541 c 0
 468 541 449 546 418 580 c 0
 407 594 397 602 383 602 c 0
 356 602 317 570 295 551 c 0
 289 545 284 541 277 541 c 0
 264 541 259 553 259 559 c 0
 259 572 300 605 316 617 c 0
 334 631 372 660 406 660 c 0
 426 660 446 652 467 628 c 0
 486 606 496 599 509 599 c 0
 538 599 581 636 594 647 c 0
 603 656 607 660 615 660 c 0
 625 660 633 652 633 642 c 0x30
EndSplineSet
EndChar

StartChar: baht
Encoding: 3647 3647 190
Width: 817
Flags: MW
HStem: 0 47<88.5 121 99 121 121 127 329 376 436 470 470 496> 339 36<387 461 378 470 518 526 526 552> 639 47<248.5 548 259 278 469.5 485 485 536 259 584 596 616>
VStem: 699 132<519 597.5 510.5 598>
LayerCount: 2
Fore
SplineSet
778 225 m 0
 778 131 686 0 496 0 c 2
 424 0 l 1
 412 -48 l 2
 409 -61 396 -72 382 -72 c 0
 369 -72 361 -61 364 -48 c 2
 376 0 l 1
 96 0 l 2
 81 0 64 0 64 18 c 0
 64 47 82 47 99 47 c 2
 121 47 l 2
 133 47 149 48 161 49 c 0
 179 50 180 51 184 65 c 2
 327 637 l 1
 315 638 289 639 278 639 c 2
 256 639 l 2
 241 639 224 639 224 657 c 0
 224 686 242 686 259 686 c 2
 548 686 l 1
 560 734 l 2
 563 747 577 758 590 758 c 0
 603 758 611 747 608 734 c 2
 596 686 l 1
 639 686 l 2
 744 686 831 645 831 550 c 0
 831 471 765 384 628 358 c 1
 708 351 778 310 778 225 c 0
699 557 m 0
 699 639 636 639 616 639 c 2
 584 639 l 1
 518 375 l 1
 526 375 l 2
 645 375 699 481 699 557 c 0
470 375 m 1
 536 639 l 1
 485 639 l 2
 454 639 453 638 449 623 c 2
 387 375 l 1
 470 375 l 1
643 245 m 0
 643 339 575 339 552 339 c 2
 509 339 l 1
 436 47 l 1
 470 47 l 2
 596 47 643 166 643 245 c 0
388 47 m 1
 461 339 l 1
 378 339 l 1
 306 48 l 1
 313 47 320 47 329 47 c 2
 388 47 l 1
EndSplineSet
EndChar

StartChar: Beta
Encoding: 914 914 191
Width: 817
Flags: MW
HStem: 0 47<88.5 121 99 121 121 127 329 470 470 496> 339 36<387 526 526 552 378 526> 639 47<248.5 639 259 278 469.5 485 485 616>
VStem: 699 132<519 597.5 510.5 598>
LayerCount: 2
Fore
SplineSet
778 225 m 0
 778 131 686 0 496 0 c 2
 96 0 l 2
 81 0 64 0 64 18 c 0
 64 47 82 47 99 47 c 2
 121 47 l 2
 133 47 149 48 161 49 c 0
 179 50 180 51 184 65 c 2
 327 637 l 1
 315 638 289 639 278 639 c 2
 256 639 l 2
 241 639 224 639 224 657 c 0
 224 686 242 686 259 686 c 2
 639 686 l 2
 744 686 831 645 831 550 c 0
 831 471 765 384 628 358 c 1
 708 351 778 310 778 225 c 0
699 557 m 0
 699 639 636 639 616 639 c 2
 485 639 l 2
 454 639 453 638 449 623 c 2
 387 375 l 1
 526 375 l 2
 645 375 699 481 699 557 c 0
643 245 m 0
 643 339 575 339 552 339 c 2
 378 339 l 1
 306 48 l 1
 313 47 320 47 329 47 c 2
 470 47 l 2
 596 47 643 166 643 245 c 0
EndSplineSet
EndChar

StartChar: blanksymbol
Encoding: 9250 9250 192
Width: 532
Flags: MW
HStem: -8 36<239 279.5 239 353.5> 416 36<354.5 384.5> 639 51
VStem: 112 96<100 124 100 155> 430 107<318 351.5 226 373.5>
LayerCount: 2
Fore
SplineSet
537 292 m 0
 537 160 439 -8 268 -8 c 0
 196 -8 112 29 112 150 c 0
 112 160 112 186 121 222 c 2
 180 459 l 1
 136 429 l 2
 131 425 125 423 119 423 c 0
 106 423 98 434 101 447 c 0
 103 454 108 461 114 465 c 2
 196 522 l 1
 224 637 l 1
 212 638 194 639 182 639 c 0
 173 639 155 639 155 657 c 0
 155 686 175 686 186 687 c 2
 309 693 l 2
 323 694 341 695 341 676 c 0
 341 671 339 665 338 660 c 2
 326 614 l 1
 397 663 l 2
 402 667 408 669 414 669 c 0
 427 669 435 658 432 645 c 0
 430 638 425 631 419 627 c 2
 311 551 l 1
 279 424 l 1
 295 434 332 452 377 452 c 0
 453 452 537 411 537 292 c 0
384 140 m 0
 395 168 430 291 430 345 c 0
 430 402 396 416 373 416 c 0
 335 416 295 391 269 359 c 0
 259 348 259 346 252 320 c 0
 245 289 238 264 230 228 c 0
 214 167 208 141 208 107 c 0
 208 93 208 28 270 28 c 0
 289 28 348 37 384 140 c 0
EndSplineSet
EndChar

StartChar: breve
Encoding: 728 728 193
Width: 591
Flags: MW
HStem: 511 59<409.5 454 409.5 490> 670 20G<307.5 322 603.5 615>
LayerCount: 2
Fore
SplineSet
628 672 m 0
 628 632 552 511 428 511 c 0
 353 511 295 561 295 638 c 0
 295 665 298 690 317 690 c 0
 327 690 335 681 335 672 c 0
 335 665 332 661 332 647 c 0
 332 594 385 570 434 570 c 0
 474 570 564 590 592 674 c 0
 594 679 597 690 610 690 c 0
 620 690 628 682 628 672 c 0
EndSplineSet
EndChar

StartChar: uni032E
Encoding: 814 814 194
Width: 0
Flags: MW
HStem: -215 59<-362.5 -318 -362.5 -282> -56 20G<-464.5 -450 -168.5 -157>
LayerCount: 2
Fore
SplineSet
-144 -54 m 0
 -144 -94 -220 -215 -344 -215 c 0
 -419 -215 -477 -165 -477 -88 c 0
 -477 -61 -474 -36 -455 -36 c 0
 -445 -36 -437 -45 -437 -54 c 0
 -437 -61 -440 -65 -440 -79 c 0
 -440 -132 -387 -156 -338 -156 c 0
 -298 -156 -208 -136 -180 -52 c 0
 -178 -47 -175 -36 -162 -36 c 0
 -152 -36 -144 -44 -144 -54 c 0
EndSplineSet
EndChar

StartChar: uni032F
Encoding: 815 815 195
Width: 0
Flags: MW
HStem: -215 21G<-495 -483.5 -202 -187.5> -95 59<-334 -289.5>
LayerCount: 2
Fore
SplineSet
-175 -163 m 0
 -175 -190 -178 -215 -197 -215 c 0
 -207 -215 -215 -206 -215 -197 c 0
 -215 -190 -212 -186 -212 -172 c 0
 -212 -119 -265 -95 -314 -95 c 0
 -354 -95 -444 -115 -472 -199 c 0
 -474 -204 -477 -215 -490 -215 c 0
 -500 -215 -508 -207 -508 -197 c 0
 -508 -157 -432 -36 -308 -36 c 0
 -233 -36 -175 -86 -175 -163 c 0
EndSplineSet
EndChar

StartChar: uni0306
Encoding: 774 774 196
Width: 0
Flags: MW
HStem: 511 59<-181.5 -137 -181.5 -101> 670 20G<-283.5 -269 12.5 24>
LayerCount: 2
Fore
SplineSet
37 672 m 0
 37 632 -39 511 -163 511 c 0
 -238 511 -296 561 -296 638 c 0
 -296 665 -293 690 -274 690 c 0
 -264 690 -256 681 -256 672 c 0
 -256 665 -259 661 -259 647 c 0
 -259 594 -206 570 -157 570 c 0
 -117 570 -27 590 1 674 c 0
 3 679 6 690 19 690 c 0
 29 690 37 682 37 672 c 0
EndSplineSet
EndChar

StartChar: uni0311
Encoding: 785 785 197
Width: 0
Flags: MW
HStem: 511 21G<-314 -302.5 -21 -6.5> 631 59<-153 -108.5>
LayerCount: 2
Fore
SplineSet
6 563 m 0
 6 536 3 511 -16 511 c 0
 -26 511 -34 520 -34 529 c 0
 -34 536 -31 540 -31 554 c 0
 -31 607 -84 631 -133 631 c 0
 -173 631 -263 611 -291 527 c 0
 -293 522 -296 511 -309 511 c 0
 -319 511 -327 519 -327 529 c 0
 -327 569 -251 690 -127 690 c 0
 -52 690 6 640 6 563 c 0
EndSplineSet
EndChar

StartChar: brokenbar
Encoding: 166 166 198
Width: 319
Flags: MW
HStem: 730 20G<332.5 363>
LayerCount: 2
Fore
SplineSet
367 706 m 2
 275 341 l 2
 272 327 255 317 239 317 c 0
 223 317 211 327 214 341 c 2
 306 706 l 2
 309 721 317 750 348 750 c 0
 378 750 370 720 367 706 c 2
139 -206 m 2
 135 -221 128 -250 97 -250 c 0
 67 -250 74 -220 78 -206 c 2
 169 159 l 2
 172 173 189 183 205 183 c 0
 221 183 233 173 230 159 c 2
 139 -206 l 2
EndSplineSet
EndChar

StartChar: bullet
Encoding: 8226 8226 199
Width: 886
Flags: MW
HStem: 72 314<486.5 516>
LayerCount: 2
Fore
SplineSet
661 260 m 0
 661 160 564 72 468 72 c 0
 406 72 340 110 340 198 c 0
 340 305 443 386 530 386 c 0
 607 386 661 335 661 260 c 0
EndSplineSet
EndChar

StartChar: Cacute
Encoding: 262 262 200
Width: 827
Flags: MW
HStem: -17 47<467 494.5> 656 47<610.5 642.5 483 693.5> 751 21G<596 599> 898 20G<771 796>
VStem: 163 135<191.5 224.5 191.5 351>
LayerCount: 2
Fore
SplineSet
849 446 m 2
 844 426 842 426 817 426 c 0
 797 426 786 426 786 441 c 0
 786 448 789 454 789 484 c 0
 789 578 743 656 644 656 c 0
 577 656 480 631 411 547 c 0
 323 439 298 247 298 202 c 0
 298 181 298 119 344 77 c 0
 388 36 451 30 483 30 c 0
 562 30 692 82 740 239 c 0
 743 248 752 248 767 248 c 0
 782 248 795 248 795 234 c 0
 795 225 773 136 688 68 c 0
 611 6 531 -17 458 -17 c 0
 310 -17 163 53 163 245 c 0
 163 457 336 703 630 703 c 0
 655 703 733 703 796 635 c 1
 882 703 l 1
 897 703 909 703 909 689 c 2
 909 689 909 685 905 670 c 2
 849 446 l 2
827 861 m 0x30
 821 831 794 820 779 815 c 2
 613 754 l 2
 607 752 602 751 596 751 c 0
 580 753 573 782 574 788 c 0
 575 795 583 801 589 805 c 2
 729 896 l 2
 749 909 762 918 780 918 c 0
 812 918 832 893 827 861 c 0x30
EndSplineSet
Position2: "'cpsp' Capital Spacing lookup 0 subtable" dx=7 dy=0 dh=14 dv=0
EndChar

